<svg viewBox="0 0 2674.6 1521.6" xmlns="http://www.w3.org/2000/svg"><path d="m2135.2 1573.5-.1 3.4 48-16-53.6-47.6 6.8 25.7c2.9 11.4 4.6 23.6-1 34.5zM2021.2 1614.7a9.7 9.7 0 0 1-1-2c-5.4-13-10.8-26.6-10-40.8a45.1 45.1 0 0 1 3.7-15.5v-.4c.7-12 6.2-23.7 15.9-31.1a30.1 30.1 0 0 1 33.8-1.6c12.5 7.4 18.8 20.2 26.2 32 5 8 12.5 17.8 23.2 17.2a10.1 10.1 0 0 0 7.1-3.2 39.7 39.7 0 0 0-.6-4.8c-2.7-13.7-7.1-27.1-10.7-40.6l-10.3-38-173-154-68.8 333.4h11.5z" fill="#2ed3cb"/><path d="m2522 1521.6-27-13 16.3-34 97.6 47h7l-104.2-50.1-10.2-23 152.2 73h7l-163-78.2-18 37.7 3.9 9.4-4.5 9.3 9 21.9zm-23.6-72.6 10.5 23.6-15.8 33-10-24.5z" fill="#1e0f00"/><path d="M2439.3 995.7h.1c1-.6-.1-.5-.2 0zM2184 1474.7c-1.4-13.6-5.1-27.2-7.8-40.6-1.7-8.7-4.9-18.9-5-28.4a26.5 26.5 0 0 0-2.3 4.9c-4 12.3 1.2 27.2 3.6 39.3 2.5 12.4 5.8 25 7.4 37.6a4 4 0 0 0 2.3-.9c2.9-2.4 2-8.6 1.8-11.9zM2203.6 1412.3c-1-4.9-2-11-5.4-15a23.3 23.3 0 0 0-3.3-1.4 19.7 19.7 0 0 0-5-1 7.6 7.6 0 0 0-2.9 3.9c-1.3 3.6-1 7.7-.2 11.6 1.8-.9 4-.5 6.2 1.3 4.6 3.8 5.7 11 6.9 16.5 2 9.4 16.4 5 14.3-4.5a88 88 0 0 0-1.7-6.6c-3.6 1.2-7.9 0-9-4.8z" fill="#381c00"/><path d="M2178.6 1502.4h-.1c-2.9 2.5-6.5 0-8.8-2.6a35.7 35.7 0 0 1-14.7-18c-5.3-12.3-9.8-25-14.7-37.4l-15.1-38.3-7.6-19.2c-1.7-4.4-3.3-9-6.3-12.8a20.5 20.5 0 0 0-8.5-2.4c-3.4 1.7-6 6.4-6.4 10.5a29.4 29.4 0 0 0 .2 7.2c3-3 7-4 10.8.4 3.1 3.7 4.8 8.5 6.5 13l7.6 19.1 15 38.4c5 12.4 9.5 25 14.8 37.3 4.3 10.1 11.4 19.7 23.4 20.6 13.4 1 20.4-10.7 20.8-22.7v-2.2c-3.4 5.7-9 9.6-17 9zM2119.5 1564.5a39.7 39.7 0 0 1 .6 4.8c4.6-5 4.3-14.4 3-20.6-2.6-13.7-7-27.2-10.6-40.6l-11.4-42.5-11.1-41.5c-3.4-12.4-8.7-26-8.7-39a34 34 0 0 0-3.7 15.3c-.2 13.2 5.3 27 8.7 39.6l11 41.5 1.3 4.3 10.2 38.1c3.6 13.5 8 27 10.7 40.6z" fill="#381c00"/><path d="m2287.2 1467.8-21.6-12.9a68 68 0 0 0-8 10.4l21 12.3a44.2 44.2 0 0 1 8.6-9.9zM2381 1523.3l-21.4-12.7.7-1.3a41.4 41.4 0 0 0-35.5-62.4 41.6 41.6 0 0 0-34.5 18.4 44.3 44.3 0 0 1 48.2-2 44.4 44.4 0 0 1 16.3 59.5l21 12.4a69.2 69.2 0 0 0 5.2-12z"/><path d="m2350.8 1523.9 26 15.4.7-1.3a72.5 72.5 0 0 0 6.1-13.2l2 1.2.8-1.3a71.6 71.6 0 0 0-61.5-108 72 72 0 0 0-61.8 35l-.7 1.3.5.4a70.7 70.7 0 0 0-8.6 11.6l-.8 1.3 26 15.4.8-1.2a41.4 41.4 0 0 1 56.7-14.6 41.4 41.4 0 0 1 14.5 56.7zm8-33.4a44.3 44.3 0 0 0-42.8-33.4 44.6 44.6 0 0 0-25.7 8.2 41.4 41.4 0 0 1 55.5-12.7 41.4 41.4 0 0 1 14.6 56.7l-.8 1.3 21.4 12.7a69.2 69.2 0 0 1-5.3 11.9l-20.8-12.4a44 44 0 0 0 4-32.3zm-101.2-25.2a68 68 0 0 1 8-10.4l21.6 12.8a44.2 44.2 0 0 0-8.7 10zm102-36.1a68.7 68.7 0 0 1 25 92.7l-21-12.4a44.3 44.3 0 0 0-38.8-65.6 44.6 44.6 0 0 0-37.5 20.4l-20.8-12.3a68.7 68.7 0 0 1 93.2-22.8z" fill="#381c00"/><path d="m2653.6 1044.3-1-.8c.3.7.6.8 1 .8z" fill="#fcfcfc"/><path d="m2266.5 1452 20.8 12.3a44.4 44.4 0 0 1 60-14.3 44.4 44.4 0 0 1 16.4 59.5l20.8 12.4a68.6 68.6 0 0 0-59.7-102.3 69 69 0 0 0-58.3 32.4z" fill="#ffe552"/><path d="m2495 1508.6 27 13h87l-97.7-47z" fill="#2ed3cb"/><path d="m2511.8 1471.5 104 50h38l-152.3-73z" fill="#f07e67"/><path d="m2493 1505.6 16-33-10.5-23.6-15.5 32z" fill="#ffe552"/><path d="m2101.1 1465.6 11.4 42.5c3.6 13.4 8 27 10.7 40.6 1.2 6.2 1.4 15.6-3 20.6a10.1 10.1 0 0 1-7.2 3.2c-10.7.7-18.2-9-23.2-17-7.4-12-13.7-24.8-26.2-32.2a30.1 30.1 0 0 0-33.8 1.6 41.8 41.8 0 0 0-15.9 31.1v.4c-.7 14 4.6 27.6 10 40.4 1.3 3.4 4.4 5.7 8 5.2a7.5 7.5 0 0 0 1.3-.2c3.6-1.1 6.5-5.7 5-9.4-3.8-9.2-8.9-21.7-9.3-33.1-.3-9.1 2.4-17.5 11-23.1a19 19 0 0 1 2.5-1.4c7.2-3.3 13.5-.3 19.1 5.3 9 9 16 24.7 21.3 31.3a47.3 47.3 0 0 0 11.9 10.8 35 35 0 0 0 11 4.5 31.6 31.6 0 0 0 3.4.6 27.6 27.6 0 0 0 4.4.1 25.6 25.6 0 0 0 21.8-13.8 1 1 0 0 0 .1-.1c5.6-11 4-23.1 1-34.5l-6.8-25.7-3.4-12.5-21.8-81.1-5.2-19.3a98.8 98.8 0 0 1-2.5-11 29.4 29.4 0 0 1-.2-7.2c.4-4.1 3-8.8 6.4-10.5 2.5-1.4 5.5-1.1 8.3 2.2l.2.2c3 3.7 4.6 8.5 6.4 12.8l7.5 19.2 15 38.3c5 12.4 9.5 25 14.8 37.3a35.7 35.7 0 0 0 14.7 18.1 21.9 21.9 0 0 0 8.7 2.6h.2c7.9.5 13.5-3.4 16.9-9.1a28.7 28.7 0 0 0 3.7-13.6c.2-5.7-1-11.3-2.1-16.8l-4.6-23.5-4.6-23.4-1.1-5.6c-.7-4-1.1-8 .2-11.6a7.6 7.6 0 0 1 2.9-4c2-1.2 4.4-1 6.8 1a11.5 11.5 0 0 1 1.5 1.5c3.4 4 4.3 10.1 5.4 15s5.3 6 8.9 4.7a7.8 7.8 0 0 0 5.4-9.2c-2.5-11.5-7-23.7-19.3-27.9-11.7-4-22.3 3.8-26 14.8a32.4 32.4 0 0 0-1.5 11c.2 9.6 3.4 19.7 5.1 28.4 2.7 13.4 6.4 27 7.8 40.6.3 3.3 1.1 9.5-1.8 12a4 4 0 0 1-2.3.9c-3 .2-6.2-3-7.7-5-3.3-4.8-5-10.7-7.1-16l-8.3-21-15.9-40.3c-4.7-12-8.5-25.5-15.2-36.6-5.9-9.5-16.6-16-27.8-11.5s-16.5 15.9-16.7 27.3v.6c0 13 5.4 26.6 8.7 39z" fill="#9496ff"/><path d="M42 1319.6a35.6 35.6 0 0 1 3.4-5.3l-7 3.5-23.5 11.4a140.2 140.2 0 0 0 23 6 35.5 35.5 0 0 1 4.1-15.6z" fill="#fd78ad"/><path d="M93.5 1276.4c3.5 4.9 3.2 9.9 1.1 14.3 5 9.5-3 19-10.4 24.6-8.2 6.3-18 10.8-25.2 18.4a24.7 24.7 0 0 0-2.5 3.3 135.3 135.3 0 0 0 110.6-50.9 137 137 0 0 0-85.3-221.4A135.4 135.4 0 0 0 3 1075.5l7 6.3L.7 1092l20.7 18.6-1.5 1.6L0 1134.6v107.2c5.9 1.6 9 10.2 2.3 13.5 4.3 2.8 5.9 9.7 0 12.5L0 1269v38.2c22.6-11 45-22.5 68-33 8-3.7 19.4-6.5 25.5 2.2z" fill="#fd78ad"/><path d="M44.1 1352.8a26.9 26.9 0 0 1-5.5-11.2 27.4 27.4 0 0 0 5.5 23.7c2.6 3.2 8 2.7 10.6 0 3.2-3 2.6-7.5 0-10.6a10.8 10.8 0 0 1-.8-1.2c-2.9 2-7.4 2.2-9.8-.7zM59 1333.8c7.1-7.7 17-12.2 25.2-18.5 7.4-5.7 15.4-15.1 10.4-24.6-2.1 4.8-6.3 9-10.4 12-8.3 6.3-18 10.8-25.2 18.5-4.3 4.6-8.9 14-4.9 20.1a27.4 27.4 0 0 1 2.4-4.3 24.7 24.7 0 0 1 2.5-3.2zM45.3 1314.3c6-8 15-13.4 23.3-18.9 2.5-1.6 5-3.2 7.3-5a27.9 27.9 0 0 0 2.9-2.5l1.7-2.3c-1.6.7-3.4.9-5 1.6-12.7 5.4-24.9 12-37.3 18L2 1323l-2 1v12.5l2-1 12.8-6.2 23.5-11.4 7-3.5zM2.2 1255.3l-2.2 1.1v12.6l2.3-1.1c5.8-2.9 4.3-9.8 0-12.6zM21.4 1110.7.6 1092.1l9.3-10.3-7-6.3L0 1073v4l2 1.8 3.7 3.3-3.2 3.6-2.5 2.8v46.2l20-22.3z" fill="#381c00"/><path d="m5.7 1082-3.7-3.3a2.4 2.4 0 0 1-.5.4 2.6 2.6 0 0 1-1.5.3v7.3a17.3 17.3 0 0 1 2.5-1.1z" fill="#fcfcfc"/><path d="M0 1086.7v1.7l2.5-2.8a17.3 17.3 0 0 0-2.5 1.1zM1.5 1079.1a2.4 2.4 0 0 0 .5-.4l-2-1.8v2.5a2.6 2.6 0 0 0 1.5-.3z" fill="#283245"/><path d="M2.3 1255.3c6.8-3.3 3.6-12-2.3-13.5v14.7l2.2-1.2zM59 1321.2c7.1-7.6 17-12.1 25.2-18.4 4-3.1 8.2-7.3 10.4-12 2.1-4.5 2.4-9.5-1-14.3-6.2-8.7-17.5-6-25.7-2.2-22.8 10.5-45.3 22-68 33v16.6l2-1 36.4-17.7c12.4-6 24.6-12.6 37.3-18 1.5-.7 3.3-1 5-1.6l-1.7 2.3a27.9 27.9 0 0 1-3 2.5c-2.3 1.8-4.8 3.4-7.2 5-8.3 5.4-17.3 10.9-23.3 18.9A36.5 36.5 0 0 0 38 1335a27.4 27.4 0 0 0 .7 6.5 26.9 26.9 0 0 0 5.5 11.2c2.3 2.8 7 2.7 9.8.7a6.4 6.4 0 0 0 .8-.7c3.2-3 2.6-7.5 0-10.6l-.6-.8c-4-6.2.5-15.5 4.8-20.2z" fill="#2ed3cb"/><path d="m2316.6-57 7.1 5.7L2289-7.7l-47.3-11-30.3 38-11-2.7a105.3 105.3 0 0 0 4.8 16.6 102.2 102.2 0 1 0 175.2-100.6h-70.2l9 7.3z" fill="#ef9da3"/><path d="M2508.5 515.4h-.2a22.8 22.8 0 0 0-16.9 2 39.9 39.9 0 0 1 17-2z" fill="#ffe552"/><path d="M2694.4 99.6V77.2L2541.7 4H2508l3 7.5z" fill="#1e0f00"/><path d="M2566.7 224a8 8 0 0 1-10 1l-2 2a8 8 0 0 0 11.2 11.3 252.3 252.3 0 0 0 19.5-22c8-10.4 17.4-24.6 13.4-35a84.7 84.7 0 0 1-12.6 20.6 253.2 253.2 0 0 1-19.5 22.1zM2495.4 157.5c-5.7 6.6-14.6 17-17.8 22.7a72.2 72.2 0 0 0 10.9-1.2l6-7.1c7-8.1 14.3-16.5 19.2-24 2.3-3.7 8.8-13.7 5.2-22.4a49.3 49.3 0 0 1-4.4 8c-4.8 7.5-12 16-19 24zM2424.9 139.8a8 8 0 0 0 10.5 4.1 222 222 0 0 1 38.9-11.9c11-2.2 18.4-2.6 23.2-2l1.6-2.2a31 31 0 0 0 5.7-10.4c-2.6-1.9-11.1-3.5-29.7.3a220.7 220.7 0 0 0-38.8 12 8 8 0 0 1-7.1-.4h-.2a8 8 0 0 0-4.1 10.5zM2533 184.7c-42 11.2-60 15-68.3 7.8a12.7 12.7 0 0 1-2.9-3.6c-3.5 7.7-2.8 13.7 2 18 8.4 7.2 26.3 3.3 68.4-7.9 13.7-3.6 32.4-8.6 44-10.3 6-8.2 7.7-12.8 8.2-14.8-8.6-.6-34 6.2-51.3 10.8z" fill="#381c00"/><path d="m2210.2 15.9 30.3-38 47.3 11 31.7-39.8-4.7-3.7-30.4 38-47.4-11-30.2 38-47.4-11.1-30.3 38-45-10.6-1.1 4.5 49.5 11.6 30.3-38z"/><path d="M2655 196.8a27.8 27.8 0 0 0 39.4 25.3v-19.2a13.2 13.2 0 1 1 0-12.2v-19.2a27.8 27.8 0 0 0-39.5 25.3z" fill="#ffe552"/><path d="M2652 196.8a30.8 30.8 0 0 0 42.4 28.5v-3.2a27.8 27.8 0 1 1 0-50.6v-3.2a30.8 30.8 0 0 0-42.5 28.5z" fill="#381c00"/><path d="M2682.8 183.6a13.2 13.2 0 1 0 11.6 19.3v-12.2a13.2 13.2 0 0 0-11.7-7zm0 23.4a10.2 10.2 0 1 1 10.1-10.2 10.2 10.2 0 0 1-10.2 10.2z" fill="#381c00"/><path d="m2231.2-44.4-30.3 38-47.3-11-30.3 38-42.2-10-2.7 11.7L2128 34l30.3-38 47.3 11 30.3-38 47.3 11.1 31.8-39.8-9.4-7.5-27 34z" fill="#85e8f8"/><path d="m2230-47.7-30.2 38-1.4-.4-46-10.7-30.3 38L2079 7l-4.1 17.5 6.3 1.5-1.7 7.3 54.3 12.8 30.3-38 36.3 8.5 11 2.6 30.3-38 47.4 11 34.8-43.6-7.1-5.7 2.5-3.2-9-7.2h-8.2l-24.5 30.8zm-147 78.9 1-4.5 45.2 10.6 30.3-38 47.3 11.1 30.3-38 47.3 11.1 30.4-38 4.8 3.7-31.8 39.8-47.3-11.1-30.3 38-47.4-11.1-30.3 38zm232-90.9-31.7 39.8-47.4-11.1-30.3 38-47.3-11-30.3 38-49.6-11.7 2.8-11.6 42.1 9.9 30.3-38 47.4 11 30.3-38 47.3 11.1 27-33.8z" fill="#381c00"/><path d="m2654.5 335.9-43.7 21.3-38-30.4-40 19.5-.6-1.4-.7.4 5.2 10.8 39-19 38 30.3 43.6-21.3 37.1 29.7v-10.5l-2 1z"/><path d="m2656.4 318.3-43.7 21.3-38-30.4-45.7 22.3 5.3 10.8 39-19 37.9 30.4 43.7-21.3 38 30.3 1.5-.7v-13.4z" fill="#85e8f8"/><path d="M2575.2 305.7 2525 330l5.9 12.1-3.5 1.7 8 16.2 39.9-19.5 38 30.4 43.6-21.3 37.5 30v-3.9l-37-29.7-43.8 21.4-38-30.4-38.9 19-5.2-10.8.7-.4.7 1.4 40-19.5 37.9 30.4 43.7-21.3 38 30.4 2-1V362l-1.7.7-38-30.3-43.6 21.3-38-30.4-39 19-5.2-10.8 45.8-22.3 38 30.4 43.6-21.3 38 30.3v-3.8l-37.6-30-43.7 21.2z" fill="#381c00"/><path d="M2694.4 35.5 2628.8 4h-87l152.6 73.2z" fill="#2ed3cb"/><path d="m2694.4 14-20.9-10h-37.8l58.7 28.2z" fill="#f07e67"/><path d="m2694.4 10.7-14-6.7h-6.8l20.8 10zM2694.4 32.2 2635.7 4h-7l65.7 31.5zM2601.1 960l93.3-105.5v-21.8l-91.8 103.8-25 3.4 116.8-131.8v-4.5l-120.8 136.2-28.1-24.8 141.8-160.4 7.1 6.3v-4l-3.7-3.3 3.7-.4v-3l-8 .9-144.2 163-1 1.1 8.6 7.6-10.5 12-1 1 32 28.4z" fill="#1e0f00"/><path d="m2545.5 915 28.1 24.9 120.8-136.3v-42.7l-7-6.3z" fill="#ef9da3"/><path d="m2602.6 936.5 91.8-103.8V808l-116.9 131.8z" fill="#ffe552"/><path d="M2436.3 129.6a220.7 220.7 0 0 1 38.8-12c18.6-3.8 27-2.1 29.7-.3a31 31 0 0 1-5.7 10.4l-1.6 2.2c-4 5.4-9.2 11.3-14.2 17.1-6.7 7.8-13 15.2-17.3 21.7-5.5 8.3-6.9 15-4.2 20.2a12.7 12.7 0 0 0 3 3.5c8.3 7.3 26.2 3.4 68.3-7.8 17.3-4.6 42.7-11.4 51.3-10.8-.5 2-2.3 6.6-8.3 14.9l-4.7 6.2c-7.7 9.5-15.8 17.6-16 17.6a8 8 0 0 0 0 11.3 7.4 7.4 0 0 0 1.2 1 8 8 0 0 0 10.1-.9 253.2 253.2 0 0 0 19.5-22c4.7-6 10-13.4 12.6-20.6s2.9-14-2.2-19.2c-7.8-7.9-24.7-4.3-67.6 7.1-12.4 3.3-25.2 6.7-35.6 8.8l-5 1a72.2 72.2 0 0 1-10.7 1.2c3.1-5.8 12-16 17.7-22.7 7-8 14.3-16.5 19.1-24a49.3 49.3 0 0 0 4.4-8c2.3-5.5 3.4-12.4-1.4-18-7.3-8.4-22.2-10.2-45.5-5.5a235.7 235.7 0 0 0-42.1 13 8 8 0 0 0 6.4 14.7z" fill="#e05d43"/><path d="m2510.7 826.7 57.6-20.5 22.3-68.6-7-2.1 7.3-22.6-136.6-40.9 12.4 28.5-12.7-3.9zM2473.4 706a1.4 1.4 0 0 0 .7-.2 1.5 1.5 0 0 0 .7-.7l3-8 45.7 43.8-.6 5.3a1.5 1.5 0 0 0 1.3 1.7 1.6 1.6 0 0 0 1-.2 1.5 1.5 0 0 0 .6-1.2l.4-3 23.2 22.3a1.5 1.5 0 0 0 1 1.5 1.4 1.4 0 0 0 .6.1l11.3 10.8a1.5 1.5 0 0 0 .1 1.4l1-.3-50.3 17.9-17.6-40.5h.4a1.5 1.5 0 0 0 .5-.2 1.5 1.5 0 0 0-1-2.8l-1.1.2-16.1-36.8 11 .8a1.4 1.4 0 0 0 .9-.2 1.5 1.5 0 0 0-.7-2.8l-11.6-.8a1.6 1.6 0 0 0-.9.2zm-9-20.5-1-2.2 1.7 1.6a1.4 1.4 0 0 0-.7.6zm106.4 76.7-3.8-.3a1.5 1.5 0 1 0-.2 3l3 .3-3.6 11.3-13.1-12.6 2.5-8.7a1.5 1.5 0 0 0-2.9-.9l-2.1 7.3-23.8-22.9.4-3.7a1.5 1.5 0 1 0-3-.3l-.2 1.4-22-21.1v-.1l2.6-11.4a1.5 1.5 0 1 0-3-.6l-2.1 9.7-34.5-33.3 45.2 13.6a1.4 1.4 0 0 0 .3.4l8.6 7.8a1.5 1.5 0 0 0 1.8.2 1.8 1.8 0 0 0 .3-.3 1.5 1.5 0 0 0 0-2.1l-4.6-4 15.7 4.7 1.9 5.7a1.5 1.5 0 0 0 1.9 1 1.8 1.8 0 0 0 .3-.2 1.5 1.5 0 0 0 .6-1.7l-1.2-3.7 41.2 12.2a1.5 1.5 0 0 0 .8 1.6 1.5 1.5 0 0 0 1.4 0 1.6 1.6 0 0 0 .6-.6v-.1l6.2 1.8zm-103.9-75a1.4 1.4 0 0 0 .2-.4l8.4 8-3.3 8.5-6.4-14.6z" fill="#381c00"/><path d="m2586 715.5-6.2-1.8v.1a1.6 1.6 0 0 1-.6.6 1.5 1.5 0 0 1-1.5 0 1.5 1.5 0 0 1-.7-1.6l-41.2-12.4 1.2 3.8a1.5 1.5 0 0 1-.6 1.7 1.8 1.8 0 0 1-.3.2 1.5 1.5 0 0 1-2-1l-1.8-5.8-15.7-4.7 4.5 4a1.5 1.5 0 0 1 .1 2.1 1.8 1.8 0 0 1-.3.3 1.5 1.5 0 0 1-1.8-.2l-8.7-7.8a1.4 1.4 0 0 1-.2-.4l-45.2-13.4 34.6 33.2 2.2-9.7a1.5 1.5 0 1 1 2.9.7l-2.6 11.4 22 21.2.2-1.4a1.5 1.5 0 1 1 3 .3l-.4 3.7 23.8 22.9 2-7.3a1.5 1.5 0 0 1 3 .9l-2.6 8.7 13.1 12.6 3.7-11.4-3-.2a1.5 1.5 0 1 1 .2-3l3.8.3zm-100.5-26.8a1.5 1.5 0 0 1 2-.6l10.3 5.6a1.5 1.5 0 0 1 .6 2 1.5 1.5 0 0 1-.6.6 1.5 1.5 0 0 1-1.5 0l-10.2-5.6a1.5 1.5 0 0 1-.6-2zm77.6 27.3a1.5 1.5 0 0 1 2 .3l7.2 9.2a1.5 1.5 0 0 1-.3 2.1l-.1.1a1.5 1.5 0 0 1-2-.4l-7.1-9.2a1.5 1.5 0 0 1 .3-2.1zm-20.6.7 5.6-10.3a1.5 1.5 0 0 1 2-.6 1.5 1.5 0 0 1 .6 2l-5.6 10.3a1.6 1.6 0 0 1-.5.5 1.5 1.5 0 0 1-1.5 0 1.5 1.5 0 0 1-.6-2zm-19.7 6a1.2 1.2 0 0 1-.1 0 1.5 1.5 0 0 1-2-.3l-7.1-9.2a1.5 1.5 0 0 1 2.3-1.9l7.2 9.2a1.5 1.5 0 0 1-.3 2.1zm22.8 27a1.5 1.5 0 0 1-2 .5l-10.1-5.8a1.5 1.5 0 1 1 1.5-2.6l10 5.8a1.5 1.5 0 0 1 .6 2zm27.6-2.7a1.5 1.5 0 0 1-2 .3l-9.3-7a1.5 1.5 0 0 1 1.8-2.4l9.3 7a1.5 1.5 0 0 1 .2 2.1zm-20.8-18a1.5 1.5 0 0 1-.7 1.4 1.4 1.4 0 0 1-.6.3l-11.7.9a1.5 1.5 0 1 1-.2-3l11.6-1a1.5 1.5 0 0 1 1.6 1.4z" fill="#9496ff"/><path d="m2443.7 679.3 1 2.2a1.5 1.5 0 0 1 .6-.6zM2477.8 714l11.6.9a1.5 1.5 0 0 1 .7 2.8 1.4 1.4 0 0 1-.9.2l-11-.9 16.1 37 1-.3a1.5 1.5 0 0 1 1.2 2.8 1.5 1.5 0 0 1-.5.1l-.5.1 17.7 40.5 50.2-18-1 .4a1.5 1.5 0 0 1 0-1.4l-11.3-10.8a1.4 1.4 0 0 1-.6 0 1.5 1.5 0 0 1-1-1.6l-23.2-22.3-.4 3a1.5 1.5 0 0 1-.7 1.2 1.6 1.6 0 0 1-1 .2 1.5 1.5 0 0 1-1.3-1.7l.6-5.3-45.7-43.9-3 8a1.5 1.5 0 0 1-.7.7 1.4 1.4 0 0 1-.7.3l3.6 8.2a1.6 1.6 0 0 1 .8-.2zm15.8 28.6a.8.8 0 0 1-.2 0 1.5 1.5 0 0 1-2-.8l-3.9-11a1.5 1.5 0 1 1 2.9-1l3.9 11a1.5 1.5 0 0 1-.7 1.7zm25.6 31.3-6.7 9.5a1.6 1.6 0 0 1-.5.5 1.5 1.5 0 0 1-2-2.2l6.7-9.5a1.5 1.5 0 0 1 2.5 1.7zm12 7-4.2 10.8a1.5 1.5 0 0 1-.5.6l-.9.4a1.5 1.5 0 0 1-.5-.1 1.5 1.5 0 0 1-.9-2l4.2-10.8a1.5 1.5 0 1 1 2.8 1zm-22-17.2a1.5 1.5 0 0 1-.8 1.2 1.4 1.4 0 0 1-.9.2 1.5 1.5 0 0 1-1.3-1.6l.9-11.7a1.5 1.5 0 0 1 3 .3zm30.6 11.2 10.3 5.6a1.5 1.5 0 0 1 .6 2 1.4 1.4 0 0 1-.6.6 1.5 1.5 0 0 1-1.5 0l-10.2-5.6a1.5 1.5 0 1 1 1.4-2.6zm-15.6-17 11.6-.9a1.5 1.5 0 0 1 .9 2.8 1.6 1.6 0 0 1-.7.2l-11.6 1a1.5 1.5 0 1 1-.2-3zm-24.2-29.2a1.5 1.5 0 0 1 2-.6l10.2 5.8a1.5 1.5 0 0 1-1.5 2.6l-10.1-5.8a1.5 1.5 0 0 1-.6-2zM2472.2 703.3l3.3-8.5-8.4-8a1.4 1.4 0 0 1-.2.3l-1 1.5z" fill="#2ed3cb"/><path d="m2573 745-9.3-7.1a1.5 1.5 0 0 0-1.8 2.4l9.3 7a1.5 1.5 0 0 0 1.8-2.4zM2545 747.6l-10.1-5.8a1.5 1.5 0 1 0-1.5 2.6l10.1 5.8a1.5 1.5 0 1 0 1.5-2.6zM2497.8 696.3a1.5 1.5 0 0 0 .6-.6 1.5 1.5 0 0 0-.6-2l-10.2-5.5a1.5 1.5 0 0 0-1.5 2.6l10.3 5.6a1.5 1.5 0 0 0 1.5 0zM2543.1 718.7a1.5 1.5 0 0 0 1.5 0 1.6 1.6 0 0 0 .5-.6l5.6-10.2a1.5 1.5 0 0 0-.6-2 1.5 1.5 0 0 0-2 .6l-5.6 10.2a1.5 1.5 0 0 0 .6 2zM2570 727.3a1.5 1.5 0 0 0 2 .4v-.1a1.5 1.5 0 0 0 .3-2.1l-7-9.3a1.5 1.5 0 0 0-2.4 1.9zM2523.1 720.5l-7.1-9.2a1.5 1.5 0 0 0-2.4 1.8l7.1 9.3a1.5 1.5 0 0 0 2 .3 1.2 1.2 0 0 0 .2 0 1.5 1.5 0 0 0 .2-2.2zM2550.8 727.7l-11.6.9a1.5 1.5 0 1 0 .2 3l11.7-1a1.4 1.4 0 0 0 .6-.1 1.5 1.5 0 0 0 .7-1.4 1.5 1.5 0 0 0-1.6-1.4zM2524.4 760.9l11.6-.9a1.6 1.6 0 0 0 .7-.2 1.5 1.5 0 0 0-1-2.8l-11.5.9a1.5 1.5 0 1 0 .2 3zM2537.8 775.5a1.5 1.5 0 0 0 .6 2l10.2 5.6a1.5 1.5 0 0 0 1.5 0 1.4 1.4 0 0 0 .5-.6 1.5 1.5 0 0 0-.5-2l-10.3-5.6a1.5 1.5 0 0 0-2 .6zM2530.4 779a1.5 1.5 0 0 0-2 .8l-4.2 10.8a1.5 1.5 0 0 0 .9 2 1.5 1.5 0 0 0 .5 0l1-.3a1.5 1.5 0 0 0 .4-.6l4.2-10.8a1.5 1.5 0 0 0-.8-2zM2518.8 771.8a1.5 1.5 0 0 0-2 .3l-6.8 9.6a1.5 1.5 0 0 0 2 2.1 1.6 1.6 0 0 0 .5-.4l6.7-9.5a1.5 1.5 0 0 0-.4-2.1zM2508.7 750.4a1.5 1.5 0 0 0-1.6 1.4l-1 11.6a1.5 1.5 0 0 0 1.4 1.6 1.4 1.4 0 0 0 1-.2 1.5 1.5 0 0 0 .6-1.2l1-11.6a1.5 1.5 0 0 0-1.4-1.6zM2500.6 730.7l10.1 5.8a1.5 1.5 0 0 0 1.5-2.6l-10.1-5.8a1.5 1.5 0 0 0-2 .6 1.5 1.5 0 0 0 .5 2zM2490.4 729.7a1.5 1.5 0 1 0-2.9 1l4 11a1.5 1.5 0 0 0 1.9 1 .8.8 0 0 0 .2-.2 1.5 1.5 0 0 0 .7-1.8zM2527.7 588.3a72.6 72.6 0 0 1 1.7-7.8c3.6-13.5 8.8-26.8 5.7-41a29 29 0 0 0-.4-1.9c-.9 9.3-4 18.4-6.5 27.5-1.9 7.1-3.6 16-.5 23.2zM2673 500.4l-18.7 39-9.7 20.3c-2.5 5.1-5.7 10.5-6.9 16.1-.6 3-.7 8.7 3 10 1.4-3.7 3.4-7.3 5-10.7l9.8-20.4 18.7-39c5.6-11.6 12.9-23.5 16.4-36a27.6 27.6 0 0 0-.6-17.8l-.6 2.4c-3.5 12.5-10.8 24.5-16.4 36.1z" fill="#381c00"/><path d="M2671 449.3a27 27 0 0 0-8.1.9 14.6 14.6 0 0 0-3.3 1.8c-5 3.7-8.2 9.3-11.4 14.4l-10.6 17-44.6 71-21 33.6c-6.4 10-14.2 19.5-26.1 22.7l-.6.1a11.2 11.2 0 0 1-8.8.7 26.2 26.2 0 0 1-18.5-10.7 34 34 0 0 1-5.4-11.4c-.9 9.4.8 19 6.6 26.7a25.9 25.9 0 0 0 27.9 10c11.9-3.3 19.7-12.8 26-22.8 7.2-11 14-22.3 21-33.5l44.7-71 10.6-17c3.2-5.1 6.5-10.7 11.4-14.4 3.5-2.6 9-3.9 12.6-2.3a29 29 0 0 0 2.3-8c.5-4.6-1.7-7-4.7-7.8zM2508.5 515.4a39.9 39.9 0 0 0-17 2c-12.3 6.6-20.1 23.4-25.5 35-1.6 3.4-6.3 4.5-9.6 3.1l-2.2 4.8c-1.7 3.7-1 8 2.8 10.2 3.2 2 8.5 1 10.2-2.7 7.5-16.2 19.8-42.7 42.3-37a14.8 14.8 0 0 1 8.7 5.3 13.7 13.7 0 0 1 1.5 2.7c1.5-10.8-.2-20.5-11.2-23.4zM2669 580.7c-3.3 4.5-6.6 9.3-10.9 13a29.5 29.5 0 0 1-11 6.1 6.7 6.7 0 0 1-4.5 1.5 4 4 0 0 1-1.7-.6 17.2 17.2 0 0 1-13.6-6.9 22 22 0 0 1-3-5 24.1 24.1 0 0 0 4.2 20.4c8.4 10.5 21.8 7.7 30.8-.2 4.3-3.7 7.5-8.4 10.8-13l14.1-19.3 10.2-14v-17l-11.4 15.6z" fill="#381c00"/><path d="M2476.1 510c-11 9-17.3 22.2-23.1 35-1.7 3.6-1 8 2.7 10.2a6.8 6.8 0 0 0 .7.3c3.2 1.5 8 .4 9.6-3 5.3-11.7 13.1-28.5 25.4-35a22.8 22.8 0 0 1 17-2c11.1 2.8 12.8 12.5 11.3 23.3-1.6 11.6-6.9 24.6-8 32a46 46 0 0 0 .8 18.7 34 34 0 0 0 5.4 11.3 26.2 26.2 0 0 0 18.4 10.8 25.6 25.6 0 0 0 8.8-.7l.6-.1c12-3.3 19.8-12.8 26.2-22.8 7.1-11 14-22.3 21-33.5l44.6-71.1 10.6-17c3.2-5 6.5-10.6 11.4-14.3a14.6 14.6 0 0 1 3.3-1.9 13.6 13.6 0 0 1 8-.8c3.2.7 5.4 3.1 4.8 7.8a29 29 0 0 1-2.4 8l-2.7 5.7-8.9 18.5-17.8 37.2c-5.8 12-11.9 24-17.3 36.2-3.7 8.3-5.8 17.7-2.3 26a22 22 0 0 0 3.1 5 17.2 17.2 0 0 0 13.6 7 21.4 21.4 0 0 0 6.2-1 29.5 29.5 0 0 0 11-6.1c4.3-3.7 7.6-8.5 10.9-13l14-19.3 11.4-15.6v-24.1c-7.5 6.6-13 16.5-18.5 24.1-8 11-15.5 23-24.5 33.3-2.1 2.5-6.2 7.3-10 6.8a4.6 4.6 0 0 1-.8-.2c-3.6-1.2-3.5-6.9-3-9.9 1.3-5.7 4.5-11 7-16.1l9.7-20.4 18.7-38.9c5.6-11.7 12.9-23.6 16.4-36l.6-2.5c2-10.1-1-21-11-25.7-10.8-5-22.9-1.3-31.4 6.3-9.8 9-16.1 22.3-23 33.3l-22.9 36.4-23.3 37.3c-7.4 11.8-14.3 24.2-22.5 35.5-5 7-16 16.8-24.4 8.7a16.3 16.3 0 0 1-3.8-5.4c-3-7.1-1.4-16.1.5-23.2 2.5-9.1 5.6-18.2 6.5-27.5a45 45 0 0 0-.8-13.5 30.8 30.8 0 0 0-11-18 29.5 29.5 0 0 0-13.1-5.7 41.8 41.8 0 0 0-33.7 9.5z" fill="#fe89e2"/><path d="M1466.2-28.9c-4.9 7.2-5.1 16.4.3 23.4 5.7 7.5 14.8 10.1 23.7 11.3 9.5 1.3 19 2.8 28.3 4.8a317.7 317.7 0 0 1 62.2 20.4c5.5 2.4 10-1.9 10.6-6.5a8.3 8.3 0 0 1-1.6-.5 317 317 0 0 0-62.3-20.4c-9.4-2-18.8-3.5-28.3-4.8-9-1.2-18-3.8-23.7-11.3-5.3-7-5.2-16-.4-23.2h-1.8a24.3 24.3 0 0 0-7 6.8z" fill="#381c00"/><path d="M1797.6-1a10.6 10.6 0 0 1 4.8 5.2 2.5 2.5 0 0 0 3.4.9 2.4 2.4 0 0 0 .5-.4l-9.6-8.7a2.2 2.2 0 0 0 1 3zM1781.4 7.4c-1 3 3.9 4.4 4.8 1.3 1.1-3.3 5.2-3.4 6.7-.4s5.9.3 4.4-2.6a8.6 8.6 0 0 0-15.9 1.7zM1716.2 17c1.2.5 2.4.3 1.5 1.5s-2.2.4-3.4 0c-3.1-.9-4.4 4-1.4 4.8 3.6 1 8.3 1.5 10.3-2.4 1.7-3.2-.2-6.3-3.2-7.8-.8-.4-1.7-.5-2.4-.9a5 5 0 0 1-1.3-1l-3.8 4.2.3.2a15.5 15.5 0 0 0 3.4 1.5zM1751.6 2.7a9.4 9.4 0 0 0 1.6-15.2c-2.4-2.1-6 1.4-3.5 3.5s2.4 5.7-.6 7.4c-2.8 1.6-.3 6 2.5 4.3zM1762.2 2.6a7 7 0 0 1 9.7 1.5c2 2.6 5.5-1 3.5-3.5a12 12 0 0 0-15.7-2.3c-2.7 1.8-.2 6.1 2.5 4.3zM1708.9 27.7l-1.2-7-4.2 4.8.6 3.5c.5 3.2 5.3 1.8 4.8-1.3z" fill="#283245"/><path d="M1023.1 97.4a27.9 27.9 0 1 0-17.3-12.4 28 28 0 0 0 17.3 12.4zm-6.5-30.1a13.1 13.1 0 0 1 12.8-10.2 12.7 12.7 0 0 1 3 .4 13.2 13.2 0 0 1-3 26 12.8 12.8 0 0 1-3-.4 13.2 13.2 0 0 1-9.8-15.8z" fill="#f27d5c"/><path d="M1022.4 100.3a30.8 30.8 0 1 0-23-37 30.8 30.8 0 0 0 23 37zm-20-36.3a27.9 27.9 0 1 1 3.4 21 27.7 27.7 0 0 1-3.5-21z" fill="#381c00"/><path d="M1026.5 83.1a12.8 12.8 0 0 0 3 .4 13.2 13.2 0 0 0 3-26 12.7 12.7 0 0 0-3-.4 13.2 13.2 0 0 0-3 26zm-7-15.1a10.2 10.2 0 1 1 10 12.5 10.2 10.2 0 0 1-10-12.5z" fill="#381c00"/><path d="m1670.2 1517.5 142-160.2-28.3-25-141.9 160.3z" fill="#ef9da3"/><path d="m1840 1355-25 3.6-140.9 159 25-3.4z" fill="#ffe552"/><path d="m1787.3 1331.3 27.5 24.3 25.6-3.7-26.7-23.6z" fill="#2ed3cb"/><path d="m1814.7 1325.2-31.7 3.5-145.2 164.2 8.6 7.6-11.6 13 32 28.3 30.9-4.2 145.2-164.2-8.6-7.6 11.6-13zm0 30.4-27.4-24.3 26.4-3 26.7 23.6zm-30.8-23.3 28.3 25-142 160.2-28.1-24.9zm-84.7 181.9-25 3.4 141-159 24.8-3.5z" fill="#1e0f00"/><path d="m1477.9 139-60.3 1.3-4.2-45.9-44.2 44.7 50.2 55z" fill="#f07e67"/><path d="m1422 137.2-3-30.6-1.4 1.4-1.8-20.3-50.7 51.4 10.5 11.5-4 4 52.1 57.2 62.5-58.8-19.1.4 18.5-17.5zm-52.7 2 44-44.8 4.3 45.9 60.3-1.2-58.5 55z" fill="#381c00"/><path d="m1560 1261 1 2a1.4 1.4 0 0 1 .8-.4z" fill="#2ed3cb"/><path d="M1100.4 1594.9a1.5 1.5 0 0 1-.5-.6 1.5 1.5 0 0 1 0-1.5 1.5 1.5 0 0 1 2-.4l.6.3 16-40.8-5 1.2a1.5 1.5 0 0 1-1.7-.8 1.8 1.8 0 0 1-.2-.3 1.5 1.5 0 0 1 1.2-1.8l7-1.7 6.6-16.6-6.2 5.8a1.5 1.5 0 0 1-2.1-.1 1.4 1.4 0 0 1-.3-.4 1.5 1.5 0 0 1 .3-1.7l8.5-8a1.5 1.5 0 0 1 1.6-.3l17.8-45.2-37.5 33.1 9.4 3a1.5 1.5 0 1 1-1 2.9l-11-3.5-22.9 20 1.3.4a1.5 1.5 0 1 1-.6 2.9l-3.5-.7-24.8 21.8 7 2.7a1.5 1.5 0 1 1-1 2.8l-8.5-3.2-12 10.6 9.7 4 .1-1a1.5 1.5 0 0 1 3 .4l-.3 1.8 38.1 16h9.9l.2-.4zm26.8-80a1.5 1.5 0 0 1-2 .4 1.4 1.4 0 0 1-.6-.6 1.5 1.5 0 0 1 0-1.4l6.5-9.8a1.5 1.5 0 1 1 2.5 1.7zm-60.2 42.4a1.5 1.5 0 0 1 .1-1.5l6.6-9.6a1.5 1.5 0 0 1 2.5 1.7l-6.6 9.6a1.5 1.5 0 0 1-2.1.4 1.4 1.4 0 0 1-.5-.6zm10.7 19.6-7.8 8.7a1.5 1.5 0 0 1-2.1 0 1.3 1.3 0 0 1-.3-.4 1.5 1.5 0 0 1 .2-1.7l7.8-8.6a1.5 1.5 0 0 1 2.2 2zm30.4-45.3-9.7 6.3a1.5 1.5 0 0 1-2.1-.4l-.1-.2a1.5 1.5 0 0 1 .5-2l9.8-6.3a1.5 1.5 0 0 1 1.6 2.6zm-22 34a1.6 1.6 0 0 1-.1-.7v-11.7a1.5 1.5 0 1 1 3 0v11.7a1.5 1.5 0 0 1-2.9.6zm1.2 20.5v-.2a1.5 1.5 0 0 1 .5-2l9.8-6.3a1.5 1.5 0 0 1 1.6 2.6l-9.8 6.3a1.5 1.5 0 0 1-2.1-.4zm21.5-19.7-9.8-6.4a1.5 1.5 0 0 1-.4-2 1.5 1.5 0 0 1 2-.5l9.8 6.4a1.5 1.5 0 1 1-1.7 2.5z" fill="#8eeffd"/><path d="m1138.7 1483.2 3.5-3-4.7 1.6.7.6a1.4 1.4 0 0 1 .5.8zM1136.8 1484.9a1.5 1.5 0 0 1-.5-.3l-2.1-1.7-15.5 5.3a1.2 1.2 0 0 1 .5 0l8.9 4.4zM1117.9 1491a1.5 1.5 0 0 1-.7-.7 1.5 1.5 0 0 1 0-1.3 1.6 1.6 0 0 1 .3-.4l-9.5 3.2a1.5 1.5 0 0 1 .7 1.5l-1.9 11.5a1.5 1.5 0 0 1-2.8.4 1.5 1.5 0 0 1-.1-.9l1.8-11.5a1.3 1.3 0 0 1 0-.2l-38.3 13 .3 2a1.5 1.5 0 0 1-2.9.8 1.6 1.6 0 0 1-.1-.5l-.2-1.3-40 13.6 3.4 12.9a1.4 1.4 0 0 1 .5.1l10.5 5.1a1.5 1.5 0 1 1-1.3 2.7l-8.7-4.2 5.5 20.6 6-9a1.5 1.5 0 0 1 2.4 1.6l-6.4 9.8a1.5 1.5 0 0 1-1.2.7l3 11.3 11.2-9.8a1.4 1.4 0 0 1 .1-.7 1.5 1.5 0 0 1 1.7-1l24.1-21.2-3-.6a1.5 1.5 0 0 1-1.2-1.8 1.5 1.5 0 0 1 1.8-1.2l5.2 1.1 47.5-41.8zm-38 13.6 11.2-3a1.5 1.5 0 1 1 .8 2.9l-11.3 3a1.5 1.5 0 0 1-1.7-.8 1.4 1.4 0 0 1-.1-.3 1.5 1.5 0 0 1 1-1.8zm-32.3 24.8a1.5 1.5 0 0 1-2 .1l-9-7.4a1.5 1.5 0 0 1 2-2.3l8.9 7.5a1.5 1.5 0 0 1 .2 2zm13.3 18.1a1.5 1.5 0 1 1-3 0l.1-11.7a1.5 1.5 0 1 1 3 0zm8.9-26.4a1.5 1.5 0 0 1-1.8 1.2l-11.5-1.9a1.5 1.5 0 0 1-1.2-1.7 1.5 1.5 0 0 1 1.7-1.3l11.5 2a1.5 1.5 0 0 1 1.3 1.6zm22.7-4.8-6.6 9.6a1.5 1.5 0 0 1-2 .4 1.6 1.6 0 0 1-.6-.6 1.5 1.5 0 0 1 .1-1.5l6.6-9.6a1.5 1.5 0 1 1 2.5 1.7z" fill="#f6a2a8"/><path d="M1117 1521a1.5 1.5 0 1 0 .9-3l-9.4-3-2.6 2.4zM1133.2 1503a1.5 1.5 0 0 0-2.1.5l-6.4 9.7a1.5 1.5 0 0 0-.1 1.5 1.4 1.4 0 0 0 .5.6 1.5 1.5 0 0 0 2-.4l6.5-9.8a1.5 1.5 0 0 0-.4-2zM1064.8 1508.3a1.5 1.5 0 0 0 2.8-.8l-.2-1.9-2.9 1 .2 1.3a1.6 1.6 0 0 0 .1.4zM1038.5 1519.8a1.5 1.5 0 1 0-1.9 2.3l9 7.4a1.5 1.5 0 1 0 1.9-2.3zM1068.5 1519.3l-11.5-1.9a1.5 1.5 0 0 0-1.7 1.3 1.5 1.5 0 0 0 1.2 1.7l11.5 1.9a1.5 1.5 0 0 0 .5-3zM1092.2 1514.2a1.5 1.5 0 0 0-2.1.4l-6.7 9.6a1.5 1.5 0 0 0 0 1.5 1.6 1.6 0 0 0 .4.6 1.5 1.5 0 0 0 2.1-.4l6.6-9.6a1.5 1.5 0 0 0-.3-2zM1079 1506.7a1.5 1.5 0 0 0 1.6.8l11.3-3a1.5 1.5 0 1 0-.8-3l-11.2 3a1.5 1.5 0 0 0-1.1 1.9 1.4 1.4 0 0 0 .1.3zM1119.2 1488.3a1.2 1.2 0 0 0-.5-.1l-1.2.4a1.6 1.6 0 0 0-.3.4 1.5 1.5 0 0 0 0 1.3 1.5 1.5 0 0 0 .7.7l7.7 3.8 2.4-2.2zM1136.8 1484.9l2-1.7a1.4 1.4 0 0 0-.6-.9l-.7-.6-3.3 1.2 2.1 1.7a1.5 1.5 0 0 0 .5.3zM1103.9 1504.3a1.5 1.5 0 0 0 1.2 1.8 1.5 1.5 0 0 0 1.7-1.3l1.9-11.5a1.5 1.5 0 0 0-.7-1.5l-2.2.8a1.3 1.3 0 0 0 0 .2z" fill="#fff"/><path d="M1288.5-19.5c13 18.8 29 32.9 39.3 34.4l-.1.6V15a9.4 9.4 0 0 0 2.4 0l2-.4a5.3 5.3 0 0 0 1-.6c3.7-2.5 4.3-9.5 1.7-19.2-2.5-9.2-7.5-19.8-14.3-30.4h-41.8a144 144 0 0 0 9.8 16.2z" fill="#fd78ad"/><path d="m1191 47.7 131.9-31c-10.8-4.1-25-17.3-36.9-34.5a144.6 144.6 0 0 1-10.6-17.9h-28.1z" fill="#808df7"/><path d="m1188 51.5 148.5 4a9.8 9.8 0 0 0 1.7.2 8.7 8.7 0 0 0 3-.5c5.5-2 8.5-9.5 8.5-21 0-11.1-2.8-24.8-7.8-38.7-4.5-12.4-10.1-23.2-16-31.2h-5.3a112.2 112.2 0 0 1 14.2 30.4c2.6 9.7 2 16.7-1.6 19.2a5.3 5.3 0 0 1-1 .6l-2 .5a9.4 9.4 0 0 1-2.4-.1v.6-.6c-10.2-1.5-26.3-15.7-39.3-34.4a144 144 0 0 1-9.7-16.2h-3.3a144.6 144.6 0 0 0 10.5 17.9c11.9 17.2 26.1 30.3 36.9 34.4L1191 47.7l56.3-83.4h-3.6l-59.5 88.1z" fill="#381c00"/><path d="M1475.4-12.5C1481-5 1490-2.5 1499-1.2c9.5 1.3 19 2.8 28.3 4.8a317 317 0 0 1 62.2 20.4 8.3 8.3 0 0 0 1.7.5c7.9 1.7 13-10.4 4.7-14.1a339.5 339.5 0 0 0-55.5-19.1q-14.4-3.7-29.1-6c-7-1-19.5-.4-24.1-6.9a5.2 5.2 0 0 1-1.1-3.5c.5-5 10-7.7 13.8-8.2 8-1.1 16.3-1.7 24.5-2.4H1475c-4.8 7.2-5 16.2.4 23.2z" fill="#28b9b2"/><path d="M1926.2-76a135.4 135.4 0 0 0-78.9 10.8l7 6.3-9.3 10.3 20.8 18.6-1.5 1.6L1769.1 78a140 140 0 0 0 8 30.6 138.6 138.6 0 0 0 17.7 32.5 107.4 107.4 0 0 1 44.3-39.4c8.6-4.2 16.2 8.7 7.5 13 4.4 2.8 6 9.6 0 12.5a95.8 95.8 0 0 0-27.8 20 99.2 99.2 0 0 0-9.1 10.9 134.8 134.8 0 0 0 20.1 16c4.7-2.3 9.2-5 13.4-7 23-11.2 45.9-23 69.1-33.6 8.1-3.7 19.5-6.5 25.6 2.2 3.5 4.9 3.2 9.8 1.1 14.3 5 9.5-3 19-10.4 24.6-8.3 6.3-18 10.8-25.2 18.4a24.7 24.7 0 0 0-2.5 3.2 135.3 135.3 0 0 0 110.5-50.8c66.3-82 19-205-85.2-221.3z" fill="#fd78ad"/><path d="M1886.4 178.9a35.4 35.4 0 0 1 3.3-5.4 1512 1512 0 0 1-7 3.5l-23.5 11.4a139 139 0 0 0 23.2 6 35.4 35.4 0 0 1 4-15.5z" fill="#fd78ad"/><path d="M1888.5 212a26.8 26.8 0 0 1-5.5-11.1 27.4 27.4 0 0 0 5.5 23.7c2.6 3.1 8 2.6 10.6 0 3.1-3 2.6-7.5 0-10.6a7.7 7.7 0 0 1-.8-1.3c-2.9 2-7.5 2.2-9.8-.6zM1889.7 173.5c6-8 15-13.4 23.3-18.8 2.5-1.6 5-3.2 7.2-5a26.8 26.8 0 0 0 3-2.5c0-.1 1-1.6 1.7-2.3-1.6.6-3.4.8-5 1.5-12.6 5.5-24.9 12.1-37.2 18.1l-36.4 17.7c-10.9 5.3-22.5 12.3-35 11.9-11-.4-21.5-6.6-24.8-17.6l-.5-2a30.9 30.9 0 0 0 .5 14.6c3.3 11 13.7 17.1 24.7 17.5 12.6.5 24.2-6.6 35.1-11.9l12.9-6.2 23.5-11.5 7-3.5z" fill="#381c00"/><path d="M1801.2 162.5c-1 4-1 8 .5 11a54.8 54.8 0 0 1 8-15.5 99.2 99.2 0 0 1 9.1-10.9 95.8 95.8 0 0 1 27.9-20c5.9-2.8 4.3-9.7 0-12.5a95.7 95.7 0 0 0-27.8 20 67.5 67.5 0 0 0-17.7 28zM1928.6 174.6c7.4-5.7 15.4-15.2 10.4-24.6-2.2 4.7-6.4 9-10.4 12-8.3 6.3-18.1 10.8-25.2 18.4-4.4 4.7-8.9 14-4.9 20.2a26.6 26.6 0 0 1 2.4-4.4 24.7 24.7 0 0 1 2.5-3.2c7.1-7.6 17-12.1 25.2-18.4zM1865.8-30 1845-48.6l9.3-10.4-7-6.3-48-43L1573.4 144l19.8 17.7-8.8 9.7-1.4 1.7 56 50.2 130-145.3 95.3-106.3zm-286.5 175-1.6-1.3 2.5-2.8 20.6-23 7.9-8.8 3.2-3.6 18-20.1 4.6-5.1 34.9-39 4.4-4.9 8.4-9.4 14.2-15.9 7-7.7 4.3-4.8 4.4-5 3.8-4.2L1751-50l4.1-4.5 9.7-10.8 4.2-4.7 4.8-5.4 3.8-4.2 1.5-1.7 6.5-7.2 11.2-12.6 2.8-3 3 2.8 1 .8 6 5.3 20 18.1 4 3.4 3.1 3 9.7 8.5 3.7 3.4-3.2 3.5-9.9 11-13.7 15.4-4.2 4.7-3.7 4.1-3.4 3.8-6.8 7.5-3.8 4.3-32.6 36.4-3.1 3.5-4.7 5.2-3.4 3.8-6.5 7.3-6.7 7.5-14.5 16-4.2 4.8-9.1 10.2-8.7 9.7-13.6 15.2-3 3.3-4.7 5.3-5 5.6-8.3 9.2-2.8 3.1-11 12.3-8.6 9.6-22.7 25.3-30.2-27-4.6-4.1z" fill="#381c00"/><path d="M1600 153.3c2.8 1.6.3 6-2.5 4.3 1.4.8 1.3 2.6.5 4.3l30.2 27 22.7-25.3a7.1 7.1 0 0 1-3.3-1c-.5-.3-3.8-3.3-4.2-2.6-1.4 2.9-5.7.3-4.3-2.5 1.6-3.3 5.5-3.3 8.3-1.5 1.7 1.2 3.3 3.8 5.5 2 2-1.7 3-7.9-.7-8-2 0-3.5-2.7-1.8-4.2l1.6-1.3a2.7 2.7 0 0 1 4.3 1.8c2.3 1.7 3.3 4.7 3.2 7.7l11-12.3-6.3 4.4c-2.6 1.9-5.1-2.5-2.5-4.3l8-5.6c1.9-1.3 3.7.6 3.6 2.4l8.3-9.2-1.7.3a2.6 2.6 0 0 1-3-1.8 2.5 2.5 0 0 1 1.7-3l6.6-1.1a3.2 3.2 0 0 1 1.4 0l4.8-5.3a2.7 2.7 0 0 1-.1-1.5 2.5 2.5 0 0 1 3-1.8l13.6-15.2a2.4 2.4 0 0 1-.7-2.3 9.3 9.3 0 0 1 9.4-7.4l9.2-10.2a2.8 2.8 0 0 1-.7-2.6 2.6 2.6 0 0 1 3-1.7 3 3 0 0 0 1.9-.4l14.4-16.1v-.1c.3-3.4 2.3-7 6-7.4h.7l6.6-7.3-.7-.9c-1.8-2.4 2-4.8 4-2.9l4.7-5.2-.3-.1-3.3-2a11.8 11.8 0 0 1-10.2 2.9 2.6 2.6 0 0 1-1.9-2.6l-3.7.7c-3.1.6-4.5-4.2-1.3-4.8l8.3-1.6c1.7-.3 3.8 1.1 3 3v.2a7.8 7.8 0 0 0 3.6-2.7 2.5 2.5 0 0 1 3-.4l5 3a2.5 2.5 0 0 1 1 .9l32.5-36.3a24.2 24.2 0 0 1-1.3-4c-.2-1-1.5-6.2-3-3.6-1.8 2.7-6 .2-4.4-2.5a6.2 6.2 0 0 1 8.3-2.3 7.5 7.5 0 0 1 3 4c.5 1.2.8 2.4 1 3.5l.2.6 6.8-7.6-.3-.4c-1.4-1.6-1-3.7-3.2-1.7-2.3 2.3-5.8-1.3-3.5-3.5s5.9-4 8.6-1.1a23.6 23.6 0 0 1 1.8 2.9l3.7-4.1c-1.6-1.3-.7-4.2 1.6-4.4l2.5-.2 13.8-15.4a14.9 14.9 0 0 1 1.1-3.4 15.4 15.4 0 0 1 8.8-7.7l3.2-3.5-3.7-3.3a2.7 2.7 0 0 1-.5.4 2.5 2.5 0 0 1-3.5-.9 10.7 10.7 0 0 0-4.7-5 2.2 2.2 0 0 1-1-3.1l-3.2-3a7.2 7.2 0 0 1-2.7 1.7 7 7 0 0 1-5.6-.5 6.8 6.8 0 0 1-2-1.6 8.5 8.5 0 0 1-.8-1.2c-.3-1.5-1.2-1.5-2.6 0-.5 3.2-5.3 1.8-4.8-1.3a6 6 0 0 1 6.7-5.3 6.1 6.1 0 0 1 3.8 2c.4.5.7 1.7 1.3 2 1.3 1 2.2 1.2 2.8.9L1809.5-95a8.4 8.4 0 0 1-3.2 5 11.8 11.8 0 0 1-2.2 1.4 2.5 2.5 0 0 1 .6 0 7.3 7.3 0 0 1 4.7 3.4c2.2 3.8.1 8.1-3.6 9.8-2.9 1.3-5.4-3-2.5-4.3.5-2.8 0-4.1-1.6-3.8a1.9 1.9 0 0 1-1 0c-.5-.3-1.3-.2-1.8-.5a4.2 4.2 0 0 1-1.7-3c-.3-4.2 4-4.5 6-7s-1.4-1.1-3-1.8a5 5 0 0 1-2.8-2.2 4.8 4.8 0 0 1-.6-2.9l-11.2 12.5a2.6 2.6 0 0 1 1 .8c1.9 2.6.1 6.2-2.9 6.9-1.6.4-3-.2-4.6-.5l-1.5 1.7a4.8 4.8 0 0 0 1.3 1c.7.4 1.6.5 2.4 1 3 1.4 5 4.5 3.2 7.7-2 4-6.7 3.5-10.3 2.5-3-1-1.7-5.7 1.4-4.8 1.2.3 2.6 1 3.4 0s-.3-1.1-1.5-1.5a15 15 0 0 1-3.4-1.5l-.3-.2-4.8 5.4 1.2 6.9c.5 3.1-4.3 4.5-4.8 1.3l-.6-3.5-9.7 10.8a3.8 3.8 0 0 1 .7 4.1 2.7 2.7 0 0 1-4.8.5L1716-10.6l1.5.2c3.1.4 3 5.4-.2 5a34.7 34.7 0 0 1-5.1-1l-4.5 5a2.2 2.2 0 0 1-.8 3.3 32.7 32.7 0 0 1-3.5 1.5l-6.9 7.7a5.6 5.6 0 0 1 .6.5c.7.6 1.9 4.2 2.4 4.1s2.4-3.2 3.3-3.6a4.4 4.4 0 0 1 6.2 2.4c1.2 3-3.4 5-4.6 2 1.2 3-4.7 5.4-6.9 4.7a5 5 0 0 1-2.6-2.5c-.2-.4-.6-2.4-.8-2.5-1.3-.6-2.3 1.8-2.7 2.5-1.9 3.6-2.8 6.6-7.2 8a10 10 0 0 1-1.9.3l-8.5 9.4 1.5.4c3 .9 1.7 5.7-1.4 4.8a11.6 11.6 0 0 0-4.5-.3l-34.8 39a14.8 14.8 0 0 1 .4 5.1c-.2 3.2-5.1 3.2-5 0l-18 20c2.8 2.7.7 7-3.2 8.4-.5.2-2.3.3-2.6.8-.8 1.2.6 2 1.6 2.3 1.6.4 3.3.3 5 .7a9 9 0 0 1 3.2 1.6 2.4 2.4 0 0 1 3.6-1.3c3.2 1.8 3.6 6.6-.3 8a4.4 4.4 0 0 1-4.6-.8c-.8-.7-1.2-1.7-2.2-2.3s-2.6-.6-3.9-.8c-2.9-.4-6.4-1.5-7.7-4.2l-20.7 23a2.8 2.8 0 0 1 0 3.4l-.5.5a2.5 2.5 0 0 1-.4.4l14.1 12.6a8.6 8.6 0 0 1 .3-2.7 4.5 4.5 0 0 1 6.4-1.7zm20 2.3v-.2a1.5 1.5 0 0 1-.2-.2l-.1-.1-.3-.2h-.1c.2 0 0 0 0 0h-.1a2.5 2.5 0 0 1-1-4.9 5.8 5.8 0 0 1 6.7 7 2.5 2.5 0 1 1-4.9-1.3c-.1.3-.1 0 0-.1zm.3 21.6c-3 1.1-4.3-3.7-1.3-4.8 2.7-1 1.6-4.6.3-6.3a10.1 10.1 0 0 0-6.8-3.3c-3.2-.5-1.8-5.3 1.3-4.9 4.9.7 9.7 3.8 11.4 8.6a8.3 8.3 0 0 1-4.9 10.7zm1.1-31.7a12.8 12.8 0 0 1-2-12.2c1-3 6-1.7 5 1.4-2 6 1.6 9 6.8 11 2.9 1 5.2 2.7 6 5.8s-4 4.4-4.8 1.3c-.7-2.6-4.5-2.8-6.6-3.8a12.6 12.6 0 0 1-4.4-3.5zm17.6 27.2-9.9 2.8c-3 1-4.4-3.9-1.3-4.8l10-2.9c3-.8 4.3 4 1.3 4.9zm8.1-38.4a18 18 0 0 1-9.6 4.4 2.6 2.6 0 0 1-3.2 0l-.6-.5c-1.8-1.5-.2-4.2 1.8-4.3a13 13 0 0 0 5.8-1.6c.4-.2 4.4-3.1 3.9-3.5-2.6-1.9-.1-6.2 2.5-4.3 3.7 2.7 2.4 7-.6 9.8zm-7.4-20.4a4.8 4.8 0 0 1 9.4 1.3 2.5 2.5 0 0 1-2.5 2.5 3 3 0 0 0-5.1-.7 2.5 2.5 0 0 1-1.8-3zm22.5 20.8c-2.2 2.4-5.7-1.2-3.5-3.5 1.5-1.7 4-4 3.5-6.5-.6-3-4.1-1.9-3.9.9.3 3.2-4.7 3.2-5 0a7 7 0 0 1 11.2-6.3c5.7 4.4 1.4 11.5-2.3 15.4zm-1.4-42c1.6-2 4.1-2.3 6.4-2 1 0 3.5 1 4.4.4 1.6-1-.4-3.2-1.1-4.1-2-2.6 2.4-5.1 4.3-2.6 2.3 3.1 4 8 0 10.6a7.8 7.8 0 0 1-5.4 1c-.7 0-4.1-1-4.4-.4-.7 1.5 1.8 2 2.6 2.3 3 1 1.7 5.8-1.4 4.8-3.9-1.3-9.2-5.5-5.4-10zm25.7 19.5c.4-1.4 0-2.3-1.2-2.6-.8-1-1.1-1-1 0-.3.3-.4 1.7-.5 2.1a6 6 0 0 1-1.6 2.5 4.7 4.7 0 0 1-3.8 1c-1.9-.2-2.4-.6-2.9-2.2a2.5 2.5 0 0 1-1.7 3 10.2 10.2 0 0 1-7.8-1.4c-2-1.3-1.3-4.7 1.2-4.6h1a2.3 2.3 0 0 1 2 1.2 3.5 3.5 0 0 0 .7.1 4 4 0 0 1 3.3-2.4c1.5-.2 4.3 1.5 5 .4 1-1.2.5-3.3 1.6-4.6a5.3 5.3 0 0 1 7-1c3 1.7 3.5 5.2 3.7 8.4s-4.7 3.3-5 .1zm11-13a8 8 0 0 1-7.4-2.3 7.3 7.3 0 0 1-1.8-3.7c-.1-.5 0-1.7-.2-2-1.5-2.3-3.2 0-4.1 1-2.3 2.2-5.8-1.3-3.6-3.6 3-2.9 8.2-5.9 11.4-1.6 1.4 1.9.5 4.7 1.9 6.4a2.5 2.5 0 1 0 3.9-3.2c-2-2.5 1.5-6 3.5-3.6 3.3 4.2 2.2 11.3-3.6 12.6zm-7-38.3a12.3 12.3 0 0 1 6.9 18c-1.6 2.8-5.9.3-4.3-2.6a7.2 7.2 0 0 0-3.9-10.5c-3-1.1-1.7-6 1.4-5zm15 .7-5.7 3.2c-2.8 1.6-5.3-2.7-2.5-4.3l5.7-3.2c2.8-1.7 5.4 2.6 2.6 4.2zm15 20.9a6 6 0 0 1-11-3.5 2.6 2.6 0 0 1 2.5-2.5 2.5 2.5 0 0 1 2.5 2.5c0 1 1 2.2 1.8 1 1.7-2.8 6-.2 4.3 2.4zm13.5-18c-1-1.8-3-1.7-3.7-.2-.4.7 0 2.2-.2 3a7 7 0 0 1-1.9 3.7 6.5 6.5 0 0 1-7.7 1 6.7 6.7 0 0 1-2.7-3c-1.3-2.6 0-4.5-3.8-2.3-2.4 1.5-3.9 2.4-6.7 1s-.3-5.7 2.5-4.3c.5.3 4-3.2 4.9-3.5a5 5 0 0 1 4.5.6 7 7 0 0 1 2.4 3.6c.1.5.2 2.2.5 2.5 3.7 2.5 3-2.7 3.2-3.7.1-3 1.5-6 4.7-6.5 4-.6 6.5 2.5 8.3 5.5 1.7 2.8-2.6 5.3-4.3 2.5zm9-23.5c1.3-1 1.7 3 1.6 3.7a4.3 4.3 0 0 1-1.6 2.3c-3 2.4-6.7-.3-9.9 1.7s-4.8 3.4-8.7 2.3c-3.6-1-6-3.7-8.4-6.5-2-2.5 1.5-6 3.6-3.5a17.5 17.5 0 0 0 3.8 4c2.7 1.7 4.8.8 7-.7 1.7-1.2 2.7-2.1 4.9-2.2.8 0 3 1 3.5.4.1-.1-.6-1.9-.6-2.2 0-1.8.8-2.7 2.2-3.6 2.7-1.8 5.2 2.5 2.5 4.3zm5.2-31.9c-4.6 1.2-.6 1.5.9 2.9a5 5 0 0 1 1.6 3.8c-.3 4.6-5.5 4.5-6.8 7.8-1.2 3-6 1.7-4.8-1.3 1-2.4 2.3-3.1 4.2-4.7 3.5-3 .5-2-1.4-4.4-3-3.5-.2-7.7 3.7-8.7a12 12 0 0 1 3.3-.4 6.7 6.7 0 0 1-3-4.8c-.7-4.5 3.3-7.7 7.5-7.5 3.2.1 3.2 5 0 4.9q-2.5 3.5.2 4.1l.6.3c.3.4.9.7 1.2 1.2a3.9 3.9 0 0 1 .3 3.4c-1.2 3.4-4.7 2.8-7.5 3.5zm22.6 15.6c-.2 3.2-5.2 3.2-5 0 .3-3.8-3.3-6.2-6.6-4.1-2.7 1.7-5.2-2.6-2.5-4.3a9.2 9.2 0 0 1 14.1 8.4zM1764-1.7a2.5 2.5 0 0 1 3.4 1l2.4 5.3a2.6 2.6 0 0 1-1 3.4 2.5 2.5 0 0 1-3.4-1l-2.3-5.2a2.5 2.5 0 0 1 .9-3.5zm21.7 11c-.9-.6-2.8-2.1-4-1.6-1.4.6-.1 2.2.3 3.2a7 7 0 0 1-10.7 8.3c-2.6-1.8-.1-6.1 2.5-4.3 1.3.9 3 1 3.6-.7.3-1.3-.6-2.4-1-3.5a5.6 5.6 0 0 1 .3-5.4c2.8-4.2 8-2.5 11.6-.4 2.7 1.7.2 6.1-2.6 4.4zm-1.9-57c-1.5-1.4-.4-4.5 1.8-4.2 3.2.3 7.6-.7 6.4-4.9-1-3 3.9-4.4 4.8-1.3a8.6 8.6 0 0 1-2.2 8.6 9.3 9.3 0 0 1-3.7 2.1 2.6 2.6 0 0 1-4.2 2.4zm16-20.7a12 12 0 0 1 15.7 2.3c2 2.5-1.5 6-3.6 3.5a7 7 0 0 0-9.7-1.5c-2.6 1.8-5.1-2.5-2.5-4.3zm-14 33.9c-3.1-.6-1.8-5.4 1.4-4.8a9.3 9.3 0 0 1 6.9 11.8c-1 3-5.9 1.7-4.8-1.3a4.3 4.3 0 0 0-3.5-5.7zm-12.8 4.7a4 4 0 0 1 5 .6c1.6 1.5 1 3.2 1.6 5.1a1.6 1.6 0 1 0 2.6-1.4c-2.2-2.3 1.3-5.9 3.5-3.5 3.3 3.4 2.3 9.6-2.5 11a7 7 0 0 1-6.6-1.6 6.5 6.5 0 0 1-1.7-2.7 9.3 9.3 0 0 1-.4-2.1v-.7c-2.2.4-3.9-3.1-1.5-4.7zm23 24.5c2.5 2-1 5.5-3.5 3.6a9.4 9.4 0 0 0-11.4 0c-2.7 1.9-5.2-2.4-2.6-4.3a14.4 14.4 0 0 1 17.5.7zm4.8-23.1c-2-2.5 1.5-6 3.5-3.5 1 1.1 2.3-.1 2-1.4-.8-2.5-4-2.3-5.9-1.6-3 1.1-4.3-3.7-1.3-4.8 5.3-1.9 12.3.7 12.2 7.1 0 5.2-7 8.4-10.5 4.2zm29-10-.3.4a2.1 2.1 0 0 1-2.5.7c-3.3.4-6.4-1.6-9.3-3.5a85.2 85.2 0 0 1-12.1-9.7c-2.3-2.3 1.2-5.8 3.5-3.6a80.3 80.3 0 0 0 8.7 7.3c2.4 1.8 6.5 5.4 9.6 4.2 2.5-1 4 2.5 2.4 4.2zm7.5-22.6c1.6 2.8-2.8 5.4-4.3 2.5s-5.6-2.9-6.7.5c-1 3-5.8 1.7-4.8-1.4a8.6 8.6 0 0 1 15.8-1.6zm-48.2-7.3c3-1.7 3.2-5.2.6-7.4s1.2-5.7 3.6-3.6a9.4 9.4 0 0 1-1.7 15.3c-2.8 1.6-5.3-2.7-2.5-4.3zm-16.4 13a2.5 2.5 0 0 1 1.1-1.4l.7-.3a3 3 0 0 1 2-.3 2.5 2.5 0 0 1 1.5 1.2 2.5 2.5 0 0 1 .2 2 2.5 2.5 0 0 1-1.1 1.4l-.7.3a2.9 2.9 0 0 1-2 .3 2.5 2.5 0 0 1-1.5-1.2 2.6 2.6 0 0 1-.2-2zm-17.3 16.6c1.5-1.9 4-2.3 6.4-2 1 0 3.4 1 4.4.4 1.6-1-.5-3.2-1.2-4.1-1.9-2.6 2.4-5 4.3-2.5 2.3 3 4 7.9 0 10.6a7.8 7.8 0 0 1-5.4 1c-.6-.1-4-1-4.4-.4-.7 1.4 1.8 2 2.6 2.2 3 1 1.7 5.9-1.3 4.8-4-1.3-9.3-5.5-5.4-10zm-8.5 16.3c5.4-2 13.3-.7 18.6 1.4 4.5 1.8 8 5 9.2 9.9.8 3.1-4 4.4-4.8 1.3-2-7.8-15-10.3-21.6-7.8-3 1.2-4.3-3.6-1.4-4.8zm-14.4-1.5a18.8 18.8 0 0 1 4.8-8c2.3-2.2 5.8 1.3 3.6 3.6a13.6 13.6 0 0 0-3.6 5.8c-1 3-5.8 1.7-4.8-1.4zm-4.6 6.8c.4 2.7 4.2 3.3 6.1 4.6a12.5 12.5 0 0 1 3.9 4 12.8 12.8 0 0 1 .4 12.3c-1.3 2.9-6 1-4.6-2 2.7-5.7-.6-9.1-5.5-11.7-2.7-1.4-4.8-3.3-5.2-6.5s4.5-3.9 5-.7zM1719 2.2a2.6 2.6 0 0 1 1.5-1.1 2.8 2.8 0 0 1 2 .2l1.7.8c1.2.5 1.4 2.3.9 3.4a2.6 2.6 0 0 1-1.5 1.1 2.7 2.7 0 0 1-2-.2l-1.7-.8c-1.3-.5-1.5-2.3-.9-3.4zm.9 6.8c4.8.6 9.6 3.8 11.3 8.6a8.3 8.3 0 0 1-4.9 10.6c-3 1.2-4.3-3.7-1.3-4.8 2.7-1 1.6-4.6.3-6.3a10.2 10.2 0 0 0-6.8-3.3c-3.2-.4-1.8-5.3 1.3-4.8zm-7 12c2.8-1.6 5.3 2.7 2.5 4.3-4 2.2-4.7 6.7-2 10.3 2 2.5-2.4 5-4.3 2.5a11.5 11.5 0 0 1 3.8-17.1zm-31.6 23c.6-3.2 5.4-1.8 4.8 1.3-.6 2.8 2 5.5 4.7 4 2.2-1 1.5-2.2 2.3-3.6.7-1.2 1.2-2.1 2.6-2.5a3.9 3.9 0 0 1 3.7 1c.6.5.6 1.5 1.2 2-.1 1.3.4 1.4 1.3.4a2.5 2.5 0 0 0 1.8-1.6c1.7-2.7 6-.2 4.3 2.5-1.9 3-4.9 6.3-8.9 4.8a6.2 6.2 0 0 1-2.4-1.8 8.8 8.8 0 0 1-.8 1c-6 7.5-16.3 1-14.6-7.5zm-11.4 9.5c4 1.1 10 1.7 12.7 5.2a5.8 5.8 0 0 1 1.3 4.5 7 7 0 0 1-1.2 2.9c-.4.6-2 2-1.7 2.7 1.5 3-2.9 5.5-4.3 2.6a5.5 5.5 0 0 1-.5-4.3c.5-1.5 1.8-2.4 2.4-3.8 1-2.4-2.3-2.8-4-3.3l-6-1.7c-3-.8-1.8-5.7 1.3-4.8zm-18.5 23.3a5.7 5.7 0 0 1 3.4-2.7c.8-.3 2.2-.3 3.5-.5a7.3 7.3 0 0 1 4.1-11c3-1 4.4 3.8 1.3 4.8-2.3.8-2.1 3.3-.2 4.4a2.5 2.5 0 0 1 1 3.4c-1.7 2.8-5.8 3.8-8.7 3.5 3.1.4 3.2 5.4 0 5-3.4-.4-6.2-3.4-4.4-7zm4.8 25.3c2.9 1.4.3 5.7-2.5 4.3a15 15 0 0 0-14 .2c-2.9 1.5-5.4-2.8-2.6-4.3a20.3 20.3 0 0 1 19-.2zm-20.5-9.2c3-.6 4.5-3.7 2.3-6.2s1.4-6 3.5-3.5c4.5 5 2.4 13.2-4.5 14.5-3.1.7-4.5-4.1-1.3-4.8zm-.8 27.7a13.6 13.6 0 0 0-3.6 5.8c-1 3-5.8 1.8-4.8-1.3a19 19 0 0 1 4.8-8c2.3-2.3 5.9 1.3 3.6 3.5zM1620 103c-2.6-1.9-.1-6.2 2.5-4.3a25.6 25.6 0 0 1 9.1 11.6c1.2 3-3.6 4.3-4.8 1.3a19.7 19.7 0 0 0-6.8-8.6zm-15 32.2a9.6 9.6 0 0 1 6.2 12.4c-1 3-5.9 1.7-4.8-1.4.9-2.5 0-5.2-2.7-6.2-3.1-1-1.8-5.9 1.2-4.8zm-12.5 14c.5 3.2-4.3 4.5-4.8 1.3-.8-5-1.6-10.5.7-15.3a15.7 15.7 0 0 1 10.3-8.2c3.1-.8 4.4 4 1.3 4.8-8.5 2.2-8.7 10.2-7.6 17.4z" fill="#fcfcfc"/><path d="M1619.1 154.8h.1a.3.3 0 0 1 .2-.1z" fill="#fcfcfc"/><g fill="#283245"><path d="M1598 162c.7-1.8.8-3.6-.5-4.4 2.7 1.6 5.3-2.7 2.5-4.3a4.5 4.5 0 0 0-6.3 1.7 8.6 8.6 0 0 0-.3 2.8zM1600 131.8c3.1-.8 1.8-5.6-1.3-4.8a15.7 15.7 0 0 0-10.3 8.2c-2.4 4.8-1.6 10.2-.8 15.3.5 3.2 5.4 1.8 4.8-1.3-1.1-7.2-.9-15.2 7.6-17.4zM1603.6 140c2.7 1 3.6 3.6 2.7 6.2-1 3 3.8 4.4 4.8 1.4a9.6 9.6 0 0 0-6.2-12.4c-3-1.1-4.3 3.7-1.3 4.8zM1632.4 152.8c.8 3.2 5.6 1.8 4.8-1.3s-3.1-4.7-6-5.8c-5.2-2-9-5-6.9-11 1-3-3.8-4.4-4.8-1.3a12.8 12.8 0 0 0 1.9 12.1 12.6 12.6 0 0 0 4.3 3.5c2.1 1 6 1.2 6.7 3.8zM1613.8 158c-3.1-.5-4.5 4.3-1.3 4.8a10.1 10.1 0 0 1 6.7 3.3c1.4 1.7 2.5 5.2-.2 6.3-3 1-1.7 6 1.3 4.8a8.3 8.3 0 0 0 4.9-10.7c-1.7-4.8-6.5-8-11.4-8.6zM1626.8 111.6c1.2 3 6 1.7 4.8-1.3a25.6 25.6 0 0 0-9-11.6c-2.7-2-5.2 2.4-2.6 4.3a19.7 19.7 0 0 1 6.8 8.6zM1608.6 122c1.2.2 2.8.1 3.9.8s1.3 1.6 2.2 2.3a4.4 4.4 0 0 0 4.6.9c3.8-1.5 3.4-6.3.2-8.1a2.4 2.4 0 0 0-3.5 1.2 9 9 0 0 0-3.3-1.5c-1.6-.4-3.4-.3-5-.7-1-.2-2.4-1-1.5-2.3.2-.5 2-.6 2.5-.8 4-1.3 6-5.7 3.3-8.4l-3.2 3.6-7.9 8.8c1.3 2.7 4.8 3.9 7.7 4.2zM1626.5 125c-1 3.2 3.9 4.5 4.8 1.4a13.6 13.6 0 0 1 3.6-5.8c2.3-2.2-1.3-5.8-3.6-3.5a19 19 0 0 0-4.8 8zM1580 144.3a2.8 2.8 0 0 0 .2-3.4l-2.5 2.8 1.5 1.4a2.5 2.5 0 0 0 .5-.4z"/><path d="m1637.7 167.8-10 3c-3 .8-1.7 5.6 1.4 4.7l10-2.8c3-1 1.7-5.7-1.4-4.9zM1656.3 146.3a2.7 2.7 0 0 0-4.3-1.8l-1.6 1.3c-1.7 1.4-.3 4.2 1.8 4.3 3.7 0 2.6 6.2.7 7.9-2.2 1.7-3.8-.8-5.5-2-2.8-1.8-6.7-1.8-8.3 1.4-1.4 3 2.9 5.4 4.3 2.6.4-.8 3.7 2.3 4.2 2.6a7.1 7.1 0 0 0 3.3 1l8.6-9.6c.1-3-.9-6-3.2-7.7zM1621.7 158.6a2.5 2.5 0 0 0 3-1.7 5.8 5.8 0 0 0-6.6-7 2.5 2.5 0 0 0 1 4.8h.3a.3.3 0 0 0-.2 0l.2.1.2.2.2.1c.2.1 0 0 0 0a1.5 1.5 0 0 0 0 .2v.2c0 .2 0 .4 0 0a2.6 2.6 0 0 0 2 3.1zM1619.2 154.8s.2 0 0 0zM1619.1 154.8h.1zM1647.7 124.5c-2.6-2-5.1 2.4-2.5 4.3.5.4-3.5 3.3-4 3.5a13 13 0 0 1-5.7 1.6c-2 .1-3.6 2.8-1.8 4.3l.6.5a2.6 2.6 0 0 0 3.2 0 18 18 0 0 0 9.6-4.4c3-2.8 4.3-7.1.6-9.8zM1641.5 117a3 3 0 0 1 5 .7 2.5 2.5 0 0 0 2.6-2.5 4.8 4.8 0 0 0-9.4-1.3 2.5 2.5 0 0 0 1.8 3.1zM1691.3 18.7c.4-.7 1.4-3.1 2.7-2.5.2.1.6 2.1.8 2.5a5 5 0 0 0 2.7 2.5c2.1.7 8-1.8 6.8-4.8 1.2 3 5.8 1 4.6-2a4.4 4.4 0 0 0-6.2-2.3c-.8.4-2.8 3.6-3.3 3.6s-1.7-3.5-2.4-4.1a5.6 5.6 0 0 0-.6-.5L1682.2 27a10 10 0 0 0 2-.3c4.3-1.4 5.2-4.4 7.1-8zM1728.2-9.9c4.9 2.6 8.2 6 5.5 11.8-1.4 3 3.3 4.8 4.6 2a12.8 12.8 0 0 0-.4-12.4 12.5 12.5 0 0 0-3.9-4c-2-1.3-5.7-1.9-6-4.6-.5-3.2-5.4-2.5-5 .7s2.5 5.1 5.2 6.5zM1718.5 13.8a10.2 10.2 0 0 1 6.7 3.3c1.4 1.7 2.5 5.2-.2 6.3-3 1.1-1.7 6 1.3 4.8a8.3 8.3 0 0 0 4.9-10.7c-1.7-4.7-6.5-7.9-11.4-8.5-3.1-.5-4.5 4.3-1.3 4.8zM1709 38c2 2.6 6.4 0 4.4-2.4-2.7-3.6-2-8.1 2-10.3 2.8-1.6.3-5.9-2.5-4.4a11.5 11.5 0 0 0-3.8 17.2zM1695.9 51.5a8.8 8.8 0 0 0 .8-1 6.2 6.2 0 0 0 2.4 1.8c4 1.5 7-1.8 9-4.8 1.7-2.8-2.7-5.3-4.4-2.5a2.5 2.5 0 0 1-1.7 1.6c-1 1-1.4.9-1.4-.4-.5-.5-.6-1.5-1.2-2a3.9 3.9 0 0 0-3.7-1c-1.4.3-1.8 1.3-2.5 2.4-.9 1.5-.2 2.6-2.3 3.7-2.8 1.4-5.3-1.3-4.8-4 .6-3.2-4.2-4.5-4.8-1.4-1.7 8.6 8.6 15.1 14.6 7.7zM1740.4 36.7c-1.3 1-2.2 1.8-2.1 3.6 0 .4.7 2.2.6 2.3-.5.6-2.7-.4-3.6-.4-2.2 0-3.1 1-4.8 2.1-2.3 1.6-4.4 2.4-7 .7a17.5 17.5 0 0 1-3.9-4c-2-2.5-5.5 1-3.5 3.5 2.3 2.8 4.8 5.6 8.4 6.6 3.8 1 5.7-.5 8.7-2.4s7 .7 9.9-1.7a4.3 4.3 0 0 0 1.5-2.3c.1-.6-.3-4.6-1.6-3.7 2.6-1.8 0-6.1-2.6-4.3zM1755.4 2.4c-.3-.6-.9-.8-1.2-1.3l-.6-.2q-2.7-.7-.2-4.2c3.2.1 3.2-4.8 0-5-4.2 0-8.2 3-7.5 7.6a6.7 6.7 0 0 0 3 4.8 12 12 0 0 0-3.3.5c-3.9 1-6.7 5.1-3.7 8.7 2 2.3 5 1.2 1.4 4.3-1.9 1.6-3.2 2.3-4.2 4.7-1.2 3 3.6 4.3 4.8 1.3 1.3-3.3 6.5-3.2 6.8-7.8a5 5 0 0 0-1.6-3.8c-1.4-1.4-5.5-1.7-.9-2.8 2.8-.7 6.3-.1 7.5-3.5a3.9 3.9 0 0 0-.3-3.3zM1666.3 102.7c3 1 4.4-3.8 1.3-4.8-.8-.3-3.3-.8-2.6-2.3.3-.6 3.8.4 4.4.4a7.8 7.8 0 0 0 5.4-1c4-2.6 2.3-7.5 0-10.6-1.8-2.5-6.2 0-4.3 2.6.7.9 2.7 3.1 1.2 4-1 .7-3.5-.2-4.4-.4-2.3-.2-4.9.2-6.4 2-3.9 4.6 1.4 8.8 5.4 10.1zM1673.8 41.6c3.1.9 4.5-4 1.4-4.8l-1.4-.4-4.5 5a11.6 11.6 0 0 1 4.5.2zM1668.6 58.3l6 1.7c1.7.5 5 1 4 3.3-.6 1.4-1.9 2.3-2.3 3.8a5.5 5.5 0 0 0 .5 4.3c1.4 2.9 5.7.3 4.3-2.6-.4-.7 1.3-2.1 1.7-2.7a7 7 0 0 0 1.2-2.9 5.8 5.8 0 0 0-1.3-4.5c-2.8-3.5-8.7-4-12.7-5.2-3.2-.9-4.5 4-1.4 4.8zM1730.1 56.3c-3.2.5-4.6 3.6-4.8 6.5 0 1 .5 6.2-3.1 3.7-.4-.2-.4-2-.6-2.4a7 7 0 0 0-2.3-3.7 5 5 0 0 0-4.6-.6c-.8.3-4.3 3.8-4.8 3.5-2.9-1.4-5.4 3-2.5 4.4s4.2.5 6.7-1c3.7-2.3 2.4-.4 3.7 2.3a6.7 6.7 0 0 0 2.8 3 6.5 6.5 0 0 0 7.7-1 7 7 0 0 0 1.9-3.8c.1-.8-.2-2.3.1-3 .7-1.5 2.7-1.6 3.8.2 1.6 2.8 6 .3 4.3-2.5-1.8-3-4.4-6.2-8.3-5.6zM1744.4 59.2l6.6-7.4h-.6c-3.8.3-5.7 4-6 7.4zM1757 43.6l.6.9 3.4-3.8c-2-2-5.8.4-4 2.9zM1768.9 8a2.6 2.6 0 0 0 .9-3.4l-2.4-5.4a2.5 2.5 0 0 0-3.4-.8 2.5 2.5 0 0 0-.9 3.4l2.3 5.3a2.5 2.5 0 0 0 3.5.9zM1685.2 123.7l-6.7 1.1a2.5 2.5 0 0 0-1.7 3.1 2.6 2.6 0 0 0 3 1.8l1.7-.3 5-5.6a3.2 3.2 0 0 0-1.3 0zM1716.3 80c-.8 1.1-1.9 0-1.8-1a2.5 2.5 0 0 0-2.5-2.6 2.6 2.6 0 0 0-2.5 2.5 6 6 0 0 0 11 3.5c1.9-2.7-2.5-5.2-4.2-2.5zM1728.1 75.8a2.6 2.6 0 0 0-3 1.7 2.8 2.8 0 0 0 .6 2.6l4.2-4.7a3 3 0 0 1-1.8.4zM1655.8 83.7c3.2.3 3.2-4.7 0-5 2.9.3 7-.7 8.7-3.5a2.5 2.5 0 0 0-1-3.4c-2-1.1-2.1-3.6.3-4.4 3-1 1.7-5.9-1.4-4.9a7.3 7.3 0 0 0-4.1 11c-1.2.3-2.7.3-3.5.5a5.7 5.7 0 0 0-3.4 2.7c-1.8 3.6 1 6.6 4.4 7zM1687.7 103.8a5.3 5.3 0 0 0-6.9 1c-1.1 1.4-.7 3.4-1.6 4.7-.7 1-3.5-.7-5-.5a4 4 0 0 0-3.3 2.4 3.5 3.5 0 0 1-.7 0 2.3 2.3 0 0 0-2-1.3h-1c-2.5 0-3.2 3.4-1.2 4.7a10.2 10.2 0 0 0 7.8 1.4 2.5 2.5 0 0 0 1.7-3.1c.5 1.6 1 2 3 2.3a4.7 4.7 0 0 0 3.7-1 6 6 0 0 0 1.6-2.6c.2-.4.2-1.8.5-2-.1-1 .3-1 1-.1 1.2.4 1.6 1.2 1.2 2.6.3 3.2 5.3 3.3 5 0s-.7-6.8-3.8-8.5zM1707.1 97.6a2.4 2.4 0 0 0 .8 2.4l8.7-9.7a9.3 9.3 0 0 0-9.5 7.3zM1664.5 119.3a7 7 0 0 0-11.2 6.3c.3 3.2 5.3 3.2 5 0-.2-2.8 3.3-3.9 3.9-.9.5 2.5-2 4.8-3.5 6.5-2.2 2.3 1.3 5.9 3.5 3.5 3.7-4 8-11 2.3-15.4zM1669.7 136.2l-8 5.6c-2.7 1.8-.2 6.1 2.5 4.3l6.3-4.4 2.7-3c.2-2-1.6-3.8-3.6-2.5zM1767.9 31l-5-2.9a2.5 2.5 0 0 0-3 .4 7.8 7.8 0 0 1-3.6 2.7V31c.8-1.9-1.4-3.4-3-3l-8.4 1.6c-3.1.6-1.8 5.4 1.4 4.8l3.7-.7a2.6 2.6 0 0 0 1.9 2.5 11.8 11.8 0 0 0 10.2-2.8l3.3 2 .3.1 3.1-3.5a2.5 2.5 0 0 0-.9-1zM1756.7 16.3c-2.7 1.7-.2 6 2.5 4.3 3.3-2 7 .3 6.6 4.1-.2 3.2 4.8 3.2 5 0a9.2 9.2 0 0 0-14.1-8.4zM1788.3 5c-3.5-2.2-8.8-4-11.6.3a5.6 5.6 0 0 0-.3 5.4c.4 1.1 1.4 2.2 1 3.5-.5 1.7-2.3 1.6-3.6.7-2.6-1.8-5.1 2.5-2.5 4.3A7 7 0 0 0 1782 11c-.4-1-1.7-2.6-.3-3.2 1.2-.5 3.1 1 4 1.6 2.8 1.7 5.3-2.7 2.6-4.4zM1697.6 90.2a2.5 2.5 0 1 1-4 3.1c-1.3-1.6-.4-4.4-1.8-6.3-3.2-4.3-8.5-1.3-11.4 1.6-2.2 2.3 1.3 5.8 3.6 3.5.9-.9 2.6-3.2 4-1 .3.4.2 1.6.3 2a7.3 7.3 0 0 0 1.8 3.8 8 8 0 0 0 7.4 2.3c5.8-1.3 7-8.4 3.6-12.5-2-2.6-5.5 1-3.5 3.5zM1689.2 65.7a7.2 7.2 0 0 1 4 10.6c-1.7 2.8 2.7 5.3 4.2 2.5a12.3 12.3 0 0 0-6.8-18c-3-1-4.4 3.8-1.4 5z"/><path d="m1703 57.2-5.7 3.2c-2.8 1.6-.3 6 2.5 4.4l5.7-3.3c2.9-1.6.3-5.9-2.5-4.3zM1691.3 117a2.7 2.7 0 0 0 0 1.5l3-3.3a2.5 2.5 0 0 0-3 1.8zM1707.7-1.4l-4.4 4.8a32.7 32.7 0 0 0 3.5-1.5 2.2 2.2 0 0 0 .9-3.3zM1719.9 5.6l1.7.8a2.7 2.7 0 0 0 2 .2 2.6 2.6 0 0 0 1.5-1.1c.5-1.1.3-2.9-1-3.4l-1.7-.8a2.8 2.8 0 0 0-2-.2 2.6 2.6 0 0 0-1.4 1.1c-.6 1-.4 2.9.9 3.4zM1635 85.5a14.8 14.8 0 0 0-.5-5.2l-4.6 5c-.2 3.3 4.8 3.3 5 .2zM1637 97.7c6.9-1.3 9-9.5 4.5-14.5-2.1-2.4-5.7 1.1-3.5 3.5s.6 5.6-2.3 6.2c-3.2.6-1.8 5.5 1.3 4.8zM1639.7 106.6a15 15 0 0 1 14-.2c2.8 1.4 5.4-2.9 2.5-4.3a20.3 20.3 0 0 0-19 .2c-2.9 1.5-.4 5.8 2.5 4.3z"/></g><path d="M1903.4 180.5c7.1-7.7 17-12.2 25.2-18.5 4-3 8.2-7.3 10.4-12 2.1-4.4 2.4-9.4-1-14.3-6.2-8.7-17.6-6-25.7-2.2-23.2 10.7-46 22.4-69.1 33.6-4.2 2-8.7 4.7-13.4 7-6 3-12.4 5.3-18.6 5-4.9-.3-8-2.4-9.5-5.6a16 16 0 0 1-.5-11 68.1 68.1 0 0 1 17.6-27.9 95.7 95.7 0 0 1 27.8-20c8.7-4.2 1.1-17.1-7.6-13a107.4 107.4 0 0 0-44.2 39.4 91.4 91.4 0 0 0-3.1 5.4 42.5 42.5 0 0 0-5.2 30c3.3 11 13.7 17.2 24.7 17.6 12.6.4 24.2-6.6 35.1-11.9l36.4-17.7c12.3-6 24.6-12.6 37.2-18 1.6-.7 3.4-1 5-1.6l-1.8 2.3a26.8 26.8 0 0 1-2.9 2.5 100 100 0 0 1-7.2 5c-8.3 5.5-17.3 10.9-23.3 18.9a36.7 36.7 0 0 0-7.4 20.8 27.8 27.8 0 0 0 .7 6.5 26.8 26.8 0 0 0 5.5 11.2c2.3 2.8 7 2.7 9.8.7a6.3 6.3 0 0 0 .8-.7c3.1-3 2.6-7.5 0-10.6a8.9 8.9 0 0 1-.6-.8c-4-6.1.5-15.5 4.9-20.1z" fill="#2ed3cb"/><path d="M1410 1534.3a14 14 0 0 1-6-1.7 32.8 32.8 0 0 1-20.6-27.3 29 29 0 0 0-3 12.8c.3 22.3 22 36 42.5 28.8 3.9-1.3 5.1-6.6 3.6-10a7 7 0 0 0-2.1-2.6 36 36 0 0 1-14.5 0zM1389.1 1464.8c-7.7-2.7-16.6.5-24.5 1.3a43 43 0 0 1-27.3-4.7 25.6 25.6 0 0 1-12-17.5 29.6 29.6 0 0 0-3 9.6 22.7 22.7 0 0 0 11.2 22 40.1 40.1 0 0 0 25.4 4.3c8.3-.9 17.5-4 25.8-1.2a12.8 12.8 0 0 1 5 3l3.4-5.9c3.2-5.7 1.9-8.9-4-11zM1344.9 1440.9l.1.4 2.6-2.7 45.3-50.3c1.8-2 1.7-5 .6-7.3l-38.6 42.8c-3.4 3.8-11.4 11.2-10 17zM1403.4 1499.7a33.3 33.3 0 0 0 3.2-7.9l-1.3 2.6a18.4 18.4 0 0 0-1.9 5.3z" fill="#381c00"/><path d="M1434 1519.7c-2.5-5.4-8.2-6.5-13.3-4.8a13.8 13.8 0 0 1-14.8-4.6 13.4 13.4 0 0 1-2.4-10.7 18.4 18.4 0 0 1 1.8-5.3l1.4-2.5c3.7-6.5 8-12.5 8.4-20.3.3-8.7-4-16.5-11-21.4a36.7 36.7 0 0 0-22-6.2c-8.4.2-16.7 3-25 2.7-3.9 0-10.5-1-12-5.3l-.2-.4c-1.4-5.9 6.6-13.3 10-17.1l38.6-42.8 6.8-7.5c3.6-4 1.5-11-2.5-13.9-5-3.4-10.3-1.6-14 2.5l-45.3 50.2c-6.3 7.1-12.4 15.1-13.5 24.8a23.7 23.7 0 0 0 .2 6.8 25.6 25.6 0 0 0 12.1 17.5 43 43 0 0 0 27.4 4.7c7.8-.8 16.8-4 24.4-1.3 6 2 7.2 5.2 4 11-1 2-2.2 3.9-3.3 5.8a38.8 38.8 0 0 0-6.6 20.1 35 35 0 0 0 .2 3.6 32.8 32.8 0 0 0 20.7 27.3 34 34 0 0 0 5.8 1.7 36 36 0 0 0 14.5 0 38.3 38.3 0 0 0 4.8-1.3c5.2-1.8 7-8.9 4.8-13.3z" fill="#ffe552"/><path d="m1019.8 1517.7 2.5 9.4-15 5.2 15.7 59 11 4.7h57.4l-38.1-16-2.8-1.2-9.7-4 12-10.6 2.5-2.3 24.8-21.8 2.8-2.5 22.9-20.2 2.6-2.3 37.6-33.1-17.8 45.2-1.8 4.7-6.5 16.6-1.3 3.4-16 40.8-1.1 2.9-.2.4h4.2l48.6-124zm105.8-23-47.4 41.9-2.9 2.5-24 21.2-1.9 1.6-11.2 9.9-3-11.4-.8-3-5.5-20.7-1-3.7-3.4-12.8 40-13.6 3-1 38.3-13.1 2.2-.8 9.5-3.2 1.2-.4 15.5-5.3 3.3-1.1 4.7-1.6-3.5 3-1.9 1.7-8.7 7.7z" fill="#381c00"/><path d="M681.2 1594.8a41.8 41.8 0 0 1 33.6-9.6 29.5 29.5 0 0 1 13 5.8c2-45.4-19-90.2-56.2-117.3L503 1596h176.7l1.4-1.2z" fill="#ffe552"/><path d="m76 1519.5.3.2.2-1.4 11.3-67.7a7.7 7.7 0 0 0-3.2-7.7c-3.3 20-6.8 40-10 60-.6 4.4-2.4 13.1 1.4 16.6zM125.5 1515.9a27.9 27.9 0 0 0-9.9 5.7h19.7c-.8-5.7-4-7.3-9.8-5.7zM225 1485.7l69 21.3 39-137.2-7.5 3.4 6.5-22.8-129.3 58.6 6.3 17-5.4 2.4zm94.2-124.2a1.5 1.5 0 0 0-.6-.7l2.2-1zm-2.3 1.7a1.3 1.3 0 0 0 .4.2l-8 8.5-8.5-3.1 14.6-6.6zm-5 43.3a1.4 1.4 0 0 0-.4.3l-7.7 8.8a1.5 1.5 0 0 0 .2 2.1 1.5 1.5 0 0 0 2-.1l4-4.6-4.4 15.8-5.7 2a1.5 1.5 0 0 0-1 1.9 1.4 1.4 0 0 0 .2.3 1.5 1.5 0 0 0 1.8.6l3.7-1.3-11.7 41.4a1.5 1.5 0 0 0-1.6.8 1.5 1.5 0 0 0 0 1.5 1.5 1.5 0 0 0 .6.5h.2l-1.8 6.2-46.8-14.4.2-3.9a1.5 1.5 0 1 0-3-.2l-.2 3.2-11.4-3.6 12.4-13.3 8.8 2.4a1.5 1.5 0 0 0 .8-2.9l-7.3-2 22.5-24.1 3.7.4a1.5 1.5 0 0 0 .3-3l-1.4-.2 20.8-22.3h.1l11.4 2.4a1.5 1.5 0 1 0 .6-3l-9.7-2 32.7-35zm-64.1-13.6v.4a1.5 1.5 0 1 0 3-.6l-.2-1.1 36.6-16.6-.6 11a1.5 1.5 0 0 0 3 .2l.7-11.6a1.4 1.4 0 0 0-.2-1l8.1-3.6a1.5 1.5 0 0 0 1 1.4l8 3-43.2 46.2-5.3-.5a1.5 1.5 0 0 0-1.6 1.3 1.5 1.5 0 0 0 .2 1 1.5 1.5 0 0 0 1.1.6l3 .4-22 23.5a1.5 1.5 0 0 0-1.4 1.1 1.6 1.6 0 0 0 0 .6l-10.7 11.4a1.5 1.5 0 0 0-1.4 0l.4 1-18.7-50z" fill="#381c00"/><path d="m673.2 1468.8-11.7-16.2L491 1576.4 405.7 1459l-11 8 93.6 129h9.7z"/><path d="m677.4 1469.4-13.5-18.6 13.5-9.8-100.6-138.4L390.4 1438l13.5 18.6-13.5 9.8 66 90.9 28.2 38.7h3.7l-93.7-129 11.1-8 85.3 117.4 170.5-123.8 11.7 16.2L498 1596h5.1l168.4-122.3zM452 1517.5l-23.2-32-1.2-1.6-32.9-45.4 12.2-8.8v-.2l2.8-2v.2l35.6-25.9v-.1l11.7-8.6 19.8-14.1 6.8 9.5 1.8 2.5 32.3 44.8 8.2 11.4 8.9 12.4 1.7 2.4 23.4 32.5 1.9 2.6 11.4 16-81.4 59.2-36.5-50.3zm-22-104.7v.1a1.5 1.5 0 0 1-1 .7zm49.2-35.5 97-70.5 97 133.6-97.6 70.9z" fill="#381c00"/><path d="m741.8 1441 38.9-19 38 30.3 43.7-21.3 38 30.4L944 1440l33.9 27 7.5-9.4-6-4.6-3.5 4.5-34.7-27.8-43.7 21.3-38-30.4-43.7 21.4-38-30.4-39.9 19.5-.6-1.4-.8.4z"/><path d="m862 1434.5 38 30.4 43.7-21.3 34.7 27.7 11.2-14-8.2-6.5 5.8-7.2-43.6-35-43.8 21.4-38-30.4-43.7 21.3-38-30.3-50 24.4 5.8 12.1-3.4 1.7 7.9 16.2 39.9-19.5 38 30.4zm-82.2-40.5 38 30.4 43.8-21.3 38 30.4 43.7-21.3L983 1444l-7.5 9.3-33.8-27-43.7 21.3-38-30.4-43.7 21.3-38-30.3-39 19-5.2-10.8zm-41.8 37.2 39.9-19.5 38 30.4 43.7-21.4 38 30.4 43.7-21.3 34.7 27.8 3.6-4.5 5.8 4.6-7.5 9.4-33.9-27-43.7 21.3-38-30.4-43.7 21.3-38-30.4-39 19-5.2-10.7.8-.4z" fill="#381c00"/><path d="m739.3 1427.2 39-19 38 30.3 43.6-21.3 38 30.4 43.7-21.3 33.8 27 7.5-9.3-39.7-31.8-43.7 21.3-38-30.4-43.7 21.3-38-30.3-45.7 22.3z" fill="#85e8f8"/><path d="m673.2 1440.4-97-133.6-97 70.5 96.4 134zM455.4 1521.8a1.5 1.5 0 0 1-.2.2l36.5 50.2 81.4-59.1-11.4-16-5.1 7a1.5 1.5 0 0 1-1.3.7 1.6 1.6 0 0 1-.8-.3 1.5 1.5 0 0 1-.4-2l5.7-8-23.4-32.5-3.5 2.2a1.6 1.6 0 0 1-.8.2 1.5 1.5 0 0 1-.8-2.8l3.4-2-9-12.4a1 1 0 0 1-.2 0 1.5 1.5 0 0 1-1.2-.7l-6.5-9.7a1.5 1.5 0 0 1-.2-1l-32.3-44.8-3 2.7a1.5 1.5 0 0 1-1 .4 1.5 1.5 0 0 1-1-2.6l3.3-3-6.9-9.5-19.6 14.3a1.5 1.5 0 0 1-.3 2l-9.2 7.1a1.5 1.5 0 0 1-1 .3 1.5 1.5 0 0 1-1.1-.5 1.5 1.5 0 0 1-.2-.4l-35.6 26 1 8.8a1.5 1.5 0 0 1-1.4 1.6h-.1a1.5 1.5 0 0 1-1.5-1.3l-.8-7.2-12.2 8.9 32.9 45.4a1.4 1.4 0 0 1 .4.2 1.5 1.5 0 0 1 .7 1.4l23.3 32 3 2.1a1.5 1.5 0 0 1 .4 2.1zm5.1-47.8a1.5 1.5 0 0 1 2-.7l10.4 5.2a1.5 1.5 0 0 1-.6 2.9 1.4 1.4 0 0 1-.7-.2l-10.4-5.2a1.5 1.5 0 0 1-.7-2zm43.4 3.6a1.5 1.5 0 1 1 2.8-1l4.3 10.8a1.5 1.5 0 0 1-.8 1.9 1.4 1.4 0 0 1-.6.1 1.5 1.5 0 0 1-1.4-1zm-8.4 23.6a1.5 1.5 0 0 1-.4-2.1 1.5 1.5 0 0 1 2.1-.4l9.5 6.8a1.5 1.5 0 0 1-.9 2.7 1.4 1.4 0 0 1-.8-.3zm8.3 22.6-2.6 11.4a1.5 1.5 0 0 1-1.4 1.1 1.2 1.2 0 0 1-.4 0 1.5 1.5 0 0 1-1-1.8l2.5-11.3a1.5 1.5 0 1 1 3 .7zm-31.3-15.8a1.5 1.5 0 0 1-2-.5l-5.9-10.1a1.5 1.5 0 1 1 2.6-1.5l5.9 10a1.5 1.5 0 0 1-.6 2.1zm18.4-21-8.5 8a1.5 1.5 0 0 1-1 .4 1.5 1.5 0 0 1-1-2.6l8.5-8a1.5 1.5 0 0 1 2 2.3zm-5.7-9.7a1.6 1.6 0 0 1-.8.2 1.5 1.5 0 0 1-1.3-.8l-5.7-10.2a1.5 1.5 0 0 1 .6-2 1.5 1.5 0 0 1 2 .6l5.7 10.2a1.5 1.5 0 0 1-.5 2zm-5.6-35h-.2a1.5 1.5 0 0 1-1.5-1.2l-1.3-11.6a1.5 1.5 0 1 1 3-.4l1.3 11.6a1.5 1.5 0 0 1-1.3 1.7zm-2.8 10.7a1.5 1.5 0 0 1 .2 2.2l-7.1 9.2a1.5 1.5 0 0 1-1.2.5 1.4 1.4 0 0 1-1-.3 1.5 1.5 0 0 1-.2-2l7.2-9.3a1.5 1.5 0 0 1 2-.2zm-2.8-36.5-8.1 8.5a1.5 1.5 0 0 1-1 .5 1.5 1.5 0 0 1-1-.5 1.5 1.5 0 0 1 0-2l8-8.5a1.5 1.5 0 0 1 2 0 1.5 1.5 0 0 1 .1 2zm-9.3 30a1.5 1.5 0 0 1-.6 2 1.5 1.5 0 0 1-2-.6l-5.6-10.1a1.5 1.5 0 0 1 .5-2 1.5 1.5 0 0 1 2 .6zm9.3 71.2-8 8.5a1.5 1.5 0 0 1-1.1.4 1.5 1.5 0 0 1-1-.4 1.5 1.5 0 0 1 0-2.1l8-8.4a1.5 1.5 0 1 1 2.2 2zm5.6 26h-.1a1.5 1.5 0 0 1-1.5-1.4l-1.4-11.6a1.5 1.5 0 0 1 3-.3l1.4 11.6a1.5 1.5 0 0 1-1.4 1.7zm8-20.6-3.4-11.1a1.5 1.5 0 1 1 2.8-.9l3.4 11.2a1.5 1.5 0 0 1-1 1.9 1.7 1.7 0 0 1-.4 0 1.5 1.5 0 0 1-1.5-1zm14.1 41.3a1.5 1.5 0 0 1-2 .7l-10.4-5.3a1.5 1.5 0 0 1 1.4-2.7l10.4 5.3a1.5 1.5 0 0 1 .5 2zm9.5-19-10 5.8a1.5 1.5 0 0 1-.8.2 1.5 1.5 0 0 1-.8-2.8l10-5.9a1.5 1.5 0 1 1 1.6 2.6zm3.5-23a1.5 1.5 0 0 1-1.1-.5 1.5 1.5 0 0 1 .1-2.1l8.8-7.6a1.5 1.5 0 1 1 2 2.2l-8.8 7.7a1.5 1.5 0 0 1-1 .4zm10 25.7a1.3 1.3 0 0 1-.4-.3l-6.4-9.7a1.5 1.5 0 0 1 2.5-1.7l6.4 9.7a1.6 1.6 0 0 1 .2.3zm3.5-46a1.5 1.5 0 0 1-.9.3 1.5 1.5 0 0 1-1.2-.7l-6.9-9.4a1.5 1.5 0 0 1 2.4-1.7l7 9.4a1.5 1.5 0 0 1-.5 2.1zm13.4 11.9a1.5 1.5 0 0 1-1.5-1.5l-.2-11.6a1.5 1.5 0 1 1 3 0l.2 11.6a1.5 1.5 0 0 1-1.5 1.5zm17 1.3a1.5 1.5 0 0 1 1.2 2.8l-10.6 4.7a1.4 1.4 0 0 1-.6.1 1.5 1.5 0 0 1-.6-2.9zm-21.6-29.8a1.5 1.5 0 0 1 2-.9l11 4a1.5 1.5 0 0 1-.6 2.9 1.5 1.5 0 0 1-.5-.1l-11-4a1.5 1.5 0 0 1-.9-1.9zm.8 32.4a1.5 1.5 0 0 1 .6 2l-6 10a1.5 1.5 0 0 1-1.3.7 1.5 1.5 0 0 1-1.2-2.2l5.9-10a1.5 1.5 0 0 1 2-.5zm-4.8-44.7a1.5 1.5 0 1 1 2.3 2l-7.4 9a1.5 1.5 0 1 1-2.3-2zm-15.5-15.7a1.5 1.5 0 0 1 1.7 1.3l1.3 11.5a1.5 1.5 0 0 1-1.3 1.7h-.2a1.5 1.5 0 0 1-1.5-1.3l-1.3-11.6a1.5 1.5 0 0 1 1.3-1.6zm-5.8-15.5a1.5 1.5 0 0 1-.6 2l-10 6a1.5 1.5 0 0 1-2.1-.5 1.5 1.5 0 0 1 .5-2l10.1-6a1.5 1.5 0 0 1 2 .5zm-13.4-8.8 2.6-11.3a1.5 1.5 0 1 1 3 .6l-2.6 11.4a1.5 1.5 0 0 1-1.5 1.2 1.9 1.9 0 0 1-.3 0 1.5 1.5 0 0 1-1.2-1.9zm2.7 28a1.5 1.5 0 0 1-1.4 2.6l-10.4-5.2a1.5 1.5 0 0 1 1.4-2.7zm-11.6-38.3a1.4 1.4 0 0 1-.4 0 1.5 1.5 0 0 1-1.4-1l-3.4-11.2a1.5 1.5 0 0 1 2.9-.8l3.3 11.1a1.5 1.5 0 0 1-1 1.9zm-45.1 45.8 6.8-9.5a1.5 1.5 0 0 1 2.4 1.8l-6.8 9.4a1.5 1.5 0 1 1-2.4-1.7zm-1.4-26.2 2.3-11.4a1.5 1.5 0 1 1 3 .6l-2.4 11.4a1.5 1.5 0 0 1-1.5 1.2h-.3a1.5 1.5 0 0 1-1.1-1.8zm22.3-48.4a1.5 1.5 0 0 1 2 .5l5.9 10a1.5 1.5 0 0 1-1.3 2.3 1.5 1.5 0 0 1-1.3-.7l-5.9-10a1.5 1.5 0 0 1 .5-2.1zm-21.7 18a1.5 1.5 0 0 1 2-.4l9.5 6.8a1.5 1.5 0 1 1-1.7 2.4l-9.5-6.7a1.5 1.5 0 0 1-.4-2.1zm-22 15.8 10-6a1.5 1.5 0 1 1 1.5 2.5l-10 6a1.5 1.5 0 0 1-.8.3 1.5 1.5 0 0 1-.7-2.8zm-5.6 22.7a1.5 1.5 0 0 1-.2-2.1l7.4-9a1.5 1.5 0 0 1 2.3 1.9l-7.4 9a1.5 1.5 0 0 1-2.1.2zm2.3 17.8a1.4 1.4 0 0 1-.9.2 1.5 1.5 0 0 1-1.2-.6l-6.9-9.4a1.5 1.5 0 0 1 2.4-1.7l7 9.4a1.5 1.5 0 0 1-.4 2zm9.8-14.7a1.5 1.5 0 1 1 1-2.8l11 4a1.5 1.5 0 0 1-.5 2.8 1.4 1.4 0 0 1-.5 0zm3.7 26.6a1.5 1.5 0 0 1-1.5-1.5l-.2-11.6a1.5 1.5 0 0 1 1.5-1.5 1.5 1.5 0 0 1 1.5 1.4l.2 11.7a1.5 1.5 0 0 1-1.4 1.5zm7 9a1.5 1.5 0 0 1-.6-3l10.7-4.7a1.5 1.5 0 1 1 1.2 2.8l-10.7 4.7a1.6 1.6 0 0 1-.6.1zm8 14.7a1.5 1.5 0 0 1-1-2.6l9.2-7.2a1.5 1.5 0 1 1 1.8 2.4l-9.2 7.1a1.5 1.5 0 0 1-.9.3z" fill="#2ed3cb"/><path d="M457 1435.8a1.5 1.5 0 0 0-.6 2l5.6 10.2a1.5 1.5 0 0 0 2 .6 1.5 1.5 0 0 0 .6-2l-5.6-10.2a1.5 1.5 0 0 0-2-.6zM499.4 1435a1.9 1.9 0 0 0 .4 0 1.5 1.5 0 0 0 1.4-1.2l2.6-11.3a1.5 1.5 0 1 0-2.9-.7l-2.6 11.4a1.5 1.5 0 0 0 1.1 1.8zM471.8 1414.5l-8 8.4a1.5 1.5 0 0 0 0 2 1.5 1.5 0 0 0 1 .5 1.5 1.5 0 0 0 1-.5l8-8.4a1.5 1.5 0 0 0 0-2 1.5 1.5 0 0 0-2 0zM470.5 1406.2a1.5 1.5 0 0 0 1.3.7 1.5 1.5 0 0 0 1.3-2.2l-5.9-10a1.5 1.5 0 0 0-2.6 1.5zM485.2 1408.9a1.5 1.5 0 0 0-1 1.8l3.4 11.2a1.5 1.5 0 0 0 1.4 1.1 1.4 1.4 0 0 0 .4 0 1.5 1.5 0 0 0 1-2l-3.3-11a1.5 1.5 0 0 0-2-1.1zM480.2 1393.6a1.5 1.5 0 0 0 1.1.5 1.5 1.5 0 0 0 1-.4l3-2.7-1.8-2.5-3.2 3a1.5 1.5 0 0 0 0 2.1zM479.6 1429.2a1.5 1.5 0 1 0-3 .3l1.3 11.6a1.5 1.5 0 0 0 1.5 1.3h.2a1.5 1.5 0 0 0 1.3-1.7zM517.8 1436.9l6.5 9.7a1.5 1.5 0 0 0 1.2.7 1 1 0 0 0 .3 0l-8.2-11.4a1.5 1.5 0 0 0 .2 1zM446.6 1402.8a1.5 1.5 0 0 0 1-.3l9.2-7.2a1.5 1.5 0 0 0 .3-2l-11.8 8.5v.1a1.5 1.5 0 0 0 .2.4 1.5 1.5 0 0 0 1.1.5zM409.2 1438.2h.1a1.5 1.5 0 0 0 1.4-1.6l-1-8.9v-.1l-2.8 2v.1l.8 7.2a1.5 1.5 0 0 0 1.5 1.3zM443.8 1414.2l9.5 6.7a1.5 1.5 0 1 0 1.7-2.4l-9.5-6.8a1.5 1.5 0 0 0-1.7 2.5zM429.9 1412.9v-.1l-1 .8a1.5 1.5 0 0 0 1-.7zM422.3 1430.6a1.5 1.5 0 0 0 .7-.2l10-6a1.5 1.5 0 1 0-1.6-2.6l-10 6a1.5 1.5 0 0 0 .9 2.8zM471.8 1515.7l-8 8.4a1.5 1.5 0 0 0 0 2.2 1.5 1.5 0 0 0 1 .4 1.5 1.5 0 0 0 1-.5l8-8.4a1.5 1.5 0 1 0-2-2zM538 1487.5l11 3.9a1.5 1.5 0 0 0 1.9-1 1.5 1.5 0 0 0-1-1.9l-11-3.9a1.5 1.5 0 0 0-1 2.9zM467.2 1495.9a1.5 1.5 0 1 0-2.6 1.5l5.9 10a1.5 1.5 0 1 0 2.6-1.4zM489.4 1524.2a1.5 1.5 0 0 0 1-1.9l-3.3-11.1a1.5 1.5 0 1 0-3 .8l3.4 11.2a1.5 1.5 0 0 0 1.5 1 1.7 1.7 0 0 0 .4 0zM524.6 1512.4a1.5 1.5 0 0 0-2.1-.2l-8.9 7.6a1.5 1.5 0 0 0-.1 2.1 1.5 1.5 0 0 0 1.1.6 1.5 1.5 0 0 0 1-.4l8.8-7.6a1.5 1.5 0 0 0 .2-2.1zM541.3 1499.4a1.5 1.5 0 0 0-1.4 1.5l.2 11.7a1.5 1.5 0 0 0 1.5 1.4 1.5 1.5 0 0 0 1.5-1.5l-.3-11.6a1.5 1.5 0 0 0-1.5-1.5zM547.2 1522a1.5 1.5 0 0 0 1.4 1 1.4 1.4 0 0 0 .6-.2l10.7-4.7a1.5 1.5 0 0 0-1.2-2.7L548 1520a1.5 1.5 0 0 0-.8 2zM488.9 1484.9l-8.6 7.9a1.5 1.5 0 0 0 1 2.6 1.5 1.5 0 0 0 1-.4l8.6-8a1.5 1.5 0 0 0-2-2.1zM525.8 1484.3a1.5 1.5 0 0 0 2-.2l7.5-9a1.5 1.5 0 1 0-2.3-1.9l-7.4 9a1.5 1.5 0 0 0 .2 2.1zM554.5 1504.6a1.6 1.6 0 0 0 .9.2 1.5 1.5 0 0 0 1.2-.6l5-7-1.8-2.7-5.7 8a1.5 1.5 0 0 0 .4 2zM521.5 1490.6a1.5 1.5 0 0 0-2.4 1.8l7 9.4a1.5 1.5 0 0 0 1.1.6 1.5 1.5 0 0 0 1-.3 1.5 1.5 0 0 0 .2-2.1zM530.4 1530.5a1.5 1.5 0 0 0 .8.2 1.5 1.5 0 0 0 1.3-.7l5.9-10a1.5 1.5 0 1 0-2.6-1.5l-6 10a1.5 1.5 0 0 0 .6 2zM509.6 1489.4a1.4 1.4 0 0 0 .6-.1 1.5 1.5 0 0 0 .8-2l-4.3-10.8a1.5 1.5 0 1 0-2.8 1.1l4.3 10.9a1.5 1.5 0 0 0 1.4 1zM505.8 1508.2a1.5 1.5 0 0 0 .9-2.7l-9.5-6.8a1.5 1.5 0 0 0-2 .4 1.5 1.5 0 0 0 .3 2l9.5 6.8a1.4 1.4 0 0 0 .8.3zM480 1465a1.5 1.5 0 0 0-2-.5 1.5 1.5 0 0 0-.5 2l5.7 10.2a1.5 1.5 0 0 0 1.3.7 1.6 1.6 0 0 0 .7-.2 1.5 1.5 0 0 0 .6-2zM439.6 1457.7a1.5 1.5 0 0 0 .5-3l-11-3.9a1.5 1.5 0 0 0-1 2.9l11 3.9a1.7 1.7 0 0 0 .5 0zM457 1494.5a1.5 1.5 0 0 0-2.1-.3l-9.2 7.1a1.5 1.5 0 0 0 .9 2.7 1.5 1.5 0 0 0 1-.3l9.1-7.1a1.5 1.5 0 0 0 .3-2.1zM474.7 1453.3l-7.2 9.2a1.5 1.5 0 0 0 .3 2.1 1.4 1.4 0 0 0 .9.3 1.5 1.5 0 0 0 1.2-.5l7.1-9.2a1.5 1.5 0 1 0-2.3-1.9zM431.5 1465.6a1.5 1.5 0 0 0-1.5 1.5l.2 11.7a1.5 1.5 0 0 0 1.5 1.5 1.5 1.5 0 0 0 1.5-1.6l-.3-11.6a1.5 1.5 0 0 0-1.4-1.5zM450.8 1482.4a1.5 1.5 0 0 0-2-.8l-10.7 4.7a1.5 1.5 0 0 0 .6 2.9 1.6 1.6 0 0 0 .6-.1l10.7-4.7a1.5 1.5 0 0 0 .8-2zM418 1450.3l7.4-9a1.5 1.5 0 0 0-2.3-1.9l-7.4 9a1.5 1.5 0 1 0 2.3 2zM444.6 1470.8a1.5 1.5 0 0 0 2.1-.3l6.8-9.5a1.5 1.5 0 0 0-2.4-1.8l-6.8 9.5a1.5 1.5 0 0 0 .3 2.1zM472.3 1481.4a1.5 1.5 0 0 0 .6-2.9l-10.4-5.2a1.5 1.5 0 0 0-1.3 2.7l10.4 5.2a1.4 1.4 0 0 0 .7.2zM411.7 1456.8a1.5 1.5 0 0 0-2.4 1.8l6.8 9.4a1.5 1.5 0 0 0 1.3.6 1.5 1.5 0 0 0 1.2-2.4zM428 1469.2a1.4 1.4 0 0 0-.4-.2l1.2 1.6a1.5 1.5 0 0 0-.8-1.4zM455.4 1521.8a1.5 1.5 0 0 0-.4-2l-3-2.2 3.2 4.5a1.5 1.5 0 0 0 .2-.3zM445.8 1443.1l2.3-11.4a1.5 1.5 0 1 0-3-.6l-2.2 11.4a1.5 1.5 0 0 0 1.1 1.8 1 1 0 0 0 .3 0 1.5 1.5 0 0 0 1.5-1.2zM499 1449.5a1.5 1.5 0 0 0 2 .5l10.1-5.9a1.5 1.5 0 0 0-1.5-2.6l-10 5.9a1.5 1.5 0 0 0-.6 2zM517.5 1470.7a1.5 1.5 0 0 0 1.5 1.3h.2a1.5 1.5 0 0 0 1.3-1.7l-1.3-11.5a1.5 1.5 0 0 0-3 .3zM488.6 1456.6a1.5 1.5 0 0 0 .6 2l10.4 5.2a1.5 1.5 0 1 0 1.4-2.7l-10.4-5.2a1.5 1.5 0 0 0-2 .7zM530.9 1463.7a1.5 1.5 0 0 0 1.2.7 1.6 1.6 0 0 0 .8-.2l3.5-2.1-1.7-2.5-3.4 2a1.5 1.5 0 0 0-.4 2.1z" fill="#fff"/><path d="m324.8 1361.2-32.7 35 9.7 2a1.5 1.5 0 1 1-.6 3l-11.4-2.5-20.9 22.4 1.5.1a1.5 1.5 0 0 1-.4 3l-3.7-.4-22.5 24.2 7.3 2a1.5 1.5 0 0 1-.8 2.9l-8.8-2.4-12.4 13.3 11.4 3.5.2-3a1.5 1.5 0 1 1 3 .1l-.2 3.8 46.8 14.5 1.8-6.2h-.2a1.5 1.5 0 0 1-.6-.6 1.5 1.5 0 0 1 0-1.5 1.5 1.5 0 0 1 1.6-.7l11.7-41.4-3.7 1.3a1.5 1.5 0 0 1-1.8-.7 1.4 1.4 0 0 1-.1-.3 1.5 1.5 0 0 1 1-1.9l5.6-2 4.5-15.7-4 4.5a1.5 1.5 0 0 1-2.4-.2 1.5 1.5 0 0 1 .1-1.7l7.7-8.8a1.4 1.4 0 0 1 .4-.3zm-69.8 79.6 5.6-10.2a1.5 1.5 0 0 1 2.6 1.4l-5.6 10.2a1.5 1.5 0 0 1-2.6.1 1.5 1.5 0 0 1 0-1.5zm29.4-20.9a1.5 1.5 0 0 1-2.2-.2v-.2a1.5 1.5 0 0 1 .3-2l9.1-7.2a1.5 1.5 0 1 1 1.9 2.3zm-16.8 40.8-7 9.4a1.5 1.5 0 0 1-2.4 0 1.5 1.5 0 0 1 0-1.8l7-9.3a1.5 1.5 0 0 1 2.4 1.7zm21.7 1.2-9.2 7.3a1.5 1.5 0 0 1-2.1-.2l-.1-.1a1.5 1.5 0 0 1 .3-2l9.2-7.3a1.5 1.5 0 1 1 1.8 2.4zm10.2-15.2a1.5 1.5 0 0 1-2 .6l-10.3-5.4a1.5 1.5 0 0 1-.6-.5 1.5 1.5 0 0 1 0-1.5 1.5 1.5 0 0 1 2-.7l10.3 5.5a1.5 1.5 0 0 1 .6 2zm-23-10.6 1.1 11.6a1.5 1.5 0 0 1-2.7 1 1.6 1.6 0 0 1-.3-.7l-1-11.6a1.5 1.5 0 0 1 1.3-1.6 1.5 1.5 0 0 1 1.7 1.3zm39.7-52.2-5.4 10.3a1.5 1.5 0 0 1-2 .6 1.5 1.5 0 0 1-.6-.5 1.5 1.5 0 0 1 0-1.5l5.4-10.3a1.5 1.5 0 0 1 2.7 1.4z" fill="#9496ff"/><path d="M318.6 1360.8a1.5 1.5 0 0 1 .6.7l1.6-1.7-2.2 1zM309.4 1372l8-8.6a1.3 1.3 0 0 1-.5-.2l-1.5-1-14.5 6.6zM226.3 1461l-.4-1a1.5 1.5 0 0 1 1.4 0l10.7-11.4a1.6 1.6 0 0 1 0-.6 1.5 1.5 0 0 1 1.5-1.1l22-23.5-3-.3a1.5 1.5 0 0 1-1.2-.7 1.5 1.5 0 0 1-.2-1 1.5 1.5 0 0 1 1.7-1.3l5.2.5 43.2-46.3-8-3a1.5 1.5 0 0 1-1-1.3l-8.2 3.7a1.4 1.4 0 0 1 .2.8l-.7 11.7a1.5 1.5 0 0 1-3-.2l.7-11-36.6 16.6.2 1a1.5 1.5 0 1 1-3 .7v-.4l-40.2 18.2zm4-23.6-5.5 10.3a1.5 1.5 0 0 1-2 .7 1.5 1.5 0 0 1-.5-.6 1.5 1.5 0 0 1 0-1.5l5.3-10.3a1.5 1.5 0 1 1 2.7 1.4zm16.4-2.6a1.5 1.5 0 0 1-1.6-1.4l-1.1-11.6a1.5 1.5 0 0 1 3-.3l1 11.6a1.5 1.5 0 0 1-1.3 1.7zm29.7-35.8-5.6 10.2a1.5 1.5 0 0 1-2 .6 1.4 1.4 0 0 1-.5-.5 1.5 1.5 0 0 1 0-1.6l5.6-10.2a1.5 1.5 0 1 1 2.6 1.5zm-13.7-10.5 11-4a1.5 1.5 0 0 1 1 2.9l-11 4a1.5 1.5 0 0 1-1.7-.6 1.1 1.1 0 0 1-.2-.3 1.5 1.5 0 0 1 .9-2zm-21.5 15 11.7.8a1.5 1.5 0 1 1-.2 3l-11.7-.7a1.5 1.5 0 0 1-1.4-1.6 1.5 1.5 0 0 1 1.6-1.4zm-20.2 4.6a1.5 1.5 0 0 1 2-.4l9.7 6.6a1.5 1.5 0 1 1-1.7 2.5l-9.6-6.6a1.5 1.5 0 0 1-.4-2zm-8.7 14.9a1.5 1.5 0 0 1 2-.9l10.9 4a1.5 1.5 0 0 1-1 2.8l-11-4a1.5 1.5 0 0 1-.6-.5l-.3-1a1.5 1.5 0 0 1 0-.4z" fill="#2ed3cb"/><path d="M267.3 1458.7a1.5 1.5 0 0 0-2.1.3l-7 9.3a1.5 1.5 0 0 0 0 1.7 1.5 1.5 0 0 0 2.5.1l7-9.4a1.5 1.5 0 0 0-.4-2zM255.6 1442.8a1.5 1.5 0 0 0 2-.6l5.6-10.2a1.5 1.5 0 0 0-2.6-1.4l-5.6 10.2a1.5 1.5 0 0 0 0 1.5 1.5 1.5 0 0 0 .6.5zM313.6 1382.5l-5.5 10.3a1.5 1.5 0 0 0 .1 1.5 1.5 1.5 0 0 0 .6.5 1.5 1.5 0 0 0 2-.6l5.4-10.3a1.5 1.5 0 0 0-2.7-1.4zM288.5 1439.3a1.5 1.5 0 0 0-2 .6 1.5 1.5 0 0 0 .1 1.5 1.5 1.5 0 0 0 .6.5l10.3 5.4a1.5 1.5 0 0 0 2-.6 1.5 1.5 0 0 0-.6-2zM287.4 1459.6l-9.1 7.2a1.5 1.5 0 0 0-.4 2l.1.2a1.5 1.5 0 0 0 2.1.2l9.2-7.2a1.5 1.5 0 1 0-2-2.4zM293.7 1410.5a1.5 1.5 0 0 0-2.1-.2l-9.1 7.3a1.5 1.5 0 0 0-.4 2l.1.1a1.5 1.5 0 0 0 2.1.2l9.2-7.2a1.5 1.5 0 0 0 .2-2.1zM273.6 1436.4l1 11.6a1.6 1.6 0 0 0 .2.7 1.5 1.5 0 0 0 2.8-1l-1-11.6a1.5 1.5 0 0 0-1.7-1.3 1.5 1.5 0 0 0-1.3 1.6zM245.4 1420.2a1.5 1.5 0 0 0-1.4 1.6l1 11.6a1.5 1.5 0 0 0 1.7 1.4 1.5 1.5 0 0 0 1.4-1.7l-1.1-11.6a1.5 1.5 0 0 0-1.6-1.3zM229.6 1435.4a1.5 1.5 0 0 0-2 .6l-5.4 10.4a1.5 1.5 0 0 0 0 1.4 1.5 1.5 0 0 0 .6.6 1.5 1.5 0 0 0 2-.6l5.5-10.4a1.5 1.5 0 0 0-.7-2zM212.6 1424.4a1.5 1.5 0 0 0 .6.5l11 4a1.5 1.5 0 0 0 1-2.8l-11-4a1.5 1.5 0 0 0-1.9.9 1.5 1.5 0 0 0 0 .5zM221.3 1410.2l9.7 6.6a1.5 1.5 0 1 0 1.7-2.5l-9.7-6.6a1.5 1.5 0 1 0-1.7 2.5zM241 1406.6l11.6.8a1.5 1.5 0 1 0 .2-3l-11.6-.8a1.5 1.5 0 0 0-1.4 2.3 1.5 1.5 0 0 0 1.2.7zM275.9 1397a1.5 1.5 0 0 0-2 .6l-5.7 10.2a1.5 1.5 0 0 0 0 1.5 1.4 1.4 0 0 0 .6.5 1.5 1.5 0 0 0 2-.6l5.6-10.2a1.5 1.5 0 0 0-.5-2zM262 1390.8a1.5 1.5 0 0 0 1.8.6l11-4a1.5 1.5 0 0 0-1.1-2.9l-11 4a1.5 1.5 0 0 0-.8 2 1.1 1.1 0 0 0 .1.3z" fill="#381c00"/><path d="m894.5 1549.2.6-2.5c2-10-1-20.9-11-25.6-10.8-5.1-23-1.4-31.4 6.3-9.8 8.9-16.2 22.2-23.1 33.3l-22.2 35.3h17.7l17.5-27.8 10.6-17c3.2-5 6.5-10.6 11.4-14.3a14.8 14.8 0 0 1 3.3-1.9 13.7 13.7 0 0 1 8-.9c3.2.8 5.4 3.2 4.8 7.9a28.8 28.8 0 0 1-2.3 8l-2.7 5.6-9 18.6-10.4 21.8h16.6l5.2-10.8c5.5-11.6 12.9-23.5 16.4-36z" fill="#fe89e2"/><path d="M132.4 1495.5a35.5 35.5 0 0 0-23 6.1c-7 4.6-12.4 11-19.3 15.6-3.4 2.3-10 5.6-13.9 2.5l-.3-.2c-3.7-3.5-2-12.2-1.3-16.6 3.2-20 6.6-40 10-60l1.3-7.7c.9-5.3-1.4-10.8-7-12.3-4.8-1.3-11.4 1.6-12.3 7-3.7 22.6-7.6 45.1-11.2 67.7-1.3 8-2.3 16.2-.2 24h60.4a27.9 27.9 0 0 1 10-5.6c5.7-1.7 9 0 9.7 5.6H155a32.9 32.9 0 0 0-2.3-11.4 24.2 24.2 0 0 0-20.4-14.7z" fill="#2ed3cb"/><path d="m44.6 351.2 33.8 27 7.5-9.3-5.9-4.7-3.6 4.5L41.7 341 0 361.3V372l.9.6z"/><path d="M42.1 337.4 76 364.6l7.5-9.4-39.8-31.8L0 344.6V358z" fill="#85e8f8"/><path d="m.4 341.1-.4-.3v3.8l43.7-21.3 39.7 31.8-7.5 9.4-33.8-27L0 358v3.3L41.7 341l34.7 27.7 3.6-4.5L86 369l-7.5 9.4-33.8-27L.9 372.4l-.9-.7v3.9l.5.4 43.7-21.3 34.7 27.7 11.2-14-8.2-6.6 5.8-7.2L44 319.8z" fill="#381c00"/><path d="m43.4 784.2 11.5-13-31.2-27.6L0 746.2v3l22.7-2.5 26.7 23.6-25.6 3.7L0 752.9v4l21.2 18.8L0 799.6v4.5L24 777l25-3.5-49 55.3v21.8l52-58.7z" fill="#1e0f00"/><path d="M21.2 775.7 0 756.9v42.7z" fill="#ef9da3"/><path d="M49 773.4 24 777 0 804v24.6z" fill="#ffe552"/><path d="m23.8 774 25.6-3.7-26.7-23.6L0 749.2v3.7z" fill="#2ed3cb"/><path d="M30.3 570c6.7-9.7 12.5-21.2 7.4-32.9-1.5 6.2-4.9 12-8.6 17.4a7.6 7.6 0 0 1-8.5 3.1c-1 1.7-2.3 3.3-3.3 4.8-5.5 8 7.5 15.4 13 7.5zM23.5 530.8c-.1-2.6-1.2-4.4-2.9-5.2a24.2 24.2 0 0 0-7 .6C9 528.7 5.6 534 2.7 538L0 541.9v17l3.9-5.4c3.2-4.4 6.8-10.1 12-12.3a7.7 7.7 0 0 1 4.6-.6c1.9-3 3.2-6.3 3-9.7z" fill="#381c00"/><path d="M29.1 554.5a53.5 53.5 0 0 0 8.6-17.4 23.9 23.9 0 0 0-1.3-15.7c-5-11.2-18-13.8-28.5-9a31.2 31.2 0 0 0-7.9 5.3v24l2.7-3.7c3-4 6.3-9.3 11-11.8l1-.5a7 7 0 0 1 6-.2c1.6.9 2.7 2.7 2.8 5.3a17 17 0 0 1-3 9.7c-1.4 2.3-3 4.5-4.4 6.6-3.3 4.7 0 9.3 4.5 10.5a7.6 7.6 0 0 0 8.5-3z" fill="#fe89e2"/><path d="M455.1 2.2A137 137 0 0 0 689.5 39a137.1 137.1 0 0 0 25.7-49.7 14.8 14.8 0 0 0-8.6-5.4c-22.5-5.6-34.9 20.9-42.3 37.1-1.7 3.7-7 4.7-10.3 2.8-3.7-2.3-4.4-6.6-2.7-10.3l2.2-4.8a5.8 5.8 0 0 1-.7-.3c-3.7-2.2-4.4-6.6-2.7-10.3a98.7 98.7 0 0 1 21.8-33.8H495.2L483-26.9l-6.4-8.8h-30.4A138.7 138.7 0 0 0 455 2.2z" fill="#ffe552"/><path d="M143.1 31.4a29 29 0 0 0 4 11.6 31.2 31.2 0 0 0 50.6 3c2.6-3.1 3.1-7.4 0-10.5a7.6 7.6 0 0 0-3.9-2c-13.7 15.2-38.1 13.3-50.7-2.1zM78.9 19.3A25.5 25.5 0 0 1 61 10.8a29.4 29.4 0 0 0 1.9 7.6A22.7 22.7 0 0 0 83 32.8c9 .5 17.4-3.6 24.3-9S120.4 10.4 129 8a13.4 13.4 0 0 1 6.7-.3l-.4-6.8-.1-.9h-19.7c-3.7 3-7.1 6.7-10.7 9.5a39.6 39.6 0 0 1-26 9.7zM156.9 15.8a32.2 32.2 0 0 0-1.5-8.6c0 1.6.2 3.2.4 4.7a15.4 15.4 0 0 0 1 3.9z" fill="#381c00"/><path d="m154 205.5-7.4 9a1.5 1.5 0 0 0 2.3 2l7.4-9a1.5 1.5 0 1 0-2.3-2zM127.8 208.8a1.5 1.5 0 0 0-2-.8 1.5 1.5 0 0 0-.8 2l4.3 10.8a1.5 1.5 0 0 0 1.4 1 1.4 1.4 0 0 0 .5-.1 1.5 1.5 0 0 0 .9-2zM119.4 165.5a1.5 1.5 0 0 0 1.1 1.8 1.9 1.9 0 0 0 .3 0 1.5 1.5 0 0 0 1.5-1.1l2.6-11.4a1.5 1.5 0 1 0-3-.7zM132.7 174.3a1.5 1.5 0 0 0-2-.5l-10 5.9a1.5 1.5 0 1 0 1.5 2.6l10-5.9a1.5 1.5 0 0 0 .5-2zM140.2 191a1.5 1.5 0 1 0-3 .4l1.4 11.6a1.5 1.5 0 0 0 1.5 1.3h.2a1.5 1.5 0 0 0 1.3-1.6zM122 193.4l-10.4-5.2a1.5 1.5 0 0 0-1.4 2.7l10.5 5.2a1.4 1.4 0 0 0 .6.2 1.5 1.5 0 0 0 .7-2.9zM145.3 178.9a1.5 1.5 0 0 0 1.3.6 1.5 1.5 0 0 0 1.2-2.3l-6.5-9.7a1.5 1.5 0 0 0-2.5 1.7zM162.3 187.9l-9.9 6a1.5 1.5 0 0 0-.5 2.1 1.5 1.5 0 0 0 1.3.7 1.5 1.5 0 0 0 .8-.2l10-6a1.5 1.5 0 0 0-1.7-2.6zM92.8 146.8l-8 8.4a1.5 1.5 0 0 0 0 2 1.5 1.5 0 0 0 1 .5 1.5 1.5 0 0 0 1-.5l8.2-8.4a1.5 1.5 0 1 0-2.2-2zM108.6 154.2a1.5 1.5 0 0 0 1.4 1 1.4 1.4 0 0 0 .5 0 1.5 1.5 0 0 0 1-1.9l-3.4-11.1a1.5 1.5 0 1 0-2.9.8zM100.6 161.5a1.5 1.5 0 1 0-3 .3l1.4 11.6a1.5 1.5 0 0 0 1.5 1.3h.2a1.5 1.5 0 0 0 1.3-1.7zM97.8 185.4a1.5 1.5 0 0 0-2 .2l-7.2 9.2a1.5 1.5 0 0 0 1.1 2.5 1.5 1.5 0 0 0 1.2-.6l7.2-9.2a1.5 1.5 0 0 0-.3-2.1zM91.5 138.5a1.5 1.5 0 0 0 1.3.8 1.4 1.4 0 0 0 .8-.3 1.5 1.5 0 0 0 .5-2l-5.8-10a1.5 1.5 0 1 0-2.6 1.5zM80 168.7a1.5 1.5 0 1 0-2.6 1.4l5.6 10.2a1.5 1.5 0 0 0 1.3.8 1.5 1.5 0 0 0 1.4-2.2zM68 162.2a1.5 1.5 0 0 0-1.8 1.2L64 174.8a1.5 1.5 0 0 0 1.2 1.8 1.5 1.5 0 0 0 .3 0 1.5 1.5 0 0 0 1.4-1.2l2.4-11.4a1.5 1.5 0 0 0-1.2-1.8zM67.7 135a1.4 1.4 0 0 0 .9-.3l9.2-7a1.5 1.5 0 0 0-1.8-2.5l-9.2 7.2a1.5 1.5 0 0 0 .9 2.7zM76 150.8l-9.4-6.8a1.5 1.5 0 0 0-2.1.3 1.5 1.5 0 0 0 .3 2.1l9.5 6.8a1.5 1.5 0 0 0 1 .3 1.5 1.5 0 0 0 .8-2.8zM171 220.8l-11-3.9a1.5 1.5 0 0 0-1 2.9l11 3.9a1.5 1.5 0 1 0 1-2.9zM207.7 219.1a1.5 1.5 0 0 0-2.1.3l-7.2 9.2a1.5 1.5 0 0 0 2.4 1.8l7.1-9.2a1.5 1.5 0 0 0-.2-2zM184 225a1.5 1.5 0 0 0-2 .3l-6.8 9.5a1.5 1.5 0 0 0 2.4 1.8l6.8-9.5a1.5 1.5 0 0 0-.3-2.1zM203.9 244.6l-10.4-5.3a1.5 1.5 0 1 0-1.4 2.7l10.4 5.2a1.5 1.5 0 1 0 1.4-2.7zM187.9 201.9a1.5 1.5 0 0 0-.6 2L193 214a1.5 1.5 0 0 0 1.3.8 1.5 1.5 0 0 0 .7-.2 1.5 1.5 0 0 0 .6-2l-5.6-10.2a1.5 1.5 0 0 0-2.1-.6zM175.2 210.4a1.5 1.5 0 0 0 1.5-1.2l2.3-11.4a1.5 1.5 0 1 0-3-.6l-2.3 11.4a1.5 1.5 0 0 0 1.2 1.8zM208.8 207.1a1.5 1.5 0 0 0 1.5 1.4h.2a1.5 1.5 0 0 0 1.3-1.7l-1.3-11.6a1.5 1.5 0 0 0-3 .4zM174.7 180.2l9.5 6.8a1.5 1.5 0 0 0 2.1-.4 1.5 1.5 0 0 0-.3-2l-9.5-6.8a1.5 1.5 0 0 0-2.1.3 1.5 1.5 0 0 0 .3 2.1zM158.7 179.5a1.5 1.5 0 0 0 .8.2 1.5 1.5 0 0 0 1.3-.7l6-10a1.5 1.5 0 0 0-2.5-1.6l-6 10a1.5 1.5 0 0 0 .4 2z" fill="#1e0f00"/><path d="m205.9 264.9-1.3-.7-280.7-147.7-12 23 300.7 158.3 35-66.5-18.8-10z" fill="#381c00"/><path d="M-48.8 52a1.5 1.5 0 0 1 1 2 1.5 1.5 0 0 1-1.5 1 1.5 1.5 0 0 1-.5 0l-11-4-13.1 25.1a1.5 1.5 0 0 1-.4 1.9l-1.2 1-14.1 27 .5.3a1.5 1.5 0 0 1 2 .6 1.5 1.5 0 0 1 .2.6l27.2 14.3 2.3-1.4a1.5 1.5 0 0 1 2 .5 1.5 1.5 0 0 1-.4 2l-.8.5 12.8 6.8.1-.5a1.5 1.5 0 0 1 1.8-1.2 1.5 1.5 0 0 1 1.2 1.8l-.3 1.3 8.4 4.4a1.5 1.5 0 0 1 .7-1.6 1.5 1.5 0 0 1 2 .5l2 3.6 56.5 29.7-1.2-10.5a1.5 1.5 0 1 1 3-.4l1.3 11.6a1.5 1.5 0 0 1-.1.9l10 5.2 2.6-3.2a1.5 1.5 0 1 1 2.3 1.9l-2.2 2.7 28.1 14.8a1.5 1.5 0 0 1 2.4 1.3l28.6 15-5-8.7a1.5 1.5 0 0 1 2.7-1.5l5.7 10.2a1.5 1.5 0 0 1-.2 1.7l36.2 19-2.6-3.5a1.5 1.5 0 1 1 2.4-1.8l6.3 8.6 12.1 6.4-.1-4.7a1.5 1.5 0 0 1 1.5-1.5 1.5 1.5 0 0 1 1.5 1.5l.1 6.3 15.7 8.2a1.5 1.5 0 0 1 2 .8 1.6 1.6 0 0 1 0 .3l22.9 12 9.5-18-5.8-10.2a1.5 1.5 0 0 1 .6-2 1.5 1.5 0 0 1 2 .6l4.8 8.5 7.2-13.6-2.8-1.4a1.5 1.5 0 0 1 1.3-2.7l2.8 1.5 12-22.7-3.8-2-.3 1.2a1.5 1.5 0 0 1-1.5 1.2 1.4 1.4 0 0 1-.3 0 1.5 1.5 0 0 1-1.1-1.8l.4-2-25.9-13.6-7 7.3a1.5 1.5 0 1 1-2.2-2.1l6.4-6.6-45.8-24.1-1.6 2.7a1.5 1.5 0 0 1-1.3.7 1.4 1.4 0 0 1-.7-.2 1.5 1.5 0 0 1-.6-2l1.7-2.7-12.6-6.6-3.4 3a1.5 1.5 0 0 1-1 .3 1.5 1.5 0 0 1-1-2.6l2.5-2.2L72 114.4a1.5 1.5 0 0 1-.8 1L60.4 120a1.5 1.5 0 0 1-.6.1 1.5 1.5 0 0 1-.6-2.8l10-4.5-15-7.9.1 4.8a1.5 1.5 0 0 1-1.5 1.5 1.5 1.5 0 0 1-1.4-1.4l-.2-6.5-11.5-6a1.5 1.5 0 0 1-.3 2 1.6 1.6 0 0 1-1 .3 1.5 1.5 0 0 1-1.1-.6l-3.6-4.8-37.4-19.7a1.6 1.6 0 0 1-.7.1 1.5 1.5 0 0 1-1.3-.7l-.3-.7L-35.2 58l-.1.3-6.8 9.4a1.5 1.5 0 0 1-1.2.7 1.5 1.5 0 0 1-.9-.3 1.5 1.5 0 0 1-.3-2.1l6.7-9.4L-58.1 46l-1.2 2.4zm-8.6 11a1.5 1.5 0 0 1 1.6 1.4l.2 11.6a1.5 1.5 0 0 1-1.4 1.6 1.5 1.5 0 0 1-1.5-1.5l-.3-11.7a1.5 1.5 0 0 1 1.4-1.5zm-11.4 29 6-10a1.5 1.5 0 0 1 2-.5 1.5 1.5 0 0 1 .5 2l-6 10a1.5 1.5 0 0 1-1.3.7 1.5 1.5 0 0 1-.7-.2 1.5 1.5 0 0 1-.5-2zm-5.6 19.4-6.5-9.7a1.5 1.5 0 0 1 .4-2 1.5 1.5 0 0 1 2.1.3l6.5 9.7a1.5 1.5 0 0 1-.4 2 1.5 1.5 0 0 1-.9.4 1.5 1.5 0 0 1-1.2-.7zm21.5-9.9-6 10a1.5 1.5 0 0 1-1.3.7 1.5 1.5 0 0 1-.8-.2 1.5 1.5 0 0 1-.5-2l6-10a1.5 1.5 0 0 1 2.1-.5 1.5 1.5 0 0 1 .5 2zm19.5 17.6a1.5 1.5 0 0 1-1.3.7 1.5 1.5 0 0 1-.8-.3l-9.5-6.8a1.5 1.5 0 0 1-.3-2 1.5 1.5 0 0 1 2-.4l9.5 6.7a1.5 1.5 0 0 1 .4 2.1zm1.3-25.2-9.2 7.1a1.5 1.5 0 0 1-.9.3 1.5 1.5 0 0 1-1.2-.6 1.5 1.5 0 0 1 .3-2l9.2-7.2a1.5 1.5 0 0 1 2.1.3 1.5 1.5 0 0 1-.3 2zm8.4-1.3a1.5 1.5 0 0 1 2 .6l6 10a1.5 1.5 0 0 1-.6 2 1.5 1.5 0 0 1-.7.2 1.5 1.5 0 0 1-1.3-.7l-6-10a1.5 1.5 0 0 1 .6-2zm8.8 22.5-8 8.4a1.5 1.5 0 0 1-1.1.5 1.5 1.5 0 0 1-1-.4 1.5 1.5 0 0 1 0-2.1l8-8.5a1.5 1.5 0 0 1 2.1 0 1.5 1.5 0 0 1 0 2zm5.7 25.8h-.2a1.5 1.5 0 0 1-1.5-1.3l-1.3-11.6a1.5 1.5 0 0 1 1.3-1.7 1.5 1.5 0 0 1 1.7 1.4l1.3 11.5a1.5 1.5 0 0 1-1.3 1.7zm9.8-19.5a1.6 1.6 0 0 1-.4.1 1.5 1.5 0 0 1-1.5-1l-3.3-11.2a1.5 1.5 0 0 1 1-1.9 1.5 1.5 0 0 1 1.8 1l3.4 11.2a1.5 1.5 0 0 1-1 1.8zm9 10.4 2.5-11.4a1.5 1.5 0 0 1 3 .7l-2.7 11.4a1.5 1.5 0 0 1-1.4 1.1 1.2 1.2 0 0 1-.3 0 1.5 1.5 0 0 1-1.2-1.8zm12.7 10.8-10 6a1.4 1.4 0 0 1-.8.1 1.5 1.5 0 0 1-.8-2.8l10-5.9a1.5 1.5 0 1 1 1.6 2.6zm34.2-9.4a1.5 1.5 0 0 1 .5 2l-6 10a1.5 1.5 0 0 1-2.7-1.6l6.1-10a1.5 1.5 0 0 1 2-.4zm-19 12.3a1.5 1.5 0 0 1-.9.3 1.5 1.5 0 0 1-1.2-.7l-6.4-9.7a1.5 1.5 0 0 1 2.5-1.6l6.5 9.7a1.5 1.5 0 0 1-.5 2zM54 156.7l-10 6a1.5 1.5 0 0 1-.7.3 1.5 1.5 0 0 1-1.3-.8 1.5 1.5 0 0 1 .5-2l10-6a1.5 1.5 0 0 1 2 .4 1.5 1.5 0 0 1-.5 2zm15.2 7.3-2.4 11.4a1.5 1.5 0 0 1-1.4 1.2 1.5 1.5 0 0 1-.3 0 1.5 1.5 0 0 1-1.2-1.8l2.3-11.4a1.5 1.5 0 1 1 3 .6zm7.2-11.1a1.5 1.5 0 0 1-1.2.6 1.5 1.5 0 0 1-.9-.3l-9.5-6.7a1.5 1.5 0 0 1-.3-2.1 1.5 1.5 0 0 1 2-.4l9.6 6.8a1.5 1.5 0 0 1 .3 2zm8.7 28a1.5 1.5 0 0 1-.7.2 1.5 1.5 0 0 1-1.3-.8L77.4 170a1.5 1.5 0 1 1 2.6-1.4l5.7 10.2a1.5 1.5 0 0 1-.6 2zm13 6.5-7.1 9.2a1.5 1.5 0 0 1-1.2.6 1.5 1.5 0 0 1-1.2-2.4l7.2-9.2a1.5 1.5 0 0 1 2.3 1.8zm2.6-12.7h-.2a1.5 1.5 0 0 1-1.5-1.3l-1.4-11.6a1.5 1.5 0 1 1 3-.3L102 173a1.5 1.5 0 0 1-1.4 1.7zm22 20.7a1.5 1.5 0 0 1-1.3.9 1.4 1.4 0 0 1-.7-.2l-10.4-5.2a1.5 1.5 0 0 1 1.4-2.7l10.3 5.3a1.5 1.5 0 0 1 .7 2zm8.6 26.2a1.4 1.4 0 0 1-.6 0 1.5 1.5 0 0 1-1.4-1L125 210a1.5 1.5 0 0 1 .8-2 1.5 1.5 0 0 1 2 .9l4.3 10.8a1.5 1.5 0 0 1-.9 2zm.9-45.2-10 5.8a1.5 1.5 0 0 1-1.5-2.5l10-6a1.5 1.5 0 1 1 1.6 2.7zm31.8 14-10 6a1.5 1.5 0 0 1-.8.3 1.5 1.5 0 0 1-1.3-.7 1.5 1.5 0 0 1 .5-2l10-6.1a1.5 1.5 0 0 1 1.5 2.5zm-23.7 13.9h-.2a1.5 1.5 0 0 1-1.5-1.4l-1.3-11.6a1.5 1.5 0 1 1 3-.3l1.3 11.6a1.5 1.5 0 0 1-1.3 1.7zm16 3-7.3 9a1.5 1.5 0 0 1-2.3-1.8l7.4-9a1.5 1.5 0 1 1 2.3 1.9zm15.6 15.4a1.5 1.5 0 0 1-1.9 1l-11-4a1.5 1.5 0 0 1 1-2.8l11 3.9a1.5 1.5 0 0 1 .9 2zm2-14.2 2.2-11.4a1.5 1.5 0 1 1 3 .6l-2.3 11.4a1.5 1.5 0 0 1-1.5 1.2h-.3a1.5 1.5 0 0 1-1.2-1.7zm10.5 18.5-6.8 9.5a1.5 1.5 0 0 1-2.4-1.8l6.8-9.4a1.5 1.5 0 0 1 2.4 1.7zm20.1 19.5a1.5 1.5 0 0 1-2 .7l-10.4-5.2a1.5 1.5 0 1 1 1.4-2.7l10.4 5.2a1.5 1.5 0 0 1 .6 2zm3.4-25.3-7.1 9.2a1.5 1.5 0 1 1-2.4-1.9l7.2-9.2a1.5 1.5 0 0 1 2-.2 1.5 1.5 0 0 1 .3 2.1zm-12.3-8.6a1.5 1.5 0 0 1-.6 2 1.5 1.5 0 0 1-.7.2 1.5 1.5 0 0 1-1.3-.8l-5.7-10.2a1.5 1.5 0 0 1 .6-2 1.5 1.5 0 0 1 2 .6zm13.2-18.7a1.5 1.5 0 0 1 1.7 1.3l1.3 11.5a1.5 1.5 0 0 1-1.3 1.7h-.2a1.5 1.5 0 0 1-1.5-1.3l-1.3-11.6a1.5 1.5 0 0 1 1.3-1.6zM174.4 178a1.5 1.5 0 0 1 2-.4l9.6 6.8a1.5 1.5 0 0 1-1 2.7 1.5 1.5 0 0 1-.8-.3l-9.5-6.7a1.5 1.5 0 0 1-.3-2zm-16.2-.7 6-10a1.5 1.5 0 0 1 2.7 1.5l-6.1 10a1.5 1.5 0 0 1-1.3.7 1.5 1.5 0 0 1-.8-.2 1.5 1.5 0 0 1-.5-2zm-19-10.3a1.5 1.5 0 0 1 2.1.4l6.5 9.7a1.5 1.5 0 0 1-1.3 2.3 1.5 1.5 0 0 1-1.2-.7l-6.5-9.6a1.5 1.5 0 0 1 .5-2zm-15.5-14a1.5 1.5 0 0 1 1.2 1.7l-2.6 11.4a1.5 1.5 0 0 1-1.5 1.1 1.9 1.9 0 0 1-.3 0 1.5 1.5 0 0 1-1.2-1.8l2.6-11.3a1.5 1.5 0 0 1 1.9-1.1zm-17.5-12a1.5 1.5 0 0 1 1.9 1l3.3 11.2a1.5 1.5 0 0 1-1 1.9 1.4 1.4 0 0 1-.4 0 1.5 1.5 0 0 1-1.4-1l-3.4-11.2a1.5 1.5 0 0 1 1-1.8zM95 148.8l-8 8.5a1.5 1.5 0 0 1-1 .4 1.5 1.5 0 0 1-1-.4 1.5 1.5 0 0 1 0-2.1l8-8.4a1.5 1.5 0 1 1 2 2zm-8.8-22.4a1.5 1.5 0 0 1 2 .5l6 10.1a1.5 1.5 0 0 1-.6 2 1.4 1.4 0 0 1-.8.2 1.5 1.5 0 0 1-1.3-.7l-5.8-10a1.5 1.5 0 0 1 .5-2.1zm-19.4 6 9.2-7.1a1.5 1.5 0 0 1 1.8 2.3l-9.2 7.2a1.4 1.4 0 0 1-.9.3 1.5 1.5 0 0 1-1-2.7zM49 115.2a1.5 1.5 0 0 1 .5 2l-6 10a1.5 1.5 0 1 1-2.5-1.5l5.9-10a1.5 1.5 0 0 1 2-.5zm-13.3-5.5a1.5 1.5 0 0 1-.2 2l-8.8 7.7a1.5 1.5 0 0 1-1 .4 1.5 1.5 0 0 1-1-2.7l8.8-7.6a1.5 1.5 0 0 1 2.2.1zM6.3 96.4a1.5 1.5 0 0 1 2-.4l9.6 6.8a1.5 1.5 0 0 1 .3 2 1.5 1.5 0 0 1-1.2.7 1.5 1.5 0 0 1-.9-.3l-9.4-6.7a1.5 1.5 0 0 1-.4-2.1zM-8.5 90l8.6-8a1.5 1.5 0 1 1 2 2.2l-8.6 8a1.5 1.5 0 0 1-1 .4 1.5 1.5 0 0 1-1-.5 1.5 1.5 0 0 1 0-2.1zm-19.8-18.9a1.5 1.5 0 0 1 2-.6l10.4 5.2a1.5 1.5 0 0 1 .7 2 1.5 1.5 0 0 1-1.4.8 1.5 1.5 0 0 1-.6-.1l-10.4-5.3a1.5 1.5 0 0 1-.7-2zm-9.7 8.5a1.5 1.5 0 0 1-.8 2l-10.6 4.7a1.4 1.4 0 0 1-.6 0 1.5 1.5 0 0 1-1.4-.8 1.5 1.5 0 0 1 .8-2l10.6-4.7a1.5 1.5 0 0 1 2 .8z" fill="#fd78ad"/><path d="M11 133.6a1.5 1.5 0 0 0 1.5-1.1L15 121a1.5 1.5 0 0 0-3-.7l-2.5 11.4a1.5 1.5 0 0 0 1.1 1.8 1.2 1.2 0 0 0 .4 0zM-1.8 108.4a1.5 1.5 0 0 0-1.8-1 1.5 1.5 0 0 0-1 1.9l3.3 11.1a1.5 1.5 0 0 0 1.5 1.1 1.6 1.6 0 0 0 .4 0 1.5 1.5 0 0 0 1-2zM24.8 117.1a1.5 1.5 0 0 0 1 2.6 1.5 1.5 0 0 0 1-.3l8.8-7.6a1.5 1.5 0 1 0-2-2.3zM20.8 140l-10 6a1.5 1.5 0 0 0 .7 2.7 1.4 1.4 0 0 0 .8-.2l10-5.9a1.5 1.5 0 1 0-1.5-2.5zM-7.5 92.7a1.5 1.5 0 0 0 1-.4l8.6-8a1.5 1.5 0 1 0-2-2.2l-8.6 8a1.5 1.5 0 0 0 0 2 1.5 1.5 0 0 0 1 .6zM31.5 133.8a1.5 1.5 0 0 0-2.5 1.6l6.5 9.7a1.5 1.5 0 0 0 1.2.7 1.5 1.5 0 0 0 .9-.3 1.5 1.5 0 0 0 .4-2zM41 125.7a1.5 1.5 0 1 0 2.7 1.6l5.9-10a1.5 1.5 0 0 0-2.6-1.6zM6.7 98.5l9.4 6.7a1.5 1.5 0 0 0 1 .3 1.5 1.5 0 0 0 1.1-.6 1.5 1.5 0 0 0-.3-2.1L8.4 96a1.5 1.5 0 1 0-1.7 2.4zM48.4 143.6a1.5 1.5 0 0 0 2.5 1.6l6.1-10a1.5 1.5 0 0 0-.5-2 1.5 1.5 0 0 0-2 .5zM52.5 154.1l-10 6a1.5 1.5 0 0 0-.5 2.1 1.5 1.5 0 0 0 1.3.8 1.5 1.5 0 0 0 .8-.3l9.9-6a1.5 1.5 0 0 0 .5-2.1 1.5 1.5 0 0 0-2-.5z" fill="#1e0f00"/><path d="m-93.7 107.2 17.6 9.3 280.7 147.7 1.3.7 22.9-43.5 11.5-21.9L-59.3 42zm55.9-50.6-6.7 9.4a1.5 1.5 0 0 0 .3 2.1 1.5 1.5 0 0 0 .9.3 1.5 1.5 0 0 0 1.2-.7l6.8-9.4.1-.3L-6 73.3l.4.7a1.5 1.5 0 0 0 1.3.7 1.6 1.6 0 0 0 .7-.1l37.3 19.6 3.5 4.8a1.5 1.5 0 0 0 1.2.7 1.6 1.6 0 0 0 .9-.3 1.5 1.5 0 0 0 .4-2l11.5 6 .1 6.4a1.5 1.5 0 0 0 1.5 1.5 1.5 1.5 0 0 0 1.5-1.6l-.1-4.7 15 7.9-10 4.4a1.5 1.5 0 0 0 .6 2.9 1.5 1.5 0 0 0 .6-.2l10.6-4.6a1.5 1.5 0 0 0 .9-1l65.2 34.3-2.5 2.2a1.5 1.5 0 0 0 1 2.6 1.5 1.5 0 0 0 1-.4l3.4-2.9 12.5 6.6-1.6 2.7a1.5 1.5 0 0 0 .5 2 1.4 1.4 0 0 0 .8.3 1.5 1.5 0 0 0 1.3-.8l1.7-2.8 45.8 24-6.4 6.7a1.5 1.5 0 0 0 2.2 2.1l7-7.3 25.9 13.7-.4 1.9a1.5 1.5 0 0 0 1 1.8 1.4 1.4 0 0 0 .4 0 1.5 1.5 0 0 0 1.5-1.2l.2-1.1 3.8 2-11.9 22.6-2.8-1.4a1.5 1.5 0 0 0-1.4 2.7l2.8 1.4-7.1 13.6-4.8-8.6a1.5 1.5 0 0 0-2-.6 1.5 1.5 0 0 0-.6 2l5.6 10.2v.1l-9.4 18-22.8-12a1.6 1.6 0 0 0-.1-.3 1.5 1.5 0 0 0-2-.8l-15.7-8.2-.1-6.3a1.5 1.5 0 0 0-1.6-1.5 1.5 1.5 0 0 0-1.4 1.5v4.7l-12-6.4-6.3-8.6a1.5 1.5 0 1 0-2.5 1.8l2.7 3.6-36.2-19a1.5 1.5 0 0 0 .2-1.8l-5.7-10.1a1.5 1.5 0 0 0-2.6 1.4l4.8 8.7-28.5-15a1.5 1.5 0 0 0-2.4-1.2l-28.2-14.9 2.3-2.7a1.5 1.5 0 1 0-2.3-2l-2.7 3.3-10-5.2a1.5 1.5 0 0 0 .2-1l-1.4-11.5a1.5 1.5 0 1 0-3 .4l1.3 10.5-56.4-29.7-2-3.6a1.5 1.5 0 0 0-2-.5 1.5 1.5 0 0 0-.8 1.6l-8.4-4.4.3-1.3a1.5 1.5 0 0 0-1.2-1.8 1.5 1.5 0 0 0-1.8 1.2v.5l-13-6.8.9-.5a1.5 1.5 0 0 0 .4-2 1.5 1.5 0 0 0-2-.5l-2.3 1.4-27.2-14.3a1.5 1.5 0 0 0-.2-.7 1.5 1.5 0 0 0-2-.5l-.5-.3 14.1-27 1.2-1a1.5 1.5 0 0 0 .4-1.8L-60.7 51l11 3.9a1.5 1.5 0 0 0 .5 0 1.5 1.5 0 0 0 1.4-1 1.5 1.5 0 0 0-.9-1.8l-10.6-3.8 1.2-2.3z" fill="#1e0f00"/><path d="m312.7 115.1 81.9-25.6-18-8.4-61.6 19.3-18.2-61.6-6 2.1zM343.9 46.3l10.5-28-1.5.6-10.1 27z" fill="#381c00"/><path d="m317 96.6 76.7-24L339 47.4l16.2-43.1-59.3 21z" fill="#2ed3cb"/><path d="m376.5 81.1 25.5-8L344 46.3l-1.1-.5 10-27 7.4-19.5-68 24 4.6 15.5 18.2 61.6zM355.1 4.2 339 47.4l54.7 25.2-76.6 24-21.2-71.3z" fill="#1e0f00"/><path d="m660.6 136.4 1 2.2a1.4 1.4 0 0 1 .7-.5z" fill="#2ed3cb"/><path d="M915-12c-.1-2.6-1.2-4.4-2.8-5.3a24.1 24.1 0 0 0-7 .7c-4.7 2.5-8 7.7-11 11.8l-14 19.3-14 19.3c-3.3 4.6-6.6 9.3-10.9 13a29.4 29.4 0 0 1-11 6.2 6.7 6.7 0 0 1-4.5 1.5 4 4 0 0 1-1.7-.6 17.1 17.1 0 0 1-13.6-6.9 22 22 0 0 1-3-5.1 24.1 24.1 0 0 0 4.2 20.5c8.4 10.5 21.7 7.7 30.8-.2 4.2-3.7 7.5-8.5 10.8-13l14-19.3 14-19.3c3.3-4.4 6.8-10.2 12-12.4a7.7 7.7 0 0 1 4.7-.6c1.9-3 3.2-6.3 3-9.6zM705.6-31.4a39.7 39.7 0 0 0-17 2C676.2-22.8 668.3-6 663 5.6c-1.6 3.4-6.3 4.5-9.6 3l-2.2 4.9c-1.7 3.7-1 8 2.7 10.2 3.3 2 8.6 1 10.3-2.7 7.4-16.3 19.8-42.7 42.3-37.1a14.8 14.8 0 0 1 8.6 5.4 14.8 14.8 0 0 1 1.6 2.7c1.5-10.9-.2-20.6-11.2-23.4zM769 41.1c-6.4 10-14.2 19.5-26.1 22.8l-.6.1a11.2 11.2 0 0 1-8.8.7A26.2 26.2 0 0 1 715 54a33.8 33.8 0 0 1-5.4-11.4c-.8 9.4.8 19 6.6 26.8a25.8 25.8 0 0 0 27.9 10c11.9-3.4 19.7-13 26.1-22.9 7.1-11 14-22.3 21-33.5L828-35.7h-10.8L790 7.6c-7 11.2-13.8 22.5-21 33.5zM912.2 14.8l-3.4 4.8c-5.5 8 7.6 15.4 13 7.5 6.7-9.7 12.5-21.1 7.4-32.9-1.4 6.2-4.9 12.1-8.6 17.5a7.6 7.6 0 0 1-8.4 3z" fill="#381c00"/><path d="M852.6 7.9 871.3-31l2.3-4.6H865L851.5-7.5 841.7 13c-2.5 5.1-5.7 10.4-6.9 16.1-.6 3-.7 8.7 3 9.9 1.4-3.7 3.4-7.2 5-10.7zM724.8 41.5a69.8 69.8 0 0 1 1.7-7.9c3.7-13.5 8.8-26.8 5.7-41l-.4-1.8c-.9 9.3-4 18.3-6.5 27.5-1.9 7-3.5 16-.5 23.2z" fill="#381c00"/><path d="M650.1-1.9c-1.7 3.7-1 8 2.8 10.3a5.8 5.8 0 0 0 .6.3c3.3 1.4 8 .3 9.6-3 5.3-11.7 13.2-28.6 25.4-35a22.8 22.8 0 0 1 17-2C716.7-28.6 718.4-19 716.9-8c-1.6 11.6-6.9 24.6-8 32a45.9 45.9 0 0 0 .8 18.7A33.8 33.8 0 0 0 715 54a26.2 26.2 0 0 0 18.5 10.7 25.7 25.7 0 0 0 8.8-.7l.6-.1C754.8 60.6 762.6 51 769 41c7.2-11 14-22.3 21-33.5l27.2-43.3h-17.7l-.7 1.1-23.3 37.3C768 14.5 761.2 26.9 753 38c-5 7-16 17-24.4 8.8a16.4 16.4 0 0 1-3.8-5.4c-3-7.1-1.4-16.1.5-23.2C727.8 9 731 0 731.8-9.2a45 45 0 0 0-.7-13.5 31.4 31.4 0 0 0-6.1-13h-53.2c-10 9-16.1 21.7-21.7 33.8zM834.8 29c1.2-5.7 4.4-11 6.9-16.1l9.7-20.4L865-35.7h-16.6L841-20.3c-5.8 12-11.9 24-17.3 36.2-3.7 8.3-5.8 17.7-2.3 26a22 22 0 0 0 3 5.1 17.1 17.1 0 0 0 13.7 6.8 21.4 21.4 0 0 0 6.2-.8 29.4 29.4 0 0 0 11-6.2c4.3-3.7 7.6-8.4 10.9-13l14-19.3 14-19.3c3-4.1 6.3-9.3 11-11.8l1-.6a7 7 0 0 1 6-.1c1.6.8 2.7 2.6 2.8 5.3.2 3.3-1.1 6.6-3 9.6-1.3 2.4-3 4.6-4.4 6.6-3.3 4.8.1 9.4 4.5 10.6a7.6 7.6 0 0 0 8.5-3.1 53.5 53.5 0 0 0 8.6-17.5 23.9 23.9 0 0 0-1.3-15.6c-5-11.3-18-13.8-28.5-9-11.8 5.3-19 19.3-26.4 29.4-8 11-15.5 23-24.5 33.4-2.1 2.4-6.2 7.2-10 6.8a4.5 4.5 0 0 1-.8-.3c-3.6-1.2-3.5-6.9-2.9-9.9z" fill="#fe89e2"/><path d="M56.3 3.3a25.7 25.7 0 0 0 4.7 7.5 25.5 25.5 0 0 0 17.9 8.4c9.7.6 18.6-3.9 26-9.7 3.6-2.8 7-6.4 10.7-9.5H55.2a29.5 29.5 0 0 0 1.1 3.3zM135.8 7.7c.3 7.1.9 14 5 20.5a36.1 36.1 0 0 0 2.3 3.2c12.6 15.4 37 17.3 50.7 2l1.4-1.6c3.4-4.3 4.2-10 0-14.2-3.4-3.4-10.7-4.2-14.1 0-3.6 4.6-8.7 7.6-14.6 6.4a13.7 13.7 0 0 1-9.7-8.2 15.4 15.4 0 0 1-1-3.9c-.3-1.5-.4-3.1-.5-4.7l-.2-7.2h-19.8v1c.3 2.2.3 4.4.5 6.7z" fill="#2ed3cb"/><circle cx="2687.4" cy="1203.6" fill="#fd78ad" r="156.6"/></svg>