<svg viewBox="0 0 2674.6 1521.6" xmlns="http://www.w3.org/2000/svg"><path d="m2135.2 1546.4c0 1.2-.1 2.3-.2 3.4l48-15.9-53.6-47.7c2.3 8.5 4.6 17.1 6.8 25.7 3 11.5 4.7 23.7-1 34.5z" fill="#2ed3cb"/><path d="m2021.2 1587.7c-.4-.6-.8-1.3-1.1-2-5.3-12.9-10.7-26.6-9.9-40.8.3-5.3 1.6-10.6 3.7-15.5 0-.1 0-.2 0-.3.7-12.1 6.1-23.7 15.9-31.1 9.9-7.4 23.3-8.1 33.8-1.6 12.5 7.4 18.8 20.2 26.2 32.1 5 8 12.5 17.7 23.2 17.1 2.7-.1 5.3-1.2 7.2-3.2-.1-1.6-.3-3.2-.6-4.8-2.7-13.7-7.1-27.2-10.7-40.6-3.4-12.7-6.8-25.4-10.2-38.1l-173.1-154-68.8 333.5h11.5z" fill="#2ed3cb"/><path d="m2521.9 1521.6-27-12.9 16.3-34.1 97.7 47h6.9l-104.1-50.1-10.2-23 152.2 73.1h6.9l-162.9-78.2-18 37.7 3.8 9.4-4.5 9.3 8.9 21.9zm-23.5-72.6 10.5 23.6-15.9 33.1-10-24.6z" fill="#1e0f00"/><path d="m2439.2 995.7.2-.1c1-.5-.1-.4-.2.1z" fill="#381c00"/><path d="m2184 1447.7c-1.4-13.6-5.1-27.2-7.8-40.6-1.7-8.7-4.9-18.8-5.1-28.4-.9 1.6-1.6 3.2-2.2 4.9-4.1 12.3 1.2 27.2 3.6 39.3 2.4 12.4 5.8 25 7.4 37.6.8-.1 1.6-.4 2.3-.9 2.9-2.4 2.1-8.6 1.8-11.9z" fill="#381c00"/><path d="m2203.6 1385.3c-1.1-4.8-2-11-5.4-15-1-.6-2.1-1-3.2-1.4-1.6-.5-3.3-.9-5-1-1.4 1-2.4 2.3-2.9 3.9-1.3 3.6-.9 7.7-.2 11.6 1.8-.9 4.1-.5 6.3 1.3 4.6 3.8 5.6 11 6.9 16.5 2.1 9.4 16.4 5 14.3-4.4-.5-2.2-1.1-4.5-1.7-6.7-3.8 1.2-8.1 0-9.1-4.8z" fill="#381c00"/><path d="m2178.6 1475.4-.1.1c-2.9 2.4-6.5-.2-8.8-2.6-6.9-3.7-11.5-10.8-14.7-18.1-5.3-12.2-9.8-24.9-14.7-37.3l-15.1-38.3-7.5-19.2c-1.7-4.4-3.4-9.1-6.4-12.8-2.6-1.4-5.5-2.3-8.5-2.5-3.4 1.8-6 6.4-6.4 10.6-.2 2.4-.1 4.8.2 7.2 2.9-3.1 7-4.1 10.8.3 3.1 3.7 4.8 8.6 6.6 13 2.5 6.4 5 12.8 7.5 19.2l15.1 38.3c4.9 12.4 9.4 25 14.7 37.3 4.4 10.2 11.4 19.8 23.4 20.7 13.4 1 20.4-10.7 20.8-22.7 0-.8 0-1.5 0-2.3-3.4 5.7-9.1 9.6-16.9 9.1z" fill="#381c00"/><path d="m2119.5 1537.5c.3 1.6.5 3.2.6 4.8 4.5-5 4.3-14.4 3.1-20.6-2.7-13.7-7.1-27.2-10.7-40.6-3.8-14.1-7.6-28.3-11.4-42.5l-11.1-41.5c-3.3-12.4-8.6-25.9-8.7-39-2.4 4.7-3.7 9.9-3.7 15.2-.2 13.2 5.3 27 8.7 39.6l11.1 41.5 1.2 4.4c3.4 12.7 6.8 25.4 10.2 38.1 3.6 13.5 8 27 10.7 40.6z" fill="#381c00"/><path d="m2287.2 1440.8-21.6-12.8c-3 3.2-5.6 6.7-7.9 10.3l20.9 12.3c2.3-3.7 5.2-7 8.6-9.8z"/><path d="m2381 1496.2-21.4-12.7.8-1.3c11.6-19.6 5.1-45-14.5-56.6-6.4-3.8-13.6-5.8-21-5.8-13.9 0-26.8 6.9-34.5 18.5 14.3-10.1 33.2-10.9 48.2-2 20.6 12.2 27.8 38.5 16.3 59.5l20.9 12.4c2-3.8 3.8-7.8 5.2-12z"/><path d="m2350.8 1496.9 26 15.4.8-1.3c2.5-4.2 4.5-8.6 6.1-13.2l2 1.2.8-1.3c20.1-34 8.9-77.9-25.1-98.1-11-6.5-23.6-10-36.4-10-25.3 0-48.8 13.4-61.8 35.1l-.8 1.3.6.3c-3.3 3.6-6.2 7.5-8.6 11.7l-.8 1.3 26 15.4.8-1.3c11.6-19.7 37-26.2 56.7-14.6 19.6 11.6 26.2 37 14.5 56.7zm8.1-33.4c-5-19.6-22.7-33.3-42.9-33.3-9.2 0-18.2 2.9-25.7 8.2 12.2-18.3 36.6-23.9 55.5-12.7 19.6 11.6 26.2 37 14.5 56.7l-.8 1.3 21.4 12.7c-1.4 4.1-3.2 8.1-5.3 11.9l-20.9-12.4c5.6-10 7-21.5 4.2-32.4zm-101.3-25.2c2.3-3.7 4.9-7.2 7.9-10.3l21.6 12.8c-3.4 2.8-6.3 6.2-8.7 9.9zm102.1-36.1c32.1 19 43.1 60.2 24.9 92.7l-20.9-12.4c11.8-21.5 3.9-48.4-17.6-60.2-6.5-3.6-13.8-5.4-21.3-5.5-15.2 0-29.3 7.7-37.5 20.5l-20.9-12.4c19.8-31.6 61.2-41.7 93.3-22.7z" fill="#381c00"/><path d="m2653.6 1044.3-.9-.8c.2.7.5.8.9.8z" fill="#fcfcfc"/><path d="m2266.5 1425 20.9 12.3c12.9-20.1 39.4-26.5 60-14.3s27.8 38.5 16.3 59.5l20.9 12.4c18.6-33 6.9-74.8-26.1-93.4-10.2-5.8-21.8-8.8-33.6-8.8-23.8 0-45.8 12.2-58.4 32.3z" fill="#ffe552"/><path d="m2495 1508.6 26.9 13h87.1l-97.7-47z" fill="#2ed3cb"/><path d="m2511.8 1471.5 104.1 50.1h37.8l-152.2-73.1z" fill="#f07e67"/><path d="m2493.1 1505.6 15.8-33-10.5-23.6-15.4 32.1z" fill="#ffe552"/><path d="m2101.1 1438.6c3.8 14.2 7.6 28.3 11.4 42.5 3.6 13.4 8 26.9 10.7 40.6 1.2 6.2 1.5 15.7-3.1 20.6-1.9 2-4.4 3.2-7.2 3.2-10.6.6-18.2-9.1-23.2-17.1-7.4-11.9-13.7-24.7-26.2-32.1-10.5-6.5-23.9-5.8-33.8 1.6-9.7 7.4-15.2 19-15.9 31.1v.3c-.7 14.1 4.6 27.6 9.9 40.4 1.4 3.4 4.5 5.7 8.1 5.2.4 0 .9-.1 1.3-.3 3.6-1.1 6.5-5.6 5-9.4-3.8-9.2-8.9-21.7-9.3-33.1-.3-9.1 2.3-17.5 11-23.1.8-.5 1.6-1 2.5-1.4 7.2-3.3 13.6-.3 19.2 5.3 9 9 16 24.6 21.2 31.2 3.3 4.2 7.3 7.9 11.9 10.8 3.4 2.1 7.1 3.7 11 4.5 1.1.3 2.3.4 3.4.6 1.5.2 3 .2 4.4.1 9.2-.3 17.6-5.6 21.8-13.8 0 0 .1-.1.1-.2 5.6-10.9 4-23.1 1-34.5-2.2-8.6-4.5-17.1-6.8-25.7-1.1-4.2-2.3-8.4-3.4-12.6-7.2-27-14.5-54.1-21.7-81.1-1.7-6.4-3.5-12.9-5.2-19.3-1.1-3.6-1.9-7.2-2.5-10.9-.4-2.4-.5-4.8-.2-7.2.4-4.2 3-8.8 6.4-10.6 2.5-1.3 5.5-1.1 8.3 2.2l.2.2c3 3.7 4.7 8.4 6.4 12.8l7.5 19.2 15.1 38.3c4.9 12.4 9.4 25 14.7 37.3 3.2 7.4 7.8 14.5 14.7 18.1 2.7 1.4 5.6 2.3 8.7 2.5h.2c7.9.5 13.5-3.4 16.9-9.1 2.3-4.1 3.6-8.8 3.7-13.6.2-5.7-1.1-11.3-2.1-16.8-1.5-7.8-3.1-15.6-4.6-23.4l-4.6-23.5c-.3-1.8-.8-3.7-1.1-5.6-.7-3.9-1.1-8 .2-11.6.5-1.6 1.5-3 2.9-3.9 1.9-1.2 4.4-1 6.8 1 .5.4 1 .9 1.4 1.4 3.4 4 4.4 10.2 5.4 15s5.3 6 8.9 4.8c4-1.1 6.4-5.2 5.4-9.2-2.6-11.6-7-23.7-19.3-27.9-11.7-4-22.4 3.8-26 14.8-1.1 3.6-1.6 7.3-1.5 11 .2 9.6 3.4 19.7 5.1 28.4 2.6 13.4 6.4 27 7.8 40.6.3 3.2 1.1 9.5-1.8 11.9-.6.6-1.4.9-2.3.9-3 .2-6.2-2.9-7.7-5-3.4-4.7-5.1-10.7-7.2-16-2.8-7-5.5-14-8.3-21l-15.9-40.2c-4.7-12-8.5-25.5-15.2-36.6-5.8-9.6-16.5-16-27.7-11.5s-16.6 15.9-16.7 27.3v.6c0 13 5.3 26.6 8.7 39z" fill="#9496ff"/><path d="m42 1319.6c1-1.9 2.1-3.6 3.3-5.3-2.3 1.2-4.7 2.3-7 3.5l-23.5 11.4c7.5 2.6 15.3 4.6 23.1 5.9.2-5.4 1.6-10.7 4.1-15.5z" fill="#fd78ad"/><path d="m93.5 1276.4c3.4 4.9 3.2 9.8 1.1 14.3 4.9 9.4-3 18.9-10.4 24.6-8.2 6.3-18.1 10.8-25.2 18.4-.9 1-1.8 2.1-2.5 3.2 42.8 1.5 83.8-17.4 110.6-50.9 66.3-82 18.9-205-85.3-221.4-26.7-4.4-54.2-.6-78.8 10.8l7 6.2-9.4 10.4 20.8 18.6-1.5 1.6-19.9 22.4v107.2c5.9 1.6 9.1 10.2 2.3 13.5 4.3 2.8 5.9 9.7 0 12.5-.8.4-1.5.8-2.3 1.2v38.2c22.6-11 45.1-22.5 68-33 8.1-3.7 19.4-6.5 25.5 2.2z" fill="#fd78ad"/><path d="m44.1 1352.8c-2.7-3.2-4.6-7.1-5.5-11.2-1.7 8.2-.3 16.6 5.5 23.7 2.6 3.2 7.9 2.6 10.6 0 3.1-3.1 2.5-7.5 0-10.6-.3-.4-.6-.8-.8-1.2-2.9 2-7.4 2.2-9.8-.7z" fill="#381c00"/><path d="m59 1333.8c7.1-7.7 16.9-12.2 25.2-18.4 7.4-5.7 15.4-15.1 10.4-24.6-2.2 4.7-6.4 9-10.4 12-8.2 6.3-18.1 10.8-25.2 18.4-4.3 4.7-8.9 14-4.9 20.2.7-1.5 1.5-3 2.4-4.3.7-1.3 1.6-2.3 2.5-3.3z" fill="#381c00"/><path d="m45.3 1314.3c6-8 15-13.4 23.3-18.9 2.4-1.6 4.9-3.2 7.2-5 1-.8 2-1.6 2.9-2.5.1-.1 1.1-1.6 1.7-2.3-1.6.6-3.4.9-5 1.5-12.6 5.4-24.9 12.1-37.2 18.1l-36.2 17.7-2 1v12.5l2-1 12.9-6.2 23.5-11.4c2.3-1.2 4.6-2.3 6.9-3.5z" fill="#381c00"/><path d="m2.2 1255.3c-.8.4-1.5.8-2.2 1.1v12.6c.8-.4 1.5-.8 2.3-1.2 5.8-2.8 4.3-9.6-.1-12.5z" fill="#381c00"/><path d="m21.4 1110.7-20.8-18.6 9.3-10.3-6.9-6.3-3-2.6v4l2 1.8 3.7 3.3-3.2 3.6-2.5 2.8v46.2l19.9-22.3z" fill="#381c00"/><path d="m5.7 1082-3.7-3.3c-.2.2-.3.3-.5.4-.5.2-1 .4-1.5.3v7.3c.8-.5 1.6-.8 2.5-1.2z" fill="#fcfcfc"/><path d="m0 1086.7v1.7l2.5-2.8c-.9.3-1.7.7-2.5 1.1z" fill="#283245"/><path d="m1.5 1079.1c.2-.1.4-.3.5-.4l-2-1.8v2.5c.5.1 1-.1 1.5-.3z" fill="#283245"/><path d="m2.3 1255.3c6.8-3.3 3.6-12-2.3-13.5v14.7c.7-.4 1.5-.8 2.3-1.2z" fill="#2ed3cb"/><path d="m59 1321.2c7.1-7.6 16.9-12.2 25.2-18.4 4.1-3.1 8.3-7.3 10.4-12 2.1-4.5 2.3-9.4-1.1-14.3-6.1-8.7-17.5-5.9-25.6-2.2-22.9 10.5-45.3 22-67.9 33v16.7l2-1 36.3-17.7c12.4-6 24.6-12.7 37.2-18.1 1.6-.7 3.4-.9 5-1.5-.6.7-1.6 2.2-1.7 2.3-.9.9-1.9 1.7-2.9 2.5-2.3 1.8-4.8 3.4-7.2 5-8.3 5.4-17.2 10.9-23.3 18.9-4.6 6-7.1 13.3-7.4 20.8 0 2.2.2 4.4.7 6.5.9 4.1 2.8 7.9 5.5 11.2 2.3 2.8 6.9 2.7 9.8.7.3-.2.6-.4.8-.7 3.1-3.1 2.5-7.5 0-10.6-.2-.3-.4-.5-.6-.8-4.1-6.3.5-15.6 4.8-20.3z" fill="#2ed3cb"/><path d="m2316.6-17.8 7.1 5.7-34.7 43.7-47.3-11.1-30.3 38-11-2.6c1.2 5.6 2.8 11.2 4.9 16.5 28.3 73.4 125.4 88.7 174.8 27.5 32.2-39.9 28.4-92.7.4-128h-70.2l9 7.2z" fill="#ef9da3"/><path d="m2508.5 515.4h-.2c-5.7-1.5-11.7-.8-16.9 2 5.5-1.9 11.3-2.6 17.1-2z" fill="#ffe552"/><path d="m2694.4 99.6v-22.4l-152.7-73.2h-33.8l3 7.5z" fill="#1e0f00"/><path d="m2566.7 224c-2.7 2.7-7 3.1-10.1.9-1.2 1.3-2 2-2 2-3.1 3.2-3 8.2.2 11.3 3.1 3 7.9 3 11 .1 6.9-6.9 13.4-14.3 19.5-22 8-10.4 17.4-24.6 13.4-35-2.7 7.2-7.9 14.6-12.6 20.6-5.9 7.8-12.4 15.1-19.4 22.1z" fill="#381c00"/><path d="m2495.4 157.5c-5.7 6.6-14.6 16.9-17.8 22.7 3.6-.1 7.3-.5 10.8-1.2 2.2-2.6 4.3-5 6.1-7.1 7-8.1 14.3-16.5 19.1-24 2.3-3.6 8.9-13.7 5.2-22.4-1.2 2.8-2.7 5.5-4.4 8-4.7 7.5-12 15.9-19 24z" fill="#381c00"/><path d="m2424.9 139.8c1.8 4 6.5 5.9 10.5 4.1 12.6-5.2 25.6-9.1 38.8-11.9 11-2.2 18.5-2.6 23.3-2.1.6-.7 1.1-1.5 1.6-2.2 4.4-6.2 5.4-9.2 5.6-10.4-2.6-1.9-11.1-3.5-29.6.2-13.3 2.8-26.3 6.8-38.8 12-2.3 1-5 .9-7.1-.4h-.1c-4.1 1.9-6 6.6-4.2 10.7z" fill="#381c00"/><path d="m2533.1 184.7c-42.1 11.2-60 15.1-68.4 7.8-1.2-1-2.2-2.2-2.9-3.6-3.5 7.7-2.9 13.7 2 17.9 8.3 7.2 26.3 3.4 68.4-7.8 13.7-3.6 32.4-8.6 43.9-10.3 6-8.2 7.8-12.8 8.2-14.9-8.5-.5-33.9 6.3-51.2 10.9z" fill="#381c00"/><path d="m2210.2 55.1 30.3-38 47.3 11.1 31.7-39.8-4.7-3.8-30.4 38.1-47.3-11.1-30.3 38-47.4-11.1-30.3 38.1-45.1-10.6-1 4.4 49.5 11.7 30.3-38.1z"/><path d="m2654.9 196.8c0 15.4 12.4 27.8 27.8 27.8 4.1 0 8.1-.9 11.7-2.6v-19.2c-3.4 6.4-11.3 8.9-17.8 5.6-6.4-3.4-8.9-11.3-5.6-17.8s11.3-8.9 17.8-5.6c2.4 1.2 4.3 3.2 5.6 5.6v-19.2c-13.9-6.5-30.5-.4-36.9 13.6-1.7 3.8-2.6 7.8-2.6 11.8z" fill="#ffe552"/><path d="m2651.9 196.8c0 17 13.8 30.8 30.8 30.8 4 0 8-.8 11.7-2.3v-3.3c-14 6.5-30.5.4-36.9-13.6-6.5-14-.4-30.5 13.6-36.9 7.4-3.4 16-3.4 23.4 0v-3.3c-15.8-6.5-33.8 1.1-40.2 16.8-1.6 3.8-2.4 7.8-2.4 11.8z" fill="#381c00"/><path d="m2682.8 183.6c-7.3 0-13.2 5.9-13.2 13.2s5.9 13.2 13.2 13.2c4.9 0 9.4-2.7 11.7-7.1v-12.2c-2.3-4.3-6.8-7.1-11.7-7.1zm0 23.4c-5.6 0-10.2-4.6-10.2-10.2s4.6-10.2 10.2-10.2 10.2 4.6 10.2 10.2c-.1 5.6-4.6 10.2-10.2 10.2z" fill="#381c00"/><path d="m2231.2-5.2-30.3 38.1-47.3-11.1-30.3 38-42.2-9.9-2.7 11.7 49.6 11.6 30.3-38 47.3 11.1 30.3-38 47.3 11.1 31.8-39.9-9.4-7.4-27 33.8z" fill="#85e8f8"/><path d="m2230.1-8.5-30.3 38-1.4-.3-46-10.8-30.3 38-43.2-10.1-4.1 17.5 6.3 1.5-1.7 7.4 54.4 12.8 30.3-38 36.3 8.5 11 2.6 30.3-38 47.4 11.1 34.8-43.6-7.1-5.7 2.5-3.2-9-7.2h-8.2l-24.5 30.7zm-147.1 78.9 1.1-4.4 45.1 10.6 30.3-38 47.3 11.1 30.3-38 47.3 11.1 30.4-38.1 4.8 3.8-31.8 39.8-47.3-11.1-30.3 38-47.4-11.2-30.3 38zm232-90.9-31.7 39.8-47.4-11.1-30.3 38-47.3-11-30.3 38-49.6-11.7 2.8-11.7 42.2 9.9 30.3-38 47.4 11.1 30.3-38 47.2 11.2 27-33.9z" fill="#381c00"/><path d="m2654.5 335.9-43.7 21.3-38-30.4-39.9 19.5-.7-1.4-.7.4 5.2 10.8 38.9-19 38 30.4 43.7-21.4 37.1 29.7v-10.5l-2 .9z"/><path d="m2656.4 318.2-43.6 21.4-38-30.4-45.8 22.3 5.3 10.8 38.9-19 38 30.4 43.7-21.3 37.9 30.3 1.6-.7v-13.4z" fill="#85e8f8"/><path d="m2575.2 305.7-50.2 24.4 5.9 12.1-3.5 1.7 7.9 16.2 40-19.5 37.9 30.4 43.7-21.3 37.5 29.9v-3.8l-37.1-29.7-43.7 21.4-38-30.4-38.9 19-5.2-10.8.7-.4.7 1.4 39.9-19.5 38 30.4 43.7-21.3 37.9 30.3 2-.9v-3.3l-1.6.7-37.9-30.3-43.7 21.3-38-30.4-38.9 19-5.3-10.8 45.8-22.3 38 30.4 43.6-21.4 38 30.4v-3.8l-37.6-30.1-43.7 21.3z" fill="#381c00"/><path d="m2694.4 35.5-65.6-31.5h-87.1l152.7 73.2z" fill="#2ed3cb"/><path d="m2694.4 14-20.8-10h-37.9l58.7 28.2z" fill="#f07e67"/><path d="m2694.4 10.6-13.9-6.6h-6.9l20.8 10z" fill="#1e0f00"/><path d="m2694.4 32.2-58.7-28.2h-6.9l65.6 31.5z" fill="#1e0f00"/><path d="m2601.1 959.9 93.3-105.4v-21.8l-91.8 103.8-25 3.4 116.8-131.8v-4.5l-120.8 136.2-28.1-24.8 141.8-160.4 7.1 6.3v-4l-3.7-3.3 3.7-.4v-3l-7.9.9-144.3 163-1 1.1 8.6 7.6-10.5 11.9-1 1.1 32 28.4z" fill="#1e0f00"/><path d="m2545.5 915 28.1 24.8 120.8-136.2v-42.7l-7.1-6.3z" fill="#ef9da3"/><path d="m2602.6 936.5 91.8-103.8v-24.6l-116.8 131.8z" fill="#ffe552"/><path d="m2436.3 129.6c12.5-5.2 25.6-9.2 38.8-12 18.5-3.8 27-2.1 29.6-.2-.2 1.2-1.2 4.2-5.6 10.4-.5.7-1 1.4-1.6 2.2-4.1 5.4-9.2 11.4-14.2 17.2-6.7 7.8-13.1 15.1-17.3 21.6-5.5 8.4-6.9 15.1-4.1 20.2.7 1.4 1.7 2.6 2.9 3.6 8.3 7.2 26.3 3.4 68.4-7.8 17.3-4.6 42.7-11.4 51.3-10.9-.5 2.1-2.2 6.6-8.2 14.9-1.4 1.9-2.9 3.9-4.8 6.2-7.7 9.6-15.8 17.6-15.9 17.7-3.1 3.1-3.2 8.2-.1 11.3.4.4.8.7 1.2 1 3.2 2.1 7.4 1.8 10.1-.9 6.9-6.9 13.4-14.3 19.5-22 4.7-6.1 9.9-13.5 12.6-20.6s2.9-13.9-2.2-19.1c-7.8-7.9-24.7-4.4-67.6 7.1-12.4 3.3-25.2 6.7-35.5 8.8-1.8.4-3.4.7-4.9.9-3.6.7-7.2 1.1-10.8 1.2 3.2-5.8 12.1-16.1 17.8-22.7 7-8.1 14.2-16.5 19.1-24 1.7-2.5 3.2-5.2 4.4-8 2.2-5.5 3.4-12.4-1.4-18-7.2-8.4-22.1-10.2-45.5-5.5-14.4 3-28.5 7.4-42.1 13-4.1 1.8-5.9 6.5-4.1 10.5 1.8 4.1 6.5 5.9 10.5 4.1z" fill="#e05d43"/><path d="m2510.7 826.7 57.6-20.6 22.3-68.6-7-2.1 7.4-22.6-136.7-40.8 12.4 28.5-12.7-3.9zm-37.3-120.8c.3 0 .5-.1.8-.2.3-.2.5-.4.6-.7l3.1-8 45.7 43.8-.6 5.2c-.1.8.5 1.6 1.3 1.7.3 0 .7 0 .9-.2.4-.2.7-.6.7-1.1l.4-3 23.2 22.3c-.1.7.4 1.3 1.1 1.5.2.1.4.1.6 0l11.3 10.8c-.2.4-.2.9.1 1.4l1-.3-50.3 17.9-17.6-40.5.4-.1c.2 0 .3-.1.5-.2.7-.4.9-1.4.5-2.1-.3-.5-.9-.8-1.6-.7l-1.1.2-16.1-36.8 11 .8c.3 0 .6 0 .9-.2.7-.4.9-1.3.5-2.1-.3-.4-.7-.7-1.2-.7l-11.6-.9c-.3 0-.6 0-.9.2zm-9-20.5-1-2.2 1.7 1.6c-.2.1-.5.3-.7.6zm106.4 76.7-3.8-.3c-.8-.1-1.6.6-1.6 1.4s.6 1.6 1.4 1.6l3.1.2-3.7 11.4-13.1-12.6 2.5-8.8c.2-.8-.2-1.6-1-1.9-.8-.2-1.6.2-1.8 1l-2.1 7.2-23.8-22.9.4-3.7c.1-.8-.5-1.6-1.3-1.7s-1.6.5-1.7 1.3l-.2 1.5-22-21.1v-.1l2.6-11.4c.2-.8-.3-1.6-1.1-1.8s-1.6.3-1.8 1.1l-2.2 9.7-34.5-33.2 45.2 13.5c.1.1.2.3.3.4l8.6 7.8c.5.4 1.2.5 1.8.2.1-.1.2-.2.3-.3.6-.6.5-1.6-.1-2.1l-4.5-4 15.6 4.7 1.9 5.7c.2.8 1.1 1.2 1.9 1 .1 0 .2-.1.3-.2.6-.4.9-1.1.6-1.8l-1.2-3.7 41.2 12.2c-.1.7.2 1.3.8 1.6.5.3 1 .3 1.5 0 .2-.1.4-.3.6-.6l.1-.1 6.1 1.8zm-103.9-75c.1-.1.2-.3.2-.4l8.4 8.1-3.3 8.5-6.4-14.6z" fill="#381c00"/><path d="m2586 715.5-6.1-1.8-.1.1c-.1.2-.3.4-.6.6-.5.3-1 .3-1.5 0-.6-.3-.9-1-.8-1.6l-41.2-12.3 1.2 3.7c.2.7-.1 1.4-.6 1.8-.1.1-.2.1-.3.2-.8.3-1.6-.2-1.9-1l-1.9-5.7-15.6-4.7 4.5 4c.6.6.7 1.5.1 2.1-.1.1-.2.2-.3.3-.6.3-1.3.3-1.8-.2l-8.6-7.8c-.1-.1-.2-.3-.3-.4l-45.2-13.4 34.6 33.2 2.2-9.7c.2-.8 1-1.3 1.8-1.1s1.3 1 1.1 1.8l-2.6 11.4v.1l22 21.1.2-1.5c.1-.8.9-1.4 1.7-1.3s1.4.9 1.3 1.7l-.4 3.7 23.8 22.9 2.1-7.2c.2-.8 1.1-1.2 1.9-1s1.2 1.1 1 1.8l-2.5 8.8 13.1 12.6 3.7-11.4-3.1-.2c-.8-.1-1.4-.8-1.4-1.6s.8-1.4 1.6-1.4l3.8.3zm-100.4-26.8c.4-.7 1.3-1 2-.6l10.2 5.6c.7.4 1 1.3.6 2-.1.2-.3.4-.5.6-.5.3-1 .3-1.5 0l-10.2-5.6c-.8-.4-1-1.3-.6-2zm77.5 27.3c.7-.5 1.6-.4 2.1.3l7.1 9.2c.5.6.4 1.6-.3 2.1l-.1.1c-.7.4-1.5.3-2-.4l-7.1-9.2c-.5-.7-.4-1.6.3-2.1zm-20.6.7 5.6-10.2c.4-.7 1.3-1 2-.6s1 1.3.6 2l-5.6 10.2c-.1.2-.3.4-.5.6-.5.3-1 .3-1.5 0-.7-.5-1-1.4-.6-2zm-19.7 6s-.1.1-.1.1c-.7.4-1.5.3-2-.4l-7.1-9.2c-.5-.7-.4-1.6.3-2.1s1.6-.4 2.1.3l7.1 9.2c.5.6.4 1.5-.3 2.1zm22.8 27c-.4.7-1.3.9-2 .5l-10.1-5.8c-.7-.4-1-1.3-.7-2 .4-.7 1.3-1 2-.7 0 0 .1 0 .1.1l10 5.8c.8.4 1.1 1.3.7 2.1 0-.1 0-.1 0 0zm27.6-2.7c-.5.7-1.4.8-2.1.3l-9.3-7.1c-.6-.5-.7-1.5-.2-2.1s1.4-.7 2-.3l9.3 7.1c.7.6.8 1.5.3 2.1zm-20.8-18c0 .6-.2 1.1-.7 1.4-.2.1-.4.2-.7.2l-11.6.9c-.8.1-1.6-.6-1.6-1.4s.6-1.6 1.4-1.6l11.6-.9c.9 0 1.6.6 1.6 1.4z" fill="#9496ff"/><path d="m2443.7 679.3.9 2.2c.2-.2.4-.4.7-.5z" fill="#2ed3cb"/><path d="m2477.8 714 11.6.9c.8.1 1.4.8 1.4 1.6 0 .5-.3.9-.7 1.2-.3.2-.6.2-.9.2l-11-.8 16.1 36.9 1.1-.2c.8-.2 1.6.4 1.8 1.2.1.6-.2 1.2-.7 1.6-.1.1-.3.2-.5.2l-.4.1 17.6 40.5 50.3-17.9-1 .3c-.2-.4-.3-.9-.1-1.4l-11.3-10.8c-.2 0-.4 0-.6 0-.7-.2-1.1-.8-1.1-1.5l-23.2-22.3-.4 3c0 .5-.3.9-.7 1.1-.3.2-.6.2-.9.2-.8-.1-1.4-.8-1.3-1.7l.6-5.2-45.7-43.9-3.1 8c-.1.3-.3.6-.6.7-.2.1-.5.2-.8.2l3.6 8.2c.3-.4.6-.4.9-.4zm15.8 28.5c-.1.1-.2.1-.3.1-.8.3-1.6-.1-1.9-.9l-3.9-11c-.3-.8.1-1.6.9-1.9s1.6.1 1.9.9l3.9 11c.3.7 0 1.4-.6 1.8zm25.6 31.4-6.7 9.5c-.1.2-.3.3-.4.4-.7.4-1.6.2-2.1-.5-.3-.5-.3-1.2.1-1.6l6.7-9.5c.5-.7 1.4-.8 2.1-.4s.7 1.4.3 2.1zm12 7-4.2 10.8c-.1.2-.3.5-.5.6l-.9.3c-.2 0-.4 0-.5-.1-.8-.3-1.2-1.2-.9-1.9l4.2-10.9c.3-.8 1.2-1.2 1.9-.9.8.4 1.2 1.3.9 2.1zm-22-17.2c0 .5-.3.9-.7 1.2-.3.2-.6.2-.9.2-.8-.1-1.4-.8-1.4-1.6l.9-11.6c.1-.8.8-1.4 1.6-1.4.8.1 1.4.8 1.4 1.6zm30.6 11.2 10.2 5.6c.7.4 1 1.3.6 2-.1.2-.3.4-.5.6-.5.3-1 .3-1.5 0l-10.2-5.6c-.7-.4-1-1.3-.7-2 .4-.7 1.3-1 2-.7.1 0 .1 0 .1.1zm-15.6-17 11.6-.9c.8-.1 1.5.6 1.6 1.4 0 .6-.2 1.1-.7 1.4-.2.1-.4.2-.7.2l-11.6.9c-.8.1-1.6-.6-1.6-1.4s.5-1.5 1.4-1.6zm-24.2-29.2c.4-.7 1.3-1 2-.6l10.1 5.8c.7.4 1 1.3.6 2s-1.3 1-2.1.6l-10.1-5.8c-.7-.4-.9-1.3-.5-2z" fill="#2ed3cb"/><path d="m2472.2 703.2 3.3-8.5-8.4-8.1c0 .1-.1.3-.2.4l-1.1 1.5z" fill="#2ed3cb"/><path d="m2573 744.9-9.3-7.1c-.7-.5-1.6-.3-2.1.4-.4.6-.3 1.5.3 2l9.3 7.1c.7.5 1.6.4 2.1-.3.5-.6.4-1.6-.3-2.1z" fill="#381c00"/><path d="m2545 747.6-10.1-5.8c-.7-.4-1.6-.2-2.1.5-.4.7-.2 1.6.5 2.1 0 0 .1 0 .1.1l10.1 5.8c.7.5 1.6.3 2.1-.4s.3-1.6-.4-2.1c-.1-.1-.1-.2-.2-.2z" fill="#381c00"/><path d="m2497.9 696.3c.2-.1.4-.3.5-.6.4-.7.1-1.6-.6-2l-10.2-5.6c-.7-.4-1.6-.1-2 .6s-.1 1.6.6 2l10.2 5.6c.4.3 1 .3 1.5 0z" fill="#381c00"/><path d="m2543.1 718.7c.5.3 1 .3 1.5 0 .2-.1.4-.3.5-.6l5.6-10.2c.4-.7.1-1.6-.6-2s-1.6-.1-2 .6l-5.6 10.2c-.3.7-.1 1.6.6 2z" fill="#381c00"/><path d="m2569.9 727.3c.5.6 1.3.8 2 .4l.1-.1c.7-.5.8-1.4.3-2.1l-7.1-9.2c-.5-.6-1.5-.7-2.1-.1-.6.5-.7 1.3-.3 2z" fill="#381c00"/><path d="m2523.1 720.5-7.1-9.2c-.5-.7-1.4-.8-2.1-.3s-.8 1.4-.3 2.1l7.1 9.2c.5.6 1.3.8 2 .4.1 0 .1-.1.1-.1.7-.5.8-1.4.3-2.1z" fill="#381c00"/><path d="m2550.8 727.7-11.6.9c-.8.1-1.4.8-1.4 1.6s.8 1.4 1.6 1.4l11.6-.9c.2 0 .5-.1.7-.2.5-.3.8-.8.7-1.4 0-.9-.7-1.5-1.6-1.4z" fill="#381c00"/><path d="m2524.4 760.9 11.6-.9c.2 0 .5-.1.7-.2.7-.4.9-1.4.5-2.1-.3-.5-.8-.7-1.4-.7l-11.6.9c-.8.1-1.4.8-1.4 1.6s.8 1.5 1.6 1.4z" fill="#381c00"/><path d="m2537.8 775.5c-.4.7-.1 1.6.6 2l10.2 5.6c.5.3 1 .3 1.5 0 .2-.1.4-.3.5-.6.4-.7.1-1.6-.6-2l-10.2-5.6c-.7-.4-1.6-.1-2 .6z" fill="#381c00"/><path d="m2530.4 778.9c-.8-.3-1.6.1-1.9.9l-4.2 10.9c-.3.8.1 1.6.9 1.9.2.1.4.1.5.1l.9-.3c.2-.2.4-.4.5-.6l4.2-10.9c.2-.8-.1-1.7-.9-2z" fill="#381c00"/><path d="m2518.8 771.8c-.7-.5-1.6-.3-2.1.4l-6.7 9.5c-.5.7-.3 1.6.4 2.1.5.3 1.1.4 1.6.1.2-.1.3-.3.4-.4l6.7-9.5c.5-.8.4-1.8-.3-2.2z" fill="#381c00"/><path d="m2508.7 750.4c-.8-.1-1.6.5-1.6 1.4l-.9 11.6c-.1.8.5 1.5 1.4 1.6.3 0 .6 0 .9-.2.4-.2.7-.7.7-1.2l.9-11.6c0-.8-.6-1.5-1.4-1.6z" fill="#381c00"/><path d="m2500.6 730.7 10.1 5.8c.7.4 1.6.2 2.1-.6.4-.7.2-1.6-.6-2l-10.1-5.8c-.7-.4-1.6-.2-2 .6-.5.7-.2 1.6.5 2z" fill="#381c00"/><path d="m2490.4 729.7c-.3-.8-1.1-1.2-1.9-.9s-1.2 1.1-.9 1.9l3.9 11c.3.8 1.1 1.2 1.9.9.1 0 .2-.1.3-.1.6-.4.9-1.1.6-1.8z" fill="#381c00"/><path d="m2527.7 588.3c.4-2.6 1-5.2 1.7-7.8 3.6-13.5 8.8-26.8 5.7-41-.1-.6-.3-1.2-.5-1.8-.8 9.3-4 18.3-6.4 27.5-1.9 7-3.6 16-.5 23.1z" fill="#381c00"/><path d="m2673 500.4-18.7 38.9c-3.3 6.8-6.5 13.6-9.8 20.3-2.5 5.2-5.7 10.5-6.8 16.2-.6 3-.7 8.7 2.9 9.9 1.5-3.7 3.4-7.2 5.1-10.7l9.8-20.3c6.2-13 12.4-26 18.7-38.9 5.6-11.7 12.9-23.6 16.4-36.1 1.8-5.8 1.6-12.1-.6-17.8-.2.8-.4 1.6-.6 2.5-3.5 12.4-10.8 24.4-16.4 36z" fill="#381c00"/><path d="m2671 449.3c-2.7-.1-5.5.2-8.1.9-1.2.5-2.3 1.1-3.3 1.9-4.9 3.7-8.2 9.3-11.4 14.4-3.6 5.6-7.1 11.3-10.6 16.9-14.9 23.7-29.7 47.4-44.6 71.1-7 11.2-13.9 22.4-21 33.5-6.4 10-14.2 19.5-26.1 22.8-.2.1-.4.1-.6.1-2.7 1.4-5.9 1.7-8.8.7-7.4-.8-14.1-4.7-18.5-10.7-2.5-3.4-4.3-7.3-5.4-11.4-.8 9.4.9 19 6.6 26.7 6.3 8.8 17.4 12.8 27.9 9.9 11.9-3.2 19.7-12.8 26.1-22.8 7.1-11.1 14-22.3 21-33.5 14.9-23.7 29.7-47.4 44.6-71.1 3.5-5.6 7.1-11.3 10.6-16.9 3.2-5.1 6.5-10.7 11.4-14.4 3.5-2.6 9-3.9 12.6-2.3 1.2-2.5 2-5.2 2.4-7.9.4-4.7-1.8-7.1-4.8-7.9z" fill="#381c00"/><path d="m2508.5 515.4c-5.7-.6-11.5.1-17 2-12.3 6.6-20.1 23.4-25.4 35-1.6 3.4-6.3 4.5-9.6 3.1-.8 1.6-1.5 3.2-2.2 4.8-1.7 3.7-1 8 2.8 10.2 3.2 1.9 8.6.9 10.2-2.8 7.4-16.2 19.8-42.7 42.3-37.1 3.4.7 6.5 2.6 8.6 5.4.6.8 1.1 1.7 1.6 2.7 1.4-10.7-.3-20.4-11.3-23.3z" fill="#381c00"/><path d="m2669 580.7c-3.3 4.6-6.6 9.3-10.9 13-3.2 2.8-6.9 4.9-11 6.1-1.3 1-2.9 1.6-4.5 1.5-.6-.1-1.2-.3-1.7-.6-5.4 0-10.4-2.6-13.6-6.8-1.2-1.6-2.3-3.3-3.1-5.1-1.4 7.1-.7 14.3 4.2 20.5 8.4 10.5 21.8 7.7 30.8-.2 4.3-3.7 7.5-8.5 10.9-13l14.1-19.3 10.2-14v-17c-3.8 5.2-7.6 10.4-11.4 15.6z" fill="#381c00"/><path d="m2476.1 509.9c-11 9.1-17.3 22.3-23.1 35-1.7 3.7-1 8 2.8 10.2.2.1.4.2.7.3 3.3 1.4 8 .3 9.6-3.1 5.3-11.6 13.2-28.5 25.4-35 5.2-2.8 11.2-3.5 16.9-2h.2c11.1 2.9 12.7 12.5 11.2 23.4-1.6 11.7-6.9 24.6-8 32-1 6.2-.7 12.6.8 18.7 1.1 4.1 2.9 7.9 5.4 11.4 4.4 6 11.1 9.9 18.5 10.7 2.9.3 5.9.1 8.8-.7.2 0 .4-.1.6-.1 11.9-3.2 19.7-12.8 26.1-22.8 7.1-11.1 14-22.3 21-33.5 14.9-23.7 29.7-47.4 44.6-71.1 3.5-5.6 7.1-11.3 10.6-16.9 3.2-5.1 6.5-10.7 11.4-14.4 1-.8 2.1-1.4 3.3-1.9 2.5-1.1 5.4-1.4 8.1-.9 3.1.8 5.3 3.2 4.7 7.8-.4 2.7-1.2 5.4-2.4 7.9-.9 2-1.8 3.9-2.7 5.7l-8.9 18.6-17.8 37.2c-5.8 12-11.9 24-17.3 36.2-3.7 8.3-5.8 17.8-2.3 26 .8 1.8 1.8 3.6 3.1 5.1 3.2 4.3 8.3 6.8 13.6 6.8 2.1 0 4.2-.3 6.2-.9 4.1-1.2 7.8-3.3 11-6.1 4.3-3.7 7.5-8.5 10.9-13l14.1-19.3c3.8-5.2 7.6-10.4 11.4-15.6v-24.1c-7.5 6.7-13 16.5-18.5 24.1-8 11-15.5 23.1-24.5 33.3-2.1 2.5-6.2 7.3-9.9 6.8-.3 0-.6-.1-.9-.2-3.6-1.2-3.5-6.9-2.9-9.9 1.2-5.7 4.4-11 6.8-16.2 3.3-6.8 6.5-13.6 9.8-20.3l18.7-38.9c5.6-11.7 12.9-23.6 16.4-36.1.2-.8.4-1.6.6-2.5 2-10.1-.9-20.9-11-25.7-10.8-5.1-22.9-1.3-31.4 6.3-9.8 8.9-16.2 22.2-23.1 33.3l-22.8 36.4-23.4 37.2c-7.4 11.8-14.3 24.2-22.5 35.5-5.1 7-15.9 16.9-24.4 8.8-1.6-1.5-2.9-3.4-3.8-5.4-3-7.1-1.4-16.1.5-23.2 2.5-9.1 5.6-18.2 6.4-27.5.4-4.5.2-9.1-.7-13.5-1.5-7.1-5.4-13.4-11.1-17.9-3.8-3-8.3-5-13.1-5.8-12.1-1.8-24.4 2.1-33.7 9.8z" fill="#fe89e2"/><path d="m1466.2 10.4c-4.9 7.2-5.1 16.3.3 23.4 5.7 7.5 14.8 10.1 23.8 11.3 9.5 1.3 18.9 2.8 28.3 4.8 21.4 4.6 42.3 11.5 62.2 20.4 5.5 2.4 10-1.9 10.5-6.5-.6-.1-1.1-.3-1.6-.5-20-8.9-40.9-15.8-62.3-20.4-9.4-2-18.8-3.5-28.3-4.8-9-1.2-18-3.8-23.8-11.3-5.3-7-5.2-16-.4-23.2h-1.8c-2.7 1.7-5.1 4.1-6.9 6.8z" fill="#381c00"/><path d="m1797.6 38.3c2.1 1.1 3.8 2.9 4.7 5.1.7 1.2 2.2 1.6 3.4.9.2-.1.4-.3.5-.4l-9.7-8.7c-.6 1.1-.2 2.4.9 3 .2.1.2.1.2.1z" fill="#283245"/><path d="m1781.4 46.6c-1 3.1 3.8 4.4 4.8 1.3 1.1-3.4 5.1-3.4 6.7-.4 1.6 2.9 5.8.3 4.3-2.5-2.3-4.2-7.5-5.8-11.7-3.5-1.9 1.1-3.4 2.9-4.1 5.1z" fill="#283245"/><path d="m1716.2 56.3c1.1.4 2.3.3 1.5 1.5s-2.2.4-3.5 0c-3.1-.9-4.4 3.9-1.3 4.8 3.6 1 8.3 1.5 10.3-2.4 1.7-3.2-.2-6.4-3.2-7.8-.8-.4-1.7-.5-2.4-.9-.5-.3-.9-.6-1.3-1l-3.8 4.2.2.2c1.2.5 2.3 1 3.5 1.4z" fill="#283245"/><path d="m1751.6 42c4.5-2.5 6.2-8.2 3.7-12.7-.5-1-1.2-1.8-2-2.5-2.4-2.1-6 1.4-3.5 3.5s2.4 5.7-.6 7.4c-3 1.5-.4 5.9 2.4 4.3z" fill="#283245"/><path d="m1762.2 41.9c3.1-2.2 7.4-1.5 9.7 1.5 2 2.5 5.5-1 3.5-3.5-3.9-4.6-10.7-5.6-15.7-2.3-2.7 1.7-.2 6.1 2.5 4.3z" fill="#283245"/><path d="m1708.9 66.9-1.2-6.9-4.2 4.7c.2 1.2.4 2.3.6 3.5.5 3.2 5.3 1.8 4.8-1.3z" fill="#283245"/><path d="m1023.1 136.6c15 3.5 30-5.8 33.5-20.8s-5.8-30-20.8-33.5-30 5.8-33.5 20.8c-1.7 7.2-.4 14.8 3.5 21.1s10.1 10.7 17.3 12.4zm-6.5-30.1c1.4-6 6.7-10.2 12.8-10.2 1 0 2 .1 3 .3 7.1 1.6 11.6 8.6 10 15.7-1.4 6.1-6.8 10.3-13 10.3-1 0-2-.1-3-.3-7-1.6-11.4-8.7-9.8-15.8z" fill="#f27d5c"/><path d="m1022.4 139.6c16.6 3.9 33.2-6.4 37.1-23s-6.4-33.2-23-37.1-33.2 6.4-37.1 23v.1c-3.8 16.5 6.5 33.1 23 37zm-20.1-36.4c3.5-15 18.5-24.3 33.4-20.8s24.3 18.5 20.8 33.4c-3.5 15-18.5 24.3-33.4 20.8-7.2-1.7-13.4-6.2-17.3-12.4s-5.1-13.8-3.5-21z" fill="#381c00"/><path d="m1026.4 122.3c1 .2 2 .4 3 .3 7.3.1 13.2-5.8 13.3-13 .1-6.2-4.2-11.6-10.3-13-1-.2-2-.4-3-.3-7.3-.1-13.2 5.8-13.3 13 0 6.3 4.3 11.7 10.3 13zm-6.9-15.1c1.3-5.5 6.8-8.9 12.2-7.6 5.5 1.3 8.9 6.8 7.6 12.2-1.1 4.6-5.2 7.8-9.9 7.8-5.6 0-10.2-4.6-10.2-10.2.1-.6.2-1.4.3-2.2z" fill="#381c00"/><path d="m1670.2 1490.5 142-160.2-28.3-25-141.8 160.3z" fill="#ef9da3"/><path d="m1839.9 1328-24.8 3.6-141 159 25.1-3.4z" fill="#ffe552"/><path d="m1787.3 1304.3 27.5 24.3 25.5-3.7-26.6-23.6z" fill="#2ed3cb"/><path d="m1814.7 1298.2-31.6 3.5-145.2 164.2 8.6 7.6-11.5 13 32 28.3 30.8-4.2 145.2-164.2-8.6-7.6 11.5-13zm.1 30.4-27.5-24.3 26.4-2.9 26.7 23.6zm-30.9-23.3 28.3 25-142 160.2-28.1-24.9zm-84.7 181.9-25 3.4 140.9-159 24.9-3.6z" fill="#1e0f00"/><path d="m1477.9 178.3-60.3 1.2-4.2-45.9-44.2 44.8 50.2 55z" fill="#f07e67"/><path d="m1421.9 176.4-2.8-30.6-1.4 1.4-1.9-20.3-50.7 51.3 10.5 11.5-4 4 52.1 57.2 62.5-58.8-19.2.4 18.5-17.4zm-52.7 2 44.1-44.7 4.3 45.9 60.3-1.2-58.5 55.1z" fill="#381c00"/><path d="m1560.1 1233.9 1 2.2c.2-.3.4-.4.7-.5z" fill="#2ed3cb"/><path d="m1100.4 1567.9c-.2-.1-.4-.4-.5-.6-.2-.5-.2-1 .1-1.5.4-.7 1.4-.9 2.1-.5l.6.3 16-40.8-5.1 1.2c-.7.2-1.4-.2-1.7-.8-.1-.1-.1-.2-.1-.3-.2-.8.3-1.6 1.1-1.8l7.1-1.7 6.5-16.6-6.2 5.8c-.6.6-1.5.5-2.1-.1-.1-.1-.2-.2-.2-.4-.3-.6-.2-1.3.3-1.8l8.5-8c.4-.4 1-.5 1.6-.3l17.8-45.2-37.6 33.1 9.4 3c.8.2 1.3 1 1 1.8-.2.8-1 1.3-1.8 1h-.1l-11.1-3.5-22.8 20.1 1.3.3c.8.2 1.3 1 1.2 1.8-.2.8-1 1.3-1.8 1.2l-3.6-.7-24.8 21.8 7 2.7c.8.3 1.2 1.1.9 1.9s-1.1 1.2-1.9.9h-.1l-8.4-3.2-12 10.6 9.7 4.1.2-1.1c.1-.8.9-1.4 1.7-1.3s1.4.9 1.3 1.7l-.3 1.8 38.1 16h9.9l.2-.5zm26.8-80c-.5.7-1.4.9-2.1.4-.2-.1-.4-.3-.5-.6-.2-.5-.2-1 .1-1.5l6.4-9.7c.4-.7 1.3-1 2.1-.5s1 1.3.5 2.1c0 0-.1.1-.1.1zm-60.2 42.4c-.2-.5-.2-1.1.1-1.5l6.6-9.6c.5-.7 1.4-.8 2.1-.3.6.5.8 1.4.4 2l-6.6 9.6c-.5.7-1.4.9-2.1.4-.2-.1-.4-.3-.5-.6zm10.7 19.6-7.8 8.7c-.5.6-1.5.7-2.1.1-.1-.1-.3-.3-.3-.4-.3-.6-.2-1.2.2-1.7l7.8-8.7c.6-.6 1.6-.5 2.1.1.5.5.6 1.3.1 1.9zm30.4-45.3-9.8 6.3c-.7.4-1.6.3-2.1-.4l-.1-.2c-.3-.7-.1-1.5.5-1.9l9.8-6.3c.7-.5 1.6-.3 2.1.4s.3 1.6-.4 2.1zm-22 34c-.1-.2-.2-.4-.2-.7l.1-11.7c0-.8.7-1.5 1.5-1.5s1.5.7 1.5 1.5l-.1 11.7c0 .8-.7 1.5-1.5 1.5-.5 0-1-.4-1.3-.8zm1.2 20.5-.1-.2c-.3-.7-.1-1.5.5-1.9l9.8-6.3c.7-.5 1.6-.3 2.1.4s.3 1.6-.4 2.1l-9.8 6.3c-.7.5-1.6.3-2.1-.4zm21.5-19.7-9.8-6.4c-.7-.5-.9-1.4-.4-2.1s1.4-.9 2.1-.4l9.7 6.4c.7.5.9 1.4.4 2.1-.4.7-1.4.9-2 .4z" fill="#8eeffd"/><path d="m1138.7 1456.2 3.4-3-4.6 1.6.7.6c.3.2.5.5.5.8z" fill="#f6a2a8"/><path d="m1136.8 1457.9c-.2-.1-.3-.1-.5-.3l-2.1-1.8-15.5 5.3c.2 0 .3.1.5.1l8.9 4.3z" fill="#f6a2a8"/><path d="m1117.9 1464c-.3-.1-.5-.4-.7-.7-.2-.4-.2-.9 0-1.3.1-.2.2-.3.3-.4l-9.5 3.2c.5.3.8.9.7 1.5l-1.8 11.5c-.1.8-.9 1.4-1.7 1.2-.5-.1-.9-.4-1.1-.8-.1-.3-.2-.6-.1-.9l1.8-11.5c0-.1 0-.2.1-.3l-38.4 13.1.2 1.9c.1.8-.5 1.6-1.3 1.7-.6.1-1.3-.3-1.5-.8-.1-.2-.1-.3-.1-.5l-.2-1.2-40 13.6 3.4 12.8c.2 0 .3.1.5.1l10.5 5.1c.8.3 1.1 1.2.8 2s-1.2 1.1-2 .8c0 0-.1 0-.1-.1l-8.7-4.2 5.5 20.6 5.9-9c.5-.7 1.4-.9 2.1-.4s.9 1.4.4 2.1l-6.4 9.7c-.3.4-.7.7-1.2.7l3 11.4 11.2-9.9c0-.2 0-.5.1-.7.3-.7 1-1.1 1.7-.9l24.1-21.3-3.1-.6c-.8-.2-1.3-1-1.2-1.8.2-.8 1-1.3 1.8-1.2l5.3 1.1 47.4-41.8zm-38 13.6 11.3-3c.8-.2 1.6.3 1.8 1.1s-.3 1.6-1.1 1.8l-11.3 3c-.7.2-1.4-.1-1.7-.8 0-.1-.1-.2-.1-.3-.2-.8.3-1.6 1.1-1.8zm-32.2 24.8c-.5.6-1.5.7-2.1.2l-8.9-7.5c-.6-.5-.7-1.5-.2-2.1s1.5-.7 2.1-.2l8.9 7.5c.6.5.7 1.4.2 2.1zm13.3 18.1c0 .8-.7 1.5-1.5 1.5s-1.5-.7-1.5-1.5l.1-11.7c0-.8.7-1.5 1.5-1.5s1.5.7 1.5 1.5zm8.8-26.4c-.1.8-.9 1.4-1.7 1.2l-11.5-1.9c-.8-.1-1.4-.9-1.2-1.7.1-.8.9-1.4 1.7-1.2l11.5 1.9c.7.1 1.3.8 1.2 1.7 0-.1 0-.1 0 0zm22.7-4.8-6.6 9.6c-.5.7-1.4.9-2.1.4-.2-.1-.4-.3-.5-.6-.2-.5-.2-1.1.1-1.5l6.6-9.6c.5-.7 1.4-.9 2.1-.4s.9 1.4.4 2.1z" fill="#f6a2a8"/><path d="m1117 1493.9c.8.3 1.6-.1 1.9-.9s-.1-1.6-.9-1.9h-.1l-9.4-3-2.6 2.3z" fill="#fff"/><path d="m1133.2 1476.1c-.7-.5-1.6-.3-2.1.4l-6.4 9.7c-.3.4-.3 1-.1 1.5.1.2.3.4.5.6.7.5 1.6.3 2.1-.4l6.4-9.7c.4-.8.3-1.7-.4-2.1z" fill="#fff"/><path d="m1064.8 1481.3c.4.7 1.3 1.1 2 .7.6-.3.9-.9.8-1.5l-.2-1.9-2.9 1 .2 1.2c0 .2 0 .4.1.5z" fill="#fff"/><path d="m1038.5 1492.8c-.6-.5-1.6-.4-2.1.2s-.4 1.6.2 2.1l8.9 7.5c.6.5 1.6.5 2.1-.2.5-.6.5-1.6-.2-2.1z" fill="#fff"/><path d="m1068.5 1492.3-11.5-1.9c-.8-.1-1.6.4-1.7 1.2s.4 1.6 1.2 1.7l11.5 1.9c.8.1 1.6-.4 1.7-1.3s-.3-1.5-1.2-1.6z" fill="#fff"/><path d="m1092.2 1487.2c-.7-.5-1.6-.3-2.1.4l-6.6 9.6c-.3.4-.4 1-.1 1.5.1.2.3.4.5.6.7.5 1.6.3 2.1-.4l6.6-9.6c.4-.7.2-1.6-.4-2.1z" fill="#fff"/><path d="m1078.9 1479.7c.3.6 1 1 1.7.8l11.3-3c.8-.2 1.3-1 1.1-1.8s-1-1.3-1.8-1.1l-11.3 3c-.8.2-1.3 1-1.1 1.8 0 .1.1.2.1.3z" fill="#fff"/><path d="m1119.2 1461.3c-.1-.1-.3-.1-.5-.1l-1.2.4c-.1.1-.2.3-.3.4-.2.4-.2.9 0 1.3.1.3.4.5.7.7l7.8 3.8 2.4-2.2z" fill="#fff"/><path d="m1136.8 1457.9 1.9-1.7c-.1-.3-.2-.6-.5-.8l-.7-.6-3.3 1.1 2.1 1.8c.2.1.3.1.5.2z" fill="#fff"/><path d="m1103.9 1477.3c-.1.8.4 1.6 1.2 1.7.8.1 1.6-.4 1.7-1.2l1.8-11.5c.1-.6-.2-1.2-.7-1.5l-2.2.8c0 .1-.1.2-.1.3z" fill="#fff"/><path d="m1288.5 19.7c13 18.8 29.1 32.9 39.3 34.4l-.1.7.1-.7c.8.1 1.6.2 2.3.1l2.1-.5c.4-.1.7-.3 1-.6 3.6-2.5 4.2-9.5 1.6-19.3-2.5-9.2-7.5-19.8-14.2-30.3h-41.8c2.8 5.7 6.1 11.1 9.7 16.2z" fill="#fd78ad"/><path d="m1191 87 131.9-31.1c-10.8-4.1-25-17.2-36.9-34.5-3.9-5.7-7.5-11.7-10.6-17.9h-28.2z" fill="#808df7"/><path d="m1187.9 90.8 148.6 4c.6.1 1.1.1 1.7.2 1 0 2-.2 3-.5 5.5-2 8.5-9.4 8.5-21 0-11.1-2.8-24.8-7.8-38.6-4.5-12.5-10.1-23.2-15.9-31.2h-5.4c6.8 10.5 11.8 21.1 14.2 30.3 2.6 9.7 2 16.8-1.6 19.3-.3.2-.6.4-1 .5l-2.1.5c-.8.1-1.6 0-2.3-.1l-.1.6.1-.7c-10.2-1.5-26.3-15.6-39.3-34.4-3.6-5.2-6.8-10.6-9.7-16.2h-3.3c3.1 6.2 6.6 12.2 10.5 17.9 11.9 17.2 26.1 30.4 36.9 34.5l-131.9 31.1 56.3-83.4h-3.6l-59.4 88.1z" fill="#381c00"/><path d="m1475.4 26.7c5.7 7.5 14.8 10.1 23.8 11.3 9.5 1.3 18.9 2.8 28.3 4.8 21.4 4.6 42.3 11.5 62.3 20.4.5.2 1.1.4 1.6.5 7.9 1.7 13-10.5 4.7-14.1-17.9-8-36.4-14.4-55.4-19.1-9.6-2.4-19.3-4.4-29.1-5.9-7-1.1-19.5-.4-24.1-6.9-.8-1-1.2-2.3-1.1-3.6.5-4.9 10-7.7 13.8-8.2 8.1-1.1 16.3-1.7 24.5-2.3h-49.7c-4.8 7.1-4.9 16.2.4 23.1z" fill="#28b9b2"/><path d="m1926.2-36.8c-26.8-4.4-54.2-.6-78.8 10.8l7 6.2-9.4 10.4 20.8 18.6-1.4 1.6-95.3 106.3c1.5 10.5 4.2 20.7 8 30.6 4.4 11.6 10.4 22.5 17.8 32.5 10.8-17 26.1-30.7 44.2-39.4 8.7-4.2 16.3 8.8 7.6 13 4.3 2.8 5.9 9.7 0 12.5-10.4 4.9-19.8 11.7-27.8 20-3.3 3.4-6.4 7.1-9.1 10.9 6.2 6 12.9 11.3 20.2 16 4.7-2.3 9.2-4.9 13.4-7 23-11.2 45.9-22.9 69.1-33.6 8.1-3.7 19.5-6.5 25.6 2.2 3.4 4.9 3.2 9.8 1.1 14.3 4.9 9.4-3 18.9-10.4 24.6-8.2 6.3-18.1 10.8-25.2 18.4-.9 1-1.8 2.1-2.5 3.2 42.8 1.5 83.8-17.4 110.6-50.9 66-81.8 18.6-204.8-85.5-221.2z" fill="#fd78ad"/><path d="m1886.4 218.1c1-1.9 2.1-3.6 3.3-5.3-2.3 1.2-4.7 2.4-7 3.5l-23.5 11.4c7.5 2.6 15.3 4.6 23.1 5.9.2-5.4 1.6-10.7 4.1-15.5z" fill="#fd78ad"/><path d="m1888.5 251.3c-2.7-3.2-4.6-7.1-5.5-11.2-1.7 8.3-.3 16.6 5.5 23.7 2.6 3.2 7.9 2.6 10.6 0 3.1-3.1 2.6-7.5 0-10.6-.3-.4-.6-.8-.8-1.2-2.9 2-7.5 2.1-9.8-.7z" fill="#381c00"/><path d="m1889.7 212.8c6-8 15-13.4 23.3-18.9 2.5-1.6 4.9-3.2 7.2-5 1-.8 2-1.6 2.9-2.5.1-.1 1.1-1.6 1.7-2.3-1.6.6-3.4.9-4.9 1.5-12.6 5.4-24.9 12.1-37.2 18.1l-36.3 17.7c-10.9 5.3-22.6 12.3-35.1 11.9-11-.4-21.4-6.6-24.7-17.5-.2-.7-.4-1.3-.5-2-1 4.8-.8 9.8.5 14.6 3.3 11 13.7 17.1 24.7 17.5 12.5.4 24.2-6.6 35.1-11.9l12.9-6.2 23.5-11.5c2.2-1.2 4.6-2.3 6.9-3.5z" fill="#381c00"/><path d="m1801.2 201.8c-1 4-1 7.9.5 10.9 1.8-5.5 4.5-10.7 8-15.4 2.8-3.9 5.8-7.5 9.1-10.9 8-8.3 17.4-15.1 27.8-20 5.9-2.8 4.3-9.7 0-12.5-10.4 4.9-19.8 11.7-27.8 20-7.4 7.7-14.8 17.3-17.6 27.9z" fill="#381c00"/><path d="m1928.6 213.8c7.4-5.7 15.4-15.1 10.4-24.6-2.2 4.7-6.4 9-10.4 12-8.2 6.3-18.1 10.8-25.2 18.4-4.3 4.7-8.9 14-4.9 20.2.6-1.5 1.4-3 2.4-4.4.7-1.1 1.6-2.2 2.5-3.2 7.1-7.6 16.9-12.1 25.2-18.4z" fill="#381c00"/><path d="m1865.8 9.2-20.8-18.6 9.3-10.4-7-6.2-48-43-225.9 252.2 19.7 17.7-8.7 9.8-1.4 1.7 56 50.2 130.1-145.2 95.2-106.3zm-286.6 175.1-1.6-1.4 2.5-2.8 20.7-23.1 7.9-8.8 3.2-3.6 18-20.1 4.6-5.1 34.8-38.9 4.4-4.9 8.5-9.5 14.2-15.9 6.9-7.7 4.3-4.8 4.5-5 3.8-4.2 35.1-39.2 4.1-4.6 9.7-10.8 4.2-4.7 4.8-5.4 3.8-4.2 1.6-1.7 6.4-7.2 11.3-12.6 2.7-3 3.1 2.8.9.8 6 5.3 20.1 18.1 3.8 3.4 3.2 2.9 9.7 8.6 3.7 3.3-3.2 3.6-9.9 11.2-13.7 15.3-4.2 4.6-3.7 4.1-3.4 3.9-6.8 7.6-3.8 4.3-32.5 36.4-3.2 3.5-4.7 5.2-3.4 3.8-6.6 7.3-6.7 7.5-14.4 16.1-4.2 4.7-9.2 10.2-8.7 9.7-13.6 15.2-2.9 3.3-4.8 5.3-5 5.6-8.3 9.2-2.8 3.1-11 12.3-8.6 9.6-22.7 25.3-30.2-27-4.6-4.1z" fill="#381c00"/><path d="m1600 192.5c2.8 1.6.2 6-2.5 4.3 1.4.8 1.3 2.6.5 4.3l30.2 27 22.7-25.3c-1.2-.1-2.3-.4-3.3-1-.5-.3-3.8-3.3-4.2-2.6-1.4 2.9-5.8.4-4.3-2.5 1.6-3.3 5.5-3.3 8.3-1.4 1.7 1.2 3.3 3.7 5.5 1.9 1.9-1.6 3-7.9-.7-7.9-2 0-3.5-2.8-1.8-4.3l1.5-1.3c1.1-.9 2.8-.8 3.7.4.4.4.6 1 .6 1.5 2.3 1.6 3.3 4.6 3.2 7.7l11-12.3-6.3 4.4c-2.7 1.8-5.2-2.5-2.5-4.3l8-5.6c1.9-1.3 3.7.6 3.6 2.4l8.3-9.2-1.7.3c-1.3.3-2.7-.4-3.1-1.8-.4-1.3.4-2.7 1.8-3.1l6.7-1.1c.4-.1.9-.1 1.3.1l4.8-5.3c-.2-.5-.2-1-.1-1.5.4-1.3 1.7-2.1 3-1.8l13.6-15.2c-.7-.6-.9-1.5-.7-2.4.9-4.4 4.9-7.5 9.4-7.4l9.2-10.2c-.7-.7-.9-1.6-.7-2.5.4-1.3 1.8-2.1 3.1-1.7.6.1 1.3-.1 1.8-.4l14.4-16.1v-.1c.3-3.4 2.3-7.1 6.1-7.4h.6l6.6-7.3-.6-.9c-1.8-2.5 2-4.8 4-2.9l4.7-5.2-.3-.1-3.3-1.9c-2.8 2.5-6.6 3.5-10.2 2.8-1.1-.3-1.9-1.4-1.9-2.6l-3.7.7c-3.2.6-4.5-4.2-1.3-4.8l8.3-1.6c1.7-.3 3.8 1.1 3.1 3.1v.1c1.4-.5 2.7-1.5 3.6-2.7.8-.8 2-.9 3-.4l5 2.9c.4.2.7.5.9.9l32.6-36.3c-.5-1.3-1-2.6-1.3-4-.2-.9-1.5-6.1-3.1-3.6-1.7 2.7-6 .2-4.3-2.5 1.7-2.9 5.4-3.9 8.3-2.3 1.5 1 2.6 2.4 3.1 4.1.4 1.1.7 2.3 1 3.5l.2.5 6.8-7.6c-.1-.1-.2-.2-.3-.4-1.4-1.7-1.1-3.7-3.2-1.7-2.3 2.2-5.8-1.3-3.5-3.5s5.9-4 8.6-1.1c.7.9 1.3 1.9 1.8 2.9l3.7-4.1c-1.6-1.3-.7-4.2 1.6-4.4l2.5-.2 13.6-15.4c.2-1.2.6-2.3 1.1-3.3 1.8-3.6 5-6.4 8.8-7.7l3.2-3.6-3.7-3.3c-.2.2-.3.3-.5.4-1.2.7-2.7.3-3.4-.9-1-2.2-2.6-4-4.7-5.1-1.1-.5-1.6-1.9-1.1-3 0 0 0-.1.1-.1l-3.2-2.9c-.8.7-1.7 1.3-2.7 1.6-1.8.6-3.9.4-5.6-.5-.8-.4-1.4-1-2-1.6-.3-.4-.5-.7-.8-1.2-.4-1.5-1.3-1.5-2.7 0-.5 3.2-5.3 1.8-4.8-1.3.4-3.3 3.4-5.7 6.6-5.3h.1c1.5.2 2.8.9 3.8 2 .5.5.8 1.7 1.3 2.1 1.4 1 2.3 1.2 2.9.8l-20.2-18.1c-.4 2-1.5 3.8-3.2 5.1-.7.5-1.4 1-2.1 1.4h.6c2 .4 3.6 1.6 4.7 3.3 2.2 3.8.1 8.1-3.6 9.8-2.9 1.3-5.4-3-2.5-4.3.4-2.8-.1-4.1-1.6-3.8-.3.1-.7.1-1 0-.5-.3-1.3-.2-1.8-.6-1-.7-1.6-1.8-1.7-3-.3-4.1 4-4.5 6-6.9s-1.3-1.2-3.1-1.8c-1.2-.4-2.1-1.2-2.8-2.2-.5-.9-.7-1.9-.6-2.9l-11.2 12.5c.4.2.7.5 1 .8 1.9 2.6.1 6.1-2.8 6.8-1.7.4-3-.2-4.6-.5l-1.6 1.7c.4.4.8.7 1.3 1 .8.4 1.7.5 2.4.9 3 1.5 5 4.6 3.3 7.8-2 3.9-6.7 3.5-10.3 2.4-3.1-.9-1.8-5.7 1.3-4.8 1.2.4 2.6 1.1 3.4 0s-.3-1.1-1.5-1.5c-1.2-.3-2.4-.8-3.5-1.4l-.2-.2-4.8 5.4 1.2 6.9c.5 3.2-4.3 4.5-4.8 1.3-.2-1.2-.4-2.3-.6-3.5l-9.7 10.8c1 1.1 1.3 2.7.7 4.1s-2.1 2-3.5 1.5c-.5-.2-.9-.6-1.2-1l-35.1 39.2c.5.1 1 .2 1.5.2 3.2.4 3.1 5.4-.1 5-1.7-.2-3.4-.5-5.1-1l-4.5 5c.7 1 .5 2.4-.6 3.1-.1.1-.2.1-.3.2-1.1.6-2.3 1.1-3.4 1.5l-6.9 7.7c.2.1.4.3.6.5.7.6 1.9 4.2 2.4 4.2s2.4-3.2 3.3-3.6c2.2-1.1 4.9-.2 6 2 .1.1.1.3.2.4 1.2 3-3.4 4.9-4.6 1.9 1.2 3-4.7 5.5-6.8 4.7-1.1-.5-2.1-1.3-2.6-2.5-.2-.4-.7-2.4-.8-2.5-1.3-.6-2.3 1.7-2.7 2.5-1.9 3.6-2.8 6.6-7.2 7.9-.6.2-1.3.3-1.9.3l-8.5 9.5c.5.1.9.2 1.4.3 3.1.9 1.8 5.7-1.3 4.8-1.5-.4-3-.5-4.5-.2l-34.8 38.9c.4 1.7.6 3.4.4 5.2-.2 3.2-5.2 3.1-5-.1l-18 20.1c2.8 2.6.6 7-3.3 8.4-.5.2-2.3.3-2.6.7-.8 1.3.6 2.1 1.6 2.3 1.7.4 3.4.3 5 .7 1.2.3 2.3.8 3.3 1.6.5-1.3 1.9-1.9 3.1-1.5.1 0 .3.1.4.2 3.2 1.8 3.6 6.6-.2 8.1-1.6.6-3.4.3-4.6-.9-.8-.7-1.2-1.7-2.2-2.3s-2.6-.6-3.8-.8c-2.9-.4-6.4-1.6-7.8-4.2l-20.7 23.1c.7 1 .7 2.4-.1 3.4l-.4.4c-.1.1-.3.3-.4.4l14.2 12.7c-.1-.9 0-1.8.3-2.7 1.1-2.2 3.8-3.1 6-2-.3.3-.1.4 0 .5zm19.9 2.3v-.1c0-.1-.1-.2-.1-.2-.1-.1-.5-.4-.1-.1l-.2-.1-.2-.1c.2.1-.1.1 0 0h-.1c-1.4.2-2.6-.7-2.9-2-.2-1.3.6-2.5 1.8-2.8 3.1-.6 6.2 1.5 6.8 4.6.2.8.1 1.6 0 2.4-.4 1.3-1.7 2.1-3.1 1.7-1.3-.4-2.1-1.7-1.7-3.1-.2.2-.2 0-.2-.2zm.4 21.6c-3 1.2-4.3-3.7-1.3-4.8 2.8-1 1.7-4.6.3-6.2-1.7-1.9-4.1-3.1-6.7-3.3-3.2-.4-1.8-5.2 1.3-4.8 4.8.7 9.7 3.8 11.3 8.6 1.6 4.1-.6 8.9-4.9 10.5zm1.1-31.7c-2.7-3.5-3.4-8-1.9-12.2 1-3.1 5.8-1.7 4.8 1.3-2 6.1 1.7 9.1 6.9 11 2.9 1.1 5.2 2.8 6 5.8s-4 4.4-4.8 1.3c-.7-2.6-4.5-2.8-6.6-3.8-1.7-.7-3.2-1.9-4.4-3.4zm17.7 27.2-9.9 2.9c-3.1.9-4.4-3.9-1.3-4.8l9.9-2.9c3-.9 4.3 3.9 1.3 4.8zm8-38.4c-2.7 2.4-6 4-9.6 4.5-1 .7-2.3.7-3.2-.1l-.6-.4c-1.8-1.5-.2-4.2 1.8-4.3s4-.6 5.8-1.6c.5-.3 4.4-3.2 3.9-3.6-2.6-1.9-.1-6.2 2.5-4.3 3.7 2.7 2.4 7-.6 9.8zm-7.4-20.4c.7-2.5 3.3-4 5.9-3.3 2.1.6 3.5 2.5 3.5 4.6 0 1.4-1.1 2.5-2.5 2.5-.6-1.5-2.4-2.2-3.9-1.6-.5.2-.9.5-1.2.9-1.3-.4-2.1-1.7-1.8-3.1zm22.5 20.9c-2.2 2.4-5.7-1.2-3.5-3.5 1.6-1.7 4-4 3.5-6.5-.6-3-4.1-1.9-3.9.9.3 3.2-4.7 3.2-5 0-.4-3.8 2.5-7.3 6.3-7.6 1.7-.2 3.4.3 4.8 1.4 5.8 4.2 1.5 11.3-2.2 15.3zm-1.4-42.1c1.6-1.9 4.1-2.3 6.4-2 1 .1 3.5 1 4.4.4 1.6-1-.5-3.2-1.2-4.1-1.9-2.6 2.4-5.1 4.3-2.5 2.3 3.1 4 7.9 0 10.6-1.6 1-3.5 1.3-5.4 1-.7-.1-4.1-1.1-4.4-.4-.7 1.4 1.8 2 2.6 2.2 3 1 1.7 5.9-1.3 4.8-3.9-1.3-9.2-5.5-5.4-10zm25.7 19.5c.4-1.4 0-2.3-1.2-2.6-.8-.9-1.1-.9-1.1.1-.3.3-.3 1.6-.5 2.1-.3 1-.9 1.8-1.6 2.5-1 .9-2.4 1.2-3.8 1-1.9-.2-2.4-.7-2.9-2.3.4 1.3-.4 2.7-1.7 3.1-2.7.6-5.5.1-7.8-1.4-2-1.3-1.3-4.7 1.3-4.7h.9c.9 0 1.7.5 2.1 1.2.2.1.4.1.6.1.6-1.4 1.8-2.3 3.3-2.4 1.5-.2 4.3 1.5 5.1.5.9-1.2.4-3.3 1.6-4.7 1.7-2 4.7-2.4 6.9-1 3 1.7 3.6 5.2 3.8 8.4.3 3.2-4.7 3.3-5 .1zm11-13c-2.7.6-5.5-.3-7.4-2.3-1-1-1.6-2.3-1.9-3.7-.1-.5 0-1.6-.2-2.1-1.4-2.2-3.2.1-4.1 1-2.3 2.3-5.8-1.2-3.5-3.5 2.9-2.9 8.1-5.9 11.4-1.6 1.4 1.9.5 4.7 1.9 6.3.9 1.1 2.5 1.2 3.6.4 1.1-.9 1.2-2.5.4-3.6-2-2.5 1.5-6.1 3.5-3.5 3.2 4.2 2.1 11.3-3.7 12.6zm-7-38.2c6.5 2.1 10 9 8 15.5-.3.9-.6 1.7-1.1 2.5-1.6 2.8-5.9.3-4.3-2.5 2.1-3.4 1-7.8-2.4-9.9-.5-.3-1-.5-1.5-.7-3-1.2-1.7-6 1.3-4.9zm15 .6-5.7 3.2c-2.8 1.6-5.3-2.7-2.5-4.3l5.7-3.2c2.8-1.6 5.4 2.7 2.5 4.3zm15 20.9c-1.8 2.8-5.5 3.6-8.3 1.7-1.8-1.1-2.8-3.1-2.7-5.2 0-1.4 1.1-2.5 2.5-2.5s2.5 1.1 2.5 2.5c-.1 1 1 2.2 1.8 1 1.7-2.7 6.1-.2 4.2 2.5zm13.5-18c-1-1.8-3-1.7-3.7-.2-.3.7 0 2.2-.1 3-.2 1.4-.9 2.7-1.9 3.8-2.1 2-5.2 2.4-7.7 1-1.2-.7-2.1-1.7-2.7-3-1.3-2.6 0-4.6-3.8-2.3-2.4 1.5-3.9 2.4-6.7 1s-.3-5.8 2.5-4.3c.5.2 4-3.2 4.8-3.6 1.5-.6 3.2-.3 4.6.6 1.2.9 2 2.2 2.4 3.7.2.4.2 2.2.6 2.5 3.6 2.5 3-2.7 3.1-3.7.2-2.9 1.6-6 4.8-6.5 3.9-.6 6.5 2.5 8.3 5.5 1.5 2.7-2.8 5.2-4.5 2.5zm8.9-23.5c1.4-1 1.8 3.1 1.6 3.7-.2.9-.8 1.8-1.6 2.3-3 2.4-6.7-.3-9.9 1.7-3.2 1.9-4.9 3.4-8.7 2.4-3.6-1-6.1-3.8-8.4-6.5-2-2.5 1.5-6 3.5-3.5 1.1 1.5 2.3 2.9 3.8 4 2.7 1.7 4.8.9 7-.7 1.7-1.2 2.7-2.1 4.9-2.2.8 0 3 1 3.5.4.1-.1-.6-1.9-.6-2.3 0-1.8.8-2.7 2.1-3.6 3-1.8 5.5 2.5 2.8 4.3zm5.3-31.8c-4.6 1.2-.6 1.5.9 2.9 1.1 1 1.6 2.4 1.6 3.8-.3 4.6-5.5 4.5-6.8 7.8-1.2 2.9-5.9 1.6-4.8-1.3 1-2.4 2.3-3.1 4.2-4.7 3.6-3.1.5-2-1.4-4.4-3-3.5-.1-7.7 3.7-8.7 1.1-.3 2.2-.5 3.3-.5-1.7-1.1-2.8-2.8-3.1-4.8-.6-4.6 3.3-7.7 7.6-7.6 3.2.1 3.2 5.1 0 4.9-1.7 2.3-1.7 3.7.1 4.1l.6.2c.4.4.9.7 1.2 1.2.6 1 .7 2.2.3 3.4-1.1 3.6-4.6 3-7.4 3.7zm22.6 15.5c-.2 3.2-5.2 3.2-5 0 .3-3.8-3.3-6.2-6.6-4.1-2.7 1.7-5.2-2.6-2.5-4.3 4.3-2.7 10-1.4 12.7 2.9 1.1 1.6 1.6 3.6 1.4 5.5zm-6.8-26.3c1.2-.7 2.7-.3 3.4.9l2.3 5.3c.7 1.2.3 2.7-.9 3.4s-2.7.3-3.4-.9l-2.3-5.3c-.7-1.2-.3-2.7.9-3.4zm21.7 10.9c-.9-.6-2.9-2.1-4.1-1.6-1.4.6-.1 2.2.3 3.2 1.5 3.6-.2 7.7-3.8 9.1-2.3.9-4.8.6-6.8-.8-2.6-1.8-.1-6.2 2.5-4.3 1.2.9 3 1 3.5-.7.4-1.3-.6-2.4-1-3.5-.8-1.7-.7-3.8.3-5.4 2.8-4.2 8.1-2.5 11.6-.4 2.8 1.8.3 6.1-2.5 4.4zm-1.9-56.9c-1.5-1.4-.4-4.5 1.8-4.3 3.2.3 7.6-.7 6.4-4.8-.9-3.1 3.9-4.4 4.8-1.3 1 3.1.1 6.4-2.2 8.7-1.1 1-2.3 1.7-3.7 2.1.2 1.4-.7 2.7-2.1 3-.8.1-1.5-.1-2.1-.6zm15.9-20.8c5.1-3.3 11.8-2.3 15.7 2.3 2 2.5-1.5 6-3.5 3.5-2.3-3-6.6-3.7-9.7-1.5-2.6 1.9-5.1-2.5-2.5-4.3zm-13.9 33.9c-3.2-.6-1.8-5.4 1.3-4.8 5 1.1 8.2 6.1 7.1 11.2 0 .2-.1.4-.2.6-1 3-5.8 1.7-4.8-1.3.8-2.3-.5-4.7-2.8-5.5-.1-.1-.3-.1-.6-.2zm-12.8 4.7c1.6-1 3.7-.7 5 .6 1.6 1.5 1 3.2 1.6 5.1.2.9 1 1.4 1.8 1.3s1.4-1 1.3-1.8c-.1-.3-.2-.6-.5-.9-2.2-2.3 1.3-5.9 3.5-3.5 3.2 3.4 2.2 9.6-2.5 11.1-2.4.6-4.9 0-6.7-1.7-.8-.7-1.4-1.6-1.7-2.7-.2-.7-.3-1.4-.3-2.1v-.7c-2.2.4-3.8-3.1-1.5-4.7zm23 24.5c2.5 2-1 5.5-3.5 3.5-3.4-2.5-8-2.5-11.4.1-2.6 1.9-5.1-2.5-2.5-4.3 5.3-3.7 12.4-3.4 17.4.7zm4.8-23.1c-2-2.5 1.5-6 3.5-3.5 1 1.2 2.2-.1 1.9-1.3-.7-2.6-3.8-2.3-5.8-1.6-3.1 1.1-4.3-3.8-1.3-4.8 5.3-1.9 12.2.7 12.2 7.1 0 5.1-7 8.4-10.5 4.1zm29.1-10-.4.4c-.6.7-1.6 1-2.4.6-3.4.4-6.5-1.6-9.3-3.4-4.3-2.9-8.4-6.1-12.2-9.8-2.3-2.2 1.2-5.8 3.5-3.5 2.7 2.6 5.6 5.1 8.7 7.3 2.4 1.7 6.5 5.4 9.6 4.2 2.5-.9 4 2.5 2.5 4.2zm7.4-22.6c1.5 2.8-2.8 5.3-4.3 2.5s-5.6-2.9-6.7.5c-1 3-5.8 1.7-4.8-1.3 1.3-4.6 6.1-7.2 10.7-5.8 2.2.6 4 2.1 5.1 4.1zm-48.2-7.3c3-1.7 3.2-5.2.6-7.4s1.1-5.6 3.5-3.5c3.9 3.4 4.3 9.3.9 13.2-.7.8-1.6 1.5-2.5 2-2.8 1.6-5.3-2.7-2.5-4.3zm-16.4 13.1c.2-.6.6-1.2 1.2-1.5l.7-.3c.6-.3 1.3-.4 1.9-.2s1.2.6 1.5 1.2.4 1.3.2 1.9-.6 1.2-1.1 1.5l-.7.3c-.6.3-1.3.4-1.9.2s-1.2-.6-1.5-1.2c-.4-.5-.5-1.2-.3-1.9zm-17.3 16.5c1.6-1.8 4.1-2.3 6.4-2 1 .1 3.5 1 4.4.4 1.6-1-.5-3.2-1.2-4.1-1.9-2.6 2.4-5.1 4.3-2.5 2.3 3.1 4 7.9 0 10.6-1.6 1-3.5 1.3-5.4 1-.7-.1-4.1-1.1-4.4-.4-.7 1.5 1.8 2 2.6 2.2 3 1 1.7 5.9-1.3 4.8-3.9-1.3-9.3-5.5-5.4-10zm-8.5 16.4c5.4-2.1 13.3-.8 18.5 1.3 4.6 1.8 8 5.1 9.3 9.9.8 3.1-4 4.4-4.8 1.3-1.9-7.8-15-10.4-21.6-7.8-3.1 1.2-4.3-3.6-1.4-4.7zm-14.4-1.5c.9-3 2.6-5.8 4.8-8 2.3-2.3 5.8 1.3 3.5 3.5-1.7 1.6-2.9 3.6-3.6 5.8-.8 3.1-5.7 1.7-4.7-1.3zm-4.6 6.7c.4 2.7 4.2 3.3 6.1 4.6 1.6 1 2.9 2.4 3.9 4 2.2 3.8 2.4 8.4.4 12.3-1.4 2.9-6 1-4.6-1.9 2.7-5.8-.6-9.2-5.5-11.8-2.7-1.4-4.8-3.4-5.2-6.5s4.5-3.9 4.9-.7zm-8.9 19.3c.3-.6.9-1 1.5-1.2.7-.2 1.3-.1 1.9.2l1.8.8c1.3.6 1.5 2.4.9 3.4-.3.6-.9 1-1.5 1.2s-1.3.1-1.9-.2l-1.8-.8c-1.3-.5-1.5-2.3-.9-3.4zm.9 6.8c4.8.7 9.7 3.8 11.3 8.6 1.6 4.3-.6 9-4.8 10.6-3 1.2-4.3-3.7-1.3-4.8 2.8-1.1 1.7-4.6.3-6.3-1.7-1.9-4.1-3.1-6.7-3.3-3.4-.4-2-5.2 1.2-4.8zm-7 12c2.8-1.5 5.3 2.8 2.5 4.3-4.1 2.2-4.7 6.7-2 10.3 1.9 2.6-2.4 5-4.3 2.5-3.8-5.1-2.8-12.3 2.3-16.1.5-.4.9-.7 1.5-1zm-31.6 23c.6-3.2 5.4-1.8 4.8 1.3-.6 2.8 2 5.5 4.8 4 2.1-1.1 1.4-2.2 2.3-3.7.7-1.2 1.2-2.1 2.6-2.5 1.3-.3 2.7 0 3.7 1 .6.5.7 1.5 1.2 2-.1 1.3.4 1.5 1.4.4.8-.2 1.5-.8 1.8-1.6 1.7-2.7 6-.2 4.3 2.5-1.9 3.1-4.9 6.3-8.9 4.8-1-.4-1.8-1-2.5-1.9-.2.4-.5.8-.8 1.1-6.1 7.6-16.4 1.1-14.7-7.4zm-11.4 9.5c4 1.1 9.9 1.7 12.7 5.2 1.1 1.3 1.5 2.9 1.3 4.6-.2 1-.6 2-1.2 2.9-.4.6-2 2-1.7 2.8 1.4 2.9-2.9 5.4-4.3 2.5-.7-1.3-.9-2.8-.5-4.3s1.7-2.4 2.3-3.8c1-2.4-2.2-2.8-4-3.3l-6-1.7c-3-.9-1.7-5.7 1.4-4.9zm-18.5 23.3c.7-1.3 2-2.3 3.4-2.7.8-.3 2.3-.3 3.5-.5-2.2-3.4-1.2-8 2.3-10.1.6-.4 1.2-.7 1.9-.9 3.1-1 4.4 3.8 1.3 4.8-2.4.8-2.2 3.3-.2 4.4 1.2.7 1.6 2.2.9 3.4-1.7 2.8-5.8 3.8-8.7 3.5 3.2.4 3.2 5.4 0 5-3.4-.4-6.2-3.4-4.4-6.9zm4.8 25.3c2.9 1.4.3 5.8-2.5 4.3-4.4-2.2-9.7-2.2-14 .2-2.8 1.5-5.4-2.8-2.5-4.3 5.9-3.2 13-3.3 19-.2zm-20.5-9.2c3-.6 4.5-3.7 2.3-6.2-2.2-2.4 1.4-5.9 3.5-3.5 4.5 5 2.4 13.2-4.5 14.5-3.1.7-4.5-4.1-1.3-4.8zm-.8 27.8c-1.7 1.6-2.9 3.6-3.6 5.8-1 3.1-5.8 1.8-4.8-1.3.9-3 2.6-5.8 4.8-8 2.3-2.3 5.9 1.2 3.6 3.5zm-14.9-17.7c-2.6-1.9-.1-6.2 2.5-4.3 4.1 2.9 7.3 6.9 9.1 11.6 1.2 3-3.6 4.3-4.8 1.3-1.4-3.4-3.8-6.4-6.8-8.6zm-15 32.2c5.1 1.6 7.9 7 6.3 12.1 0 .1-.1.2-.1.3-1.1 3-5.9 1.7-4.8-1.3.9-2.6 0-5.3-2.7-6.2-3.1-1.1-1.8-6 1.3-4.9zm-12.5 14c.5 3.2-4.3 4.5-4.8 1.3-.8-5.1-1.6-10.5.8-15.3 2.1-4.1 5.8-7.1 10.3-8.2 3.1-.8 4.4 4 1.3 4.8-8.6 2.3-8.8 10.2-7.6 17.4z" fill="#fcfcfc"/><path d="m1619.1 194c.1 0 .2-.1.3-.1z" fill="#fcfcfc"/><g fill="#283245"><path d="m1598 201.1c.7-1.7.8-3.5-.5-4.3 2.8 1.6 5.3-2.7 2.5-4.3-2.1-1.3-4.8-.7-6.1 1.4-.1.1-.1.2-.2.4-.2.9-.3 1.8-.3 2.7z"/><path d="m1600 171.1c3.1-.8 1.8-5.6-1.3-4.8-4.5 1.1-8.2 4.1-10.3 8.2-2.3 4.8-1.6 10.2-.8 15.3.5 3.2 5.3 1.8 4.8-1.3-1.1-7.3-.9-15.2 7.6-17.4z"/><path d="m1603.6 179.2c2.7.9 3.6 3.6 2.7 6.2-1.1 3 3.8 4.4 4.8 1.3 1.8-5-.9-10.5-5.9-12.3-.1 0-.2-.1-.3-.1-3-1-4.3 3.9-1.3 4.9z"/><path d="m1632.4 192.1c.8 3.1 5.6 1.8 4.8-1.3s-3.1-4.8-6-5.8c-5.2-1.9-8.9-4.9-6.9-11 1-3.1-3.8-4.4-4.8-1.3-1.5 4.1-.8 8.7 1.9 12.2 1.2 1.5 2.7 2.7 4.3 3.5 2.1.9 6 1 6.7 3.7z"/><path d="m1613.8 197.2c-3.2-.4-4.5 4.4-1.3 4.8 2.6.2 5 1.4 6.7 3.3 1.4 1.7 2.5 5.2-.3 6.2-3 1.1-1.7 6 1.3 4.8 4.3-1.6 6.5-6.3 4.9-10.6-1.6-4.7-6.4-7.9-11.3-8.5z"/><path d="m1626.8 150.8c1.2 3 6 1.7 4.8-1.3-1.8-4.7-5-8.7-9.1-11.6-2.6-1.9-5.1 2.5-2.5 4.3 3 2.2 5.4 5.2 6.8 8.6z"/><path d="m1608.6 161.2c1.2.2 2.8.1 3.8.8s1.4 1.6 2.2 2.3c1.2 1.2 3 1.5 4.6.9 3.8-1.5 3.4-6.3.2-8.1-1.2-.7-2.7-.3-3.3.9-.1.1-.1.3-.2.4-1-.7-2.1-1.3-3.3-1.6-1.7-.4-3.4-.4-5-.7-.9-.2-2.4-1-1.6-2.3.3-.4 2.1-.6 2.6-.7 3.9-1.4 6-5.7 3.3-8.4l-3.2 3.6-7.9 8.8c1.4 2.6 4.9 3.8 7.8 4.1z"/><path d="m1626.5 164.3c-1 3.1 3.9 4.4 4.8 1.3.7-2.2 1.9-4.2 3.6-5.8 2.3-2.3-1.2-5.8-3.5-3.5-2.3 2.2-4 5-4.9 8z"/><path d="m1580.1 183.5c.8-1 .8-2.4.1-3.4l-2.5 2.8 1.6 1.4c.2-.1.3-.2.4-.4z"/><path d="m1637.7 207.1-9.9 2.9c-3.1.9-1.8 5.7 1.3 4.8l9.9-2.9c3.1-.9 1.8-5.7-1.3-4.8z"/><path d="m1656.3 185.6c-.1-1.5-1.4-2.6-2.8-2.5-.6 0-1.1.3-1.5.6l-1.5 1.3c-1.7 1.5-.3 4.2 1.8 4.3 3.7 0 2.6 6.3.7 7.9-2.2 1.8-3.8-.8-5.5-1.9-2.7-1.9-6.6-1.9-8.3 1.4-1.4 2.9 2.9 5.4 4.3 2.5.4-.7 3.7 2.3 4.2 2.6 1 .6 2.1.9 3.3 1l8.6-9.6c0-3-1-6-3.3-7.6z"/><path d="m1621.7 197.9c1.3.3 2.7-.4 3.1-1.8.7-3.1-1.2-6.2-4.3-7-.8-.2-1.6-.2-2.4 0-1.3.4-2.1 1.7-1.8 3 .3 1.2 1.6 2 2.8 1.8h.3c-.1 0-.1 0-.2.1l.2.1.2.1c-.4-.2 0 0 .1.1 0 .1.1.2.1.2v.1c0 .2 0 .4 0 0-.3 1.5.5 2.9 1.9 3.3z"/><path d="m1619.2 194c-.1.1.2.1 0 0z"/><path d="m1647.7 163.7c-2.6-1.9-5.1 2.4-2.5 4.3.5.4-3.4 3.3-3.9 3.6-1.8 1-3.7 1.5-5.8 1.6-2 .1-3.6 2.8-1.8 4.3l.6.4c.9.8 2.3.8 3.2.1 3.6-.5 6.9-2.1 9.6-4.5 3-2.8 4.3-7.1.6-9.8z"/><path d="m1641.5 156.2c1-1.3 2.9-1.5 4.2-.4.4.3.7.7.9 1.2 1.4 0 2.5-1.1 2.5-2.5 0-2.6-2.1-4.8-4.7-4.8-2.1 0-4 1.4-4.6 3.5-.4 1.3.4 2.6 1.7 3z"/><path d="m1691.3 57.9c.4-.7 1.4-3.1 2.7-2.5.2.1.6 2.1.8 2.5.5 1.1 1.5 2 2.6 2.5 2.2.7 8-1.8 6.8-4.7 1.2 3 5.8 1 4.6-1.9-.9-2.3-3.4-3.4-5.7-2.6-.1.1-.3.1-.4.2-.9.4-2.9 3.6-3.3 3.6s-1.8-3.6-2.4-4.2c-.2-.2-.4-.3-.6-.5l-14.2 15.9c.6-.1 1.3-.2 1.9-.4 4.4-1.2 5.3-4.3 7.2-7.9z"/><path d="m1728.2 29.4c4.9 2.5 8.2 5.9 5.5 11.8-1.4 2.9 3.3 4.8 4.6 1.9 2-3.9 1.8-8.5-.4-12.3-1-1.6-2.3-3-3.9-4-2-1.3-5.7-1.9-6.1-4.6-.4-3.2-5.4-2.5-5 .7s2.6 5.1 5.3 6.5z"/><path d="m1718.5 53c2.6.2 5 1.4 6.7 3.3 1.4 1.7 2.5 5.2-.3 6.3-3 1.1-1.7 6 1.3 4.8 4.3-1.6 6.5-6.3 4.9-10.6-1.6-4.8-6.5-7.9-11.3-8.6-3.1-.4-4.5 4.4-1.3 4.8z"/><path d="m1709.1 77.3c1.9 2.5 6.3 0 4.3-2.5-2.7-3.6-2.1-8.1 2-10.3 2.8-1.5.3-5.9-2.5-4.3-5.6 3-7.8 10-4.8 15.6.3.5.6 1 1 1.5z"/><path d="m1695.9 90.8c.3-.4.6-.7.8-1.1.7.8 1.5 1.5 2.5 1.9 4 1.5 7-1.7 8.9-4.8 1.7-2.7-2.6-5.2-4.3-2.5-.3.8-.9 1.4-1.7 1.6-1 1-1.4.9-1.4-.4-.5-.5-.6-1.5-1.2-2.1-1-1-2.4-1.3-3.7-1-1.4.4-1.9 1.3-2.6 2.5-.9 1.4-.2 2.6-2.3 3.7-2.8 1.4-5.3-1.3-4.8-4.1.6-3.1-4.2-4.5-4.8-1.3-1.7 8.5 8.6 15 14.6 7.6z"/><path d="m1740.4 75.9c-1.3.9-2.2 1.8-2.1 3.6 0 .3.7 2.1.6 2.3-.5.6-2.7-.4-3.5-.4-2.2 0-3.2 1-4.9 2.2-2.2 1.5-4.3 2.4-7 .7-1.5-1.1-2.8-2.5-3.8-4-2-2.5-5.6 1.1-3.5 3.5 2.3 2.8 4.8 5.6 8.4 6.5 3.8 1 5.7-.5 8.7-2.4s6.9.7 9.9-1.7c.8-.6 1.3-1.4 1.6-2.4.1-.6-.3-4.6-1.6-3.7 2.4-1.7-.1-6-2.8-4.2z"/><path d="m1755.4 41.6c-.3-.5-.9-.8-1.2-1.2l-.6-.2c-1.8-.4-1.8-1.8-.1-4.1 3.2.1 3.2-4.8 0-4.9-4.3-.2-8.2 3-7.6 7.5.3 2 1.4 3.7 3.1 4.8-1.1 0-2.3.2-3.3.5-3.9 1-6.7 5.2-3.7 8.7 2 2.3 5 1.3 1.4 4.4-1.9 1.6-3.2 2.3-4.2 4.7-1.2 2.9 3.6 4.2 4.8 1.3 1.3-3.3 6.5-3.3 6.8-7.8.1-1.4-.5-2.8-1.6-3.8-1.4-1.4-5.5-1.7-.9-2.8 2.8-.7 6.3-.1 7.5-3.4.3-1.5.2-2.7-.4-3.7z"/><path d="m1666.3 141.9c3.1 1 4.4-3.8 1.3-4.8-.8-.3-3.3-.8-2.6-2.2.3-.7 3.8.3 4.4.4 1.9.3 3.8 0 5.4-1 3.9-2.7 2.2-7.5 0-10.6-1.9-2.6-6.2-.1-4.3 2.5.7.9 2.7 3.1 1.2 4.1-1 .6-3.4-.3-4.4-.4-2.3-.3-4.8.1-6.4 2-3.9 4.5 1.4 8.7 5.4 10z"/><path d="m1673.8 80.8c3.1.9 4.4-3.9 1.3-4.8-.5-.1-1-.2-1.4-.3l-4.4 4.9c1.6-.2 3.1-.2 4.5.2z"/><path d="m1668.6 97.6 6 1.7c1.7.5 4.9.9 4 3.3-.6 1.4-1.9 2.3-2.3 3.8-.4 1.4-.3 3 .5 4.3 1.4 2.9 5.7.4 4.3-2.5-.4-.8 1.3-2.2 1.7-2.8.6-.8 1.1-1.8 1.2-2.9.2-1.6-.2-3.3-1.3-4.6-2.8-3.5-8.7-4-12.7-5.2-3.2-.8-4.5 4-1.4 4.9z"/><path d="m1730.1 95.6c-3.2.5-4.6 3.5-4.8 6.5-.1 1 .5 6.2-3.1 3.7-.4-.2-.4-2-.6-2.5-.4-1.4-1.2-2.7-2.4-3.7-1.3-.9-3-1.2-4.6-.6-.9.3-4.3 3.8-4.8 3.5-2.9-1.4-5.4 2.9-2.5 4.3s4.3.5 6.7-1c3.8-2.3 2.5-.3 3.8 2.3.6 1.3 1.5 2.3 2.7 3 2.5 1.4 5.7 1 7.7-1 1-1 1.7-2.3 1.9-3.8.2-.8-.2-2.3.1-3 .7-1.5 2.7-1.6 3.7.2 1.6 2.8 6 .3 4.3-2.5-1.6-2.9-4.2-6-8.1-5.4z"/><path d="m1744.4 98.4 6.7-7.4c-.2 0-.4 0-.6 0-3.9.4-5.8 4-6.1 7.4z"/><path d="m1757 82.8.6.9 3.4-3.8c-2-1.9-5.8.5-4 2.9z"/><path d="m1768.9 47.2c1.2-.7 1.6-2.2.9-3.4l-2.3-5.3c-.7-1.2-2.2-1.6-3.4-.9s-1.6 2.2-.9 3.4l2.3 5.3c.7 1.2 2.2 1.6 3.4.9z"/><path d="m1685.2 163-6.7 1.1c-1.3.4-2.1 1.7-1.8 3.1.4 1.3 1.8 2.1 3.1 1.8l1.7-.3 5-5.6c-.4-.2-.9-.2-1.3-.1z"/><path d="m1716.3 119.2c-.8 1.2-1.8 0-1.8-1 0-1.4-1.1-2.5-2.5-2.5s-2.5 1.1-2.5 2.5c-.2 3.3 2.4 6.1 5.7 6.3 2.2.1 4.2-1 5.4-2.8 1.8-2.7-2.6-5.2-4.3-2.5z"/><path d="m1728.1 115c-1.3-.3-2.7.4-3.1 1.7-.2.9.1 1.9.7 2.5l4.2-4.7c-.5.4-1.2.6-1.8.5z"/><path d="m1655.8 122.9c3.2.4 3.2-4.6 0-5 2.9.3 7-.7 8.7-3.5.7-1.2.3-2.7-.9-3.4-2-1.1-2.2-3.6.2-4.4 3-1 1.7-5.8-1.3-4.8-3.9 1.1-6.2 5.2-5 9.1.2.7.5 1.3.9 1.9-1.2.2-2.7.2-3.5.5-1.5.4-2.7 1.4-3.4 2.7-1.9 3.5.9 6.5 4.3 6.9z"/><path d="m1687.7 143c-2.2-1.4-5.2-1-6.9 1-1.2 1.4-.7 3.4-1.6 4.7-.7 1-3.5-.6-5.1-.5-1.5.1-2.7 1.1-3.3 2.4-.2 0-.4-.1-.6-.1-.4-.8-1.2-1.2-2.1-1.2h-.9c-2.6-.1-3.3 3.4-1.3 4.7 2.3 1.5 5.1 2 7.8 1.4 1.3-.4 2.1-1.8 1.7-3.1.5 1.6 1 2 2.9 2.3 1.3.2 2.7-.1 3.8-1 .7-.7 1.3-1.6 1.6-2.5.2-.4.2-1.8.5-2.1-.1-.9.3-1 1.1-.1 1.2.4 1.6 1.3 1.2 2.7.2 3.2 5.2 3.2 5 0s-.7-6.8-3.8-8.6z"/><path d="m1707.1 136.9c-.2.9.1 1.8.7 2.4l8.7-9.7c-4.4-.3-8.4 2.8-9.4 7.3z"/><path d="m1664.5 158.6c-3.1-2.3-7.5-1.7-9.8 1.4-1 1.4-1.5 3.1-1.4 4.8.3 3.2 5.3 3.2 5 0-.2-2.8 3.3-3.9 3.9-.9.5 2.5-1.9 4.8-3.5 6.5-2.2 2.3 1.3 5.9 3.5 3.5 3.7-3.9 8-11 2.3-15.3z"/><path d="m1669.7 175.5-8 5.6c-2.6 1.8-.1 6.2 2.5 4.3l6.3-4.4 2.8-3.1c.1-1.9-1.7-3.8-3.6-2.4z"/><path d="m1767.9 70.3-5-2.9c-1-.5-2.2-.4-3 .4-.9 1.2-2.1 2.2-3.6 2.7v-.1c.8-1.9-1.4-3.4-3.1-3.1l-8.3 1.6c-3.2.6-1.8 5.4 1.3 4.8l3.7-.7c0 1.2.7 2.2 1.9 2.6 3.7.7 7.4-.3 10.2-2.8l3.3 1.9.3.1 3.2-3.5c-.2-.5-.5-.8-.9-1z"/><path d="m1756.7 55.5c-2.7 1.7-.2 6 2.5 4.3 3.3-2.1 6.9.3 6.6 4.1-.2 3.2 4.8 3.2 5 0 .3-5.1-3.5-9.5-8.6-9.8-1.9-.1-3.8.4-5.5 1.4z"/><path d="m1788.3 44.2c-3.5-2.2-8.8-3.9-11.6.4-1 1.6-1.1 3.7-.3 5.4.5 1.1 1.4 2.2 1 3.5-.5 1.7-2.3 1.6-3.5.7-2.7-1.9-5.2 2.5-2.5 4.3 3.1 2.3 7.5 1.8 9.8-1.3 1.5-2 1.9-4.7.9-7-.4-1.1-1.7-2.6-.3-3.2 1.2-.5 3.1 1 4.1 1.6 2.6 1.6 5.1-2.7 2.4-4.4z"/><path d="m1697.6 129.4c.9 1.1.7 2.7-.4 3.6s-2.7.7-3.6-.4c-1.4-1.7-.4-4.5-1.9-6.3-3.3-4.3-8.5-1.3-11.4 1.6-2.3 2.3 1.3 5.8 3.5 3.5.9-.9 2.7-3.2 4.1-1 .3.4.1 1.6.2 2.1.2 1.4.9 2.7 1.9 3.7 1.9 2 4.7 2.8 7.4 2.3 5.8-1.3 6.9-8.4 3.6-12.5-1.9-2.7-5.4.9-3.4 3.4z"/><path d="m1689.2 104.9c3.8 1.2 5.8 5.3 4.6 9.1-.2.5-.4 1-.7 1.5-1.6 2.8 2.8 5.3 4.3 2.5 3.4-5.9 1.5-13.4-4.4-16.8-.8-.5-1.6-.8-2.5-1.1-3-1-4.3 3.8-1.3 4.8z"/><path d="m1703 96.4-5.7 3.2c-2.8 1.6-.3 5.9 2.5 4.3l5.7-3.2c2.9-1.5.3-5.8-2.5-4.3z"/><path d="m1691.2 156.2c-.1.5-.1 1 .1 1.5l2.9-3.3c-1.3-.2-2.6.5-3 1.8z"/><path d="m1707.7 37.8-4.3 4.8c1.2-.4 2.3-.9 3.4-1.5 1.1-.5 1.6-1.9 1.1-3-.1-.1-.2-.2-.2-.3z"/><path d="m1719.9 44.9 1.8.8c.6.3 1.3.4 1.9.2s1.2-.6 1.5-1.1c.6-1.1.4-2.9-.9-3.4l-1.8-.8c-.6-.3-1.3-.4-1.9-.2s-1.1.6-1.5 1.2c-.6.9-.4 2.7.9 3.3z"/><path d="m1634.9 124.7c.2-1.7 0-3.5-.4-5.2l-4.6 5.1c-.1 3.2 4.8 3.3 5 .1z"/><path d="m1637 137c6.9-1.4 9-9.5 4.5-14.5-2.2-2.4-5.7 1.2-3.5 3.5 2.1 2.4.6 5.6-2.3 6.2-3.2.6-1.8 5.4 1.3 4.8z"/><path d="m1639.7 145.8c4.3-2.4 9.6-2.4 14-.2 2.9 1.4 5.4-2.9 2.5-4.3-6-3.1-13.1-3-19 .2-2.9 1.6-.4 5.9 2.5 4.3z"/></g><path d="m1903.4 219.7c7.1-7.6 17-12.1 25.2-18.4 4.1-3.1 8.3-7.3 10.4-12 2.1-4.5 2.3-9.4-1.1-14.3-6.1-8.7-17.5-5.9-25.6-2.2-23.3 10.7-46.1 22.4-69.1 33.6-4.2 2-8.7 4.7-13.4 7-6 3-12.4 5.3-18.6 5-4.9-.2-8-2.4-9.5-5.6-1.4-3-1.5-6.9-.5-10.9 2.8-10.5 10.2-20.2 17.6-27.9 8-8.3 17.4-15.1 27.8-20 8.7-4.2 1.1-17.1-7.6-13-18.1 8.7-33.5 22.4-44.2 39.4-1.1 1.8-2.2 3.6-3.2 5.4-4.5 8.4-7.7 18.5-5.7 28.1.2.7.3 1.4.5 2 3.3 11 13.7 17.1 24.7 17.5 12.5.4 24.2-6.6 35.1-11.9l36.3-17.7c12.4-6 24.6-12.6 37.2-18.1 1.6-.7 3.4-.9 4.9-1.5-.6.7-1.6 2.2-1.7 2.3-.9.9-1.9 1.7-2.9 2.5-2.3 1.8-4.8 3.4-7.2 5-8.3 5.4-17.2 10.9-23.3 18.9-4.6 6-7.1 13.3-7.4 20.8 0 2.2.2 4.4.7 6.5.9 4.1 2.8 7.9 5.5 11.2 2.3 2.9 6.9 2.7 9.8.7.3-.2.6-.4.8-.7 3.1-3.1 2.6-7.5 0-10.6-.2-.3-.4-.5-.6-.8-3.8-6.3.7-15.6 5.1-20.3z" fill="#2ed3cb"/><path d="m1409.9 1507.3c-2.1-.1-4-.7-5.8-1.8-11.5-4.5-19.5-15-20.7-27.3-2 4-3 8.4-3 12.8.3 22.3 22 35.9 42.5 28.8 3.9-1.3 5.1-6.6 3.5-10-.5-1-1.2-1.9-2.1-2.6-4.7 1.1-9.6 1.1-14.4.1z" fill="#381c00"/><path d="m1389.1 1437.8c-7.7-2.7-16.6.5-24.5 1.3-9.5 1-19 .3-27.3-4.7-6.4-3.8-10.8-10.2-12.1-17.5-1.5 3-2.6 6.3-3 9.6-.9 8.9 3.5 17.5 11.2 22 7.8 4.6 16.6 5.3 25.4 4.3 8.4-.9 17.5-4.1 25.8-1.2 1.9.6 3.7 1.6 5.1 3 1.1-1.9 2.2-3.9 3.3-5.9 3.2-5.7 2-8.9-3.9-10.9z" fill="#381c00"/><path d="m1344.9 1413.9c0 .2.1.3.2.5.9-1 1.8-1.9 2.5-2.8 15.1-16.8 30.2-33.5 45.3-50.3 1.8-2 1.7-4.9.6-7.3-12.9 14.3-25.8 28.5-38.7 42.8-3.3 3.8-11.3 11.2-9.9 17.1z" fill="#381c00"/><path d="m1403.4 1472.7c1.4-2.5 2.5-5.1 3.2-7.8-.5.8-.9 1.7-1.4 2.5-.8 1.6-1.4 3.4-1.8 5.3z" fill="#381c00"/><path d="m1434 1492.7c-2.5-5.3-8.2-6.5-13.3-4.7-5.4 1.6-11.2-.2-14.8-4.6-2.3-3-3.2-6.9-2.4-10.7.3-1.8.9-3.6 1.8-5.3.4-.8.9-1.7 1.4-2.5 3.7-6.5 8-12.5 8.4-20.4.4-8.6-4-16.5-11-21.4-6.5-4.3-14.2-6.5-22-6.2-8.4.2-16.6 3-25 2.8-3.8-.1-10.5-1-12-5.3 0-.2-.1-.3-.2-.5-1.4-5.8 6.6-13.3 10-17.1 12.8-14.3 25.7-28.6 38.7-42.8l6.7-7.4c3.6-4 1.6-11.1-2.5-13.9-4.9-3.4-10.3-1.6-13.9 2.5-15.1 16.8-30.2 33.5-45.3 50.3-6.3 7.1-12.4 15.1-13.5 24.8-.3 2.2-.2 4.5.2 6.7 1.3 7.3 5.7 13.7 12.1 17.5 8.4 5 17.8 5.8 27.3 4.7 7.9-.8 16.8-4 24.5-1.3 5.9 2 7.1 5.3 4 11-1.1 2-2.2 3.9-3.3 5.9-3.6 6.2-6.8 12.4-6.7 20.1 0 1.2.1 2.4.2 3.6 1.2 12.2 9.2 22.8 20.7 27.3 1.9.8 3.8 1.3 5.8 1.8 4.8 1 9.7 1 14.5 0 1.7-.3 3.3-.8 4.9-1.3 5.1-2.1 6.8-9.2 4.7-13.6z" fill="#ffe552"/><path d="m1019.8 1490.7 2.5 9.4-15 5.1 15.7 59.1 11 4.6h57.4l-38.1-16-2.8-1.2-9.7-4.1 12-10.6 2.5-2.2 24.8-21.8 2.8-2.5 22.9-20.2 2.6-2.3 37.6-33.1-17.8 45.2-1.8 4.6-6.5 16.6-1.3 3.4-16 40.8-1.1 2.8-.2.5h4.2l48.7-124zm105.8-23-47.4 41.8-2.8 2.5-24.1 21.3-1.8 1.6-11.2 9.9-3-11.4-.8-3.1-5.5-20.6-1-3.7-3.4-12.8 40-13.6 2.9-1 38.4-13.1 2.2-.8 9.5-3.2 1.2-.4 15.5-5.3 3.3-1.1 4.6-1.6-3.4 3-1.9 1.7-8.7 7.7z" fill="#381c00"/><path d="m681.2 1567.8c9.3-7.7 21.6-11.7 33.6-9.6 4.8.8 9.3 2.8 13.1 5.8 2-45.4-19-90.2-56.3-117.4l-168.5 122.4h176.7c.4-.4.9-.8 1.4-1.2z" fill="#ffe552"/><path d="m76 1519.5c.1.1.2.2.3.2.1-.5.2-.9.2-1.4 3.7-22.6 7.5-45.2 11.2-67.8.5-2.9-.7-5.9-3.1-7.7-3.4 20-6.8 40-10 60-.6 4.5-2.4 13.2 1.4 16.7z" fill="#381c00"/><path d="m125.5 1515.9c-3.7 1.2-7 3.1-9.9 5.7h19.7c-.8-5.7-4-7.4-9.8-5.7z" fill="#381c00"/><path d="m225 1485.7 69 21.3 38.9-137.2-7.4 3.4 6.5-22.8-129.3 58.6 6.3 17-5.4 2.4zm94.1-124.2c-.1-.3-.3-.5-.6-.7l2.2-1zm-2.2 1.7c.1.1.3.2.4.2l-7.9 8.5-8.5-3.2 14.5-6.6zm-5 43.3c-.1.1-.3.2-.4.3l-7.7 8.8c-.5.6-.5 1.5.1 2.1.6.5 1.6.5 2.1-.1l4-4.5-4.5 15.7-5.7 2c-.8.3-1.2 1.1-.9 1.9 0 .1.1.2.1.3.4.6 1.1.9 1.8.6l3.7-1.3-11.7 41.4c-.7-.1-1.3.2-1.6.8-.2.5-.2 1 .1 1.5.1.2.4.4.6.5l.1.1-1.8 6.2-46.8-14.5.2-3.8c.1-.8-.6-1.5-1.4-1.6s-1.5.6-1.6 1.4l-.2 3.1-11.4-3.5 12.4-13.3 8.8 2.4c.8.2 1.6-.3 1.8-1.1s-.3-1.6-1.1-1.8l-7.3-2 22.5-24.2 3.7.4c.8.1 1.6-.5 1.7-1.3s-.5-1.6-1.3-1.7l-1.5-.1 20.8-22.3h.1l11.4 2.4c.8.2 1.6-.3 1.8-1.1s-.3-1.6-1.1-1.8c-.1 0-.1 0-.2 0l-9.7-2 32.7-35zm-64.1-13.6.1.4c.2.8.9 1.3 1.8 1.2.8-.2 1.3-.9 1.2-1.8 0 0 0 0 0-.1l-.2-1.1 36.7-16.6-.7 11c-.1.8.6 1.5 1.4 1.6s1.5-.6 1.6-1.4l.7-11.6c0-.3-.1-.6-.2-.9l8.2-3.7c0 .6.4 1.2 1 1.4l8 3-43.2 46.3-5.3-.6c-.8-.1-1.6.5-1.6 1.3 0 .3 0 .7.2.9.2.4.7.7 1.1.7l3 .3-21.9 23.5c-.7 0-1.3.4-1.5 1.1v.6l-10.7 11.4c-.4-.2-1-.2-1.4.1l.4 1-18.7-50z" fill="#381c00"/><path d="m673.2 1441.8-11.7-16.2-170.5 123.8-85.3-117.4-11.1 8 93.8 129h9.6z"/><path d="m677.4 1442.4-13.5-18.6 13.5-9.8-100.6-138.5-186.3 135.5 13.5 18.6-13.5 9.8 66 90.9 28.2 38.7h3.7l-93.7-129 11.1-8 85.3 117.4 170.5-123.8 11.7 16.2-175.3 127.2h5.1l168.4-122.3zm-225.5 48.1-23.2-32-1.2-1.6-33-45.4 12.2-8.9v-.2l2.8-2v.2l35.6-25.9s0-.1-.1-.1l11.8-8.6v.1l19.8-14.2 6.8 9.5 1.8 2.4 32.3 44.8 8.2 11.4 8.9 12.4 1.8 2.4 23.4 32.5 1.8 2.6 11.5 16-81.5 59.2-36.5-50.2zm-22-104.7c-.3.4-.6.7-1 .8zm49.2-35.5 97-70.5 97 133.6-97.7 70.9z" fill="#381c00"/><path d="m741.8 1413.9 38.9-19 38 30.4 43.7-21.3 37.9 30.4 43.7-21.3 33.8 27 7.5-9.3-5.8-4.7-3.6 4.5-34.7-27.8-43.7 21.3-38-30.3-43.7 21.3-37.9-30.4-40 19.5-.7-1.4-.7.4z"/><path d="m862 1407.5 38 30.4 43.7-21.3 34.7 27.8 11.2-14-8.2-6.6 5.8-7.2-43.6-34.9-43.8 21.3-38-30.4-43.7 21.3-38-30.4-50.1 24.5 5.9 12.1-3.5 1.7 7.9 16.2 39.9-19.5 38 30.4zm-82.2-40.4 38 30.4 43.7-21.3 38 30.4 43.7-21.3 39.8 31.7-7.5 9.4-33.8-27.1-43.7 21.3-38-30.4-43.7 21.3-38-30.4-38.9 19-5.2-10.8zm-41.8 37.1 39.9-19.5 38 30.4 43.7-21.3 38 30.4 43.7-21.3 34.7 27.8 3.6-4.5 5.9 4.7-7.5 9.4-33.9-27.1-43.7 21.3-38-30.4-43.7 21.3-38-30.4-38.9 19-5.3-10.8.8-.4z" fill="#381c00"/><path d="m739.3 1400.2 38.9-19 38 30.3 43.7-21.3 38 30.4 43.7-21.3 33.8 27 7.5-9.3-39.7-31.8-43.7 21.3-38-30.4-43.7 21.3-38-30.3-45.7 22.3z" fill="#85e8f8"/><path d="m673.2 1413.4-97-133.6-97.1 70.5 96.5 134z" fill="#2ed3cb"/><path d="m455.4 1494.8c-.1.1-.1.1-.2.2l36.5 50.2 81.5-59.2-11.5-16-5.1 7.1c-.3.4-.7.6-1.2.6-.3 0-.6-.1-.9-.3-.7-.5-.8-1.4-.3-2.1l5.7-7.9-23.4-32.5-3.5 2.2c-.2.1-.5.2-.8.2-.8 0-1.5-.7-1.5-1.5 0-.5.3-1 .7-1.3l3.3-2-8.9-12.4c-.1 0-.2 0-.2 0-.5 0-1-.3-1.2-.7l-6.5-9.7c-.2-.3-.3-.7-.2-1.1l-32.3-44.8-3 2.7c-.3.3-.6.4-1 .4-.8 0-1.5-.7-1.5-1.5 0-.4.2-.8.5-1.1l3.2-3-6.8-9.5-19.6 14.3c.4.6.3 1.5-.3 2l-9.2 7.1c-.3.2-.6.3-.9.3-.5 0-.9-.2-1.2-.6-.1-.1-.1-.2-.2-.3l-35.6 25.9 1 8.8c.1.8-.5 1.6-1.3 1.7h-.2c-.8 0-1.4-.6-1.5-1.3l-.8-7.2-12.2 8.9 32.9 45.4c.1 0 .3.1.4.2.5.3.8.8.7 1.4l23.2 32 3 2.2c.7.6.9 1.5.4 2.2zm5.1-47.8c.4-.7 1.3-1 2-.7l10.4 5.2c.7.4 1 1.3.7 2-.3.5-.8.8-1.3.8-.2 0-.5-.1-.7-.2l-10.4-5.2c-.8-.3-1-1.2-.7-1.9zm43.4 3.6c-.3-.8.1-1.6.8-1.9.8-.3 1.6.1 1.9.8l4.3 10.8c.3.8-.1 1.6-.8 1.9-.2.1-.4.1-.5.1-.6 0-1.2-.4-1.4-1zm-8.4 23.6c-.7-.5-.8-1.4-.4-2.1.5-.7 1.4-.8 2.1-.4l9.5 6.8c.7.5.8 1.4.3 2.1-.3.4-.7.6-1.2.6-.3 0-.6-.1-.9-.3zm8.3 22.6-2.6 11.4c-.2.7-.8 1.2-1.5 1.2-.1 0-.2 0-.3 0-.8-.2-1.3-1-1.1-1.8l2.6-11.4c.1-.8.9-1.4 1.7-1.2s1.4.9 1.2 1.7c.1.1.1.1 0 .1zm-31.3-15.8c-.7.4-1.6.2-2-.5l-5.9-10.1c-.4-.7-.2-1.6.5-2.1s1.6-.2 2.1.5c0 0 0 .1.1.1l5.9 10.1c.3.7.1 1.6-.7 2zm18.4-20.9-8.5 7.9c-.3.3-.6.4-1 .4-.8 0-1.5-.7-1.5-1.5 0-.4.2-.8.5-1.1l8.5-7.9c.7-.5 1.6-.3 2.1.4.4.5.3 1.2-.1 1.8zm-5.7-9.8c-.2.1-.5.2-.7.2-.5 0-1-.3-1.3-.8l-5.7-10.2c-.4-.7-.1-1.6.6-2s1.6-.1 2 .6l5.7 10.2c.3.7.1 1.6-.6 2zm-5.6-34.9h-.2c-.8 0-1.4-.6-1.5-1.3l-1.3-11.6c-.1-.8.5-1.6 1.3-1.7s1.6.5 1.7 1.3l1.3 11.6c.1.8-.4 1.6-1.3 1.7zm-2.8 10.7c.7.5.8 1.4.3 2.1l-7.1 9.2c-.3.4-.7.6-1.2.6-.3 0-.7-.1-.9-.3-.7-.5-.8-1.4-.3-2.1l7.1-9.2c.5-.7 1.4-.9 2.1-.3zm-2.8-36.6-8.1 8.5c-.3.3-.7.5-1.1.5s-.7-.2-1-.4c-.6-.6-.6-1.5 0-2.1l8.1-8.4c.6-.6 1.5-.6 2.1 0 .5.5.5 1.4 0 1.9zm-9.3 30c.4.7.1 1.6-.6 2s-1.6.1-2-.6l-5.7-10.2c-.4-.7-.1-1.6.6-2s1.6-.1 2 .6zm9.3 71.3-8 8.4c-.3.3-.7.5-1.1.5s-.7-.2-1-.4c-.6-.6-.6-1.5 0-2.1l8.1-8.4c.5-.6 1.5-.7 2.1-.2s.7 1.5.2 2.1c-.1-.1-.2 0-.3.1zm5.6 25.8h-.2c-.8 0-1.4-.6-1.5-1.3l-1.3-11.6c-.1-.8.5-1.6 1.3-1.7s1.6.5 1.7 1.3l1.3 11.6c.2.9-.4 1.6-1.3 1.7.1.1 0 .1 0 0zm8-20.5-3.5-11.1c-.3-.8.1-1.6.9-1.9s1.6.1 1.9.9v.1l3.4 11.2c.2.8-.2 1.6-1 1.9-.1 0-.3.1-.4.1-.6-.1-1.2-.5-1.3-1.2zm14.1 41.3c-.4.7-1.3 1-2 .7l-10.4-5.2c-.7-.4-1-1.3-.6-2s1.2-.9 1.9-.6l10.4 5.2c.8.3 1.1 1.2.7 1.9zm9.5-19.1-10 5.9c-.2.1-.5.2-.8.2-.8 0-1.5-.7-1.5-1.5 0-.5.3-1 .8-1.3l10.1-5.9c.7-.4 1.6-.2 2 .5.4.8.1 1.7-.6 2.1zm3.5-22.9c-.4 0-.9-.2-1.1-.5-.5-.6-.5-1.6.2-2.1l8.8-7.6c.6-.6 1.6-.5 2.1.1s.5 1.6-.1 2.1l-8.8 7.6c-.4.3-.8.5-1.1.4zm10 25.7c-.1-.1-.2-.2-.3-.3l-6.5-9.7c-.4-.7-.2-1.6.5-2.1.7-.4 1.5-.2 2 .4l6.5 9.7c.1.1.1.2.2.3zm3.5-46c-.3.2-.6.3-.9.3-.5 0-.9-.2-1.2-.6l-6.9-9.4c-.5-.7-.3-1.6.4-2.1.7-.4 1.5-.3 2 .3l6.9 9.4c.5.6.4 1.6-.3 2.1zm13.4 11.9c-.8 0-1.5-.7-1.5-1.5l-.2-11.7c0-.8.6-1.5 1.5-1.5s1.5.6 1.5 1.5l.2 11.7c.1.8-.6 1.5-1.5 1.5.1 0 .1 0 0 0zm17 1.3c.8-.3 1.6 0 2 .8.3.8 0 1.6-.8 2l-10.7 4.7c-.2.1-.4.1-.6.1-.8 0-1.5-.7-1.5-1.5 0-.6.3-1.1.9-1.4zm-21.6-29.8c.3-.8 1.1-1.2 1.9-.9l11 3.9c.8.3 1.2 1.1.9 1.9-.2.6-.8 1-1.4 1-.2 0-.3 0-.5-.1l-11-3.9c-.8-.2-1.2-1.1-.9-1.9zm.8 32.4c.7.4.9 1.3.5 2l-5.9 10c-.3.5-.8.7-1.3.7-.8 0-1.5-.7-1.5-1.5 0-.3.1-.5.2-.8l5.9-10c.5-.6 1.4-.8 2.1-.4 0 0 .1 0 0 0zm-4.8-44.7c.5-.7 1.4-.8 2.1-.3s.8 1.4.3 2.1c0 0-.1.1-.1.1l-7.4 9c-.5.7-1.4.8-2.1.3s-.8-1.4-.3-2.1c0 0 .1-.1.1-.1zm-15.5-15.7c.8-.1 1.6.5 1.7 1.3l1.3 11.6c.1.8-.5 1.6-1.3 1.7h-.2c-.8 0-1.4-.6-1.5-1.3l-1.3-11.6c-.1-.9.5-1.6 1.3-1.7zm-5.8-15.5c.4.7.1 1.6-.5 2l-10.1 6c-.7.4-1.6.2-2.1-.5-.4-.7-.1-1.6.5-2l10.1-5.9c.7-.5 1.6-.2 2.1.4zm-13.4-8.8 2.6-11.4c.1-.8.9-1.4 1.7-1.2s1.4.9 1.2 1.7v.2l-2.6 11.4c-.2.7-.8 1.2-1.5 1.2-.1 0-.2 0-.3 0-.8-.2-1.3-1-1.1-1.9 0 .1 0 .1 0 0zm2.7 27.9c.7.4 1 1.3.7 2-.4.7-1.3 1-2 .7l-10.4-5.2c-.7-.4-1-1.3-.7-2 .4-.7 1.3-1 2-.7zm-11.6-38.2c-.1 0-.3.1-.4.1-.7 0-1.2-.4-1.4-1.1l-3.4-11.2c-.2-.8.3-1.6 1.1-1.8.7-.2 1.5.2 1.8 1l3.4 11.2c.2.7-.3 1.6-1.1 1.8zm-45.1 45.8 6.8-9.5c.5-.7 1.5-.8 2.1-.3s.8 1.3.3 2l-6.8 9.5c-.4.7-1.4.9-2.1.4s-.9-1.4-.4-2.1c0 .1.1 0 .1 0zm-1.4-26.2 2.3-11.4c.2-.8 1-1.3 1.8-1.2s1.3 1 1.2 1.8l-2.3 11.4c-.1.7-.8 1.2-1.5 1.2h-.4c-.8-.1-1.3-.9-1.1-1.8 0 .1 0 .1 0 0zm22.3-48.4c.7-.4 1.6-.2 2.1.5l5.9 10.1c.4.7.2 1.6-.6 2.1-.2.1-.5.2-.7.2-.5 0-1-.3-1.3-.7l-5.9-10.1c-.5-.8-.3-1.7.5-2.1zm-21.7 18c.5-.7 1.4-.8 2.1-.3l9.5 6.8c.7.4.9 1.4.4 2.1s-1.4.9-2.1.4c0 0-.1-.1-.1-.1l-9.5-6.8c-.7-.5-.8-1.4-.3-2.1-.1 0-.1 0 0 0zm-22 15.8 10-6.1c.7-.5 1.6-.3 2.1.4s.3 1.6-.4 2.1c0 0-.1 0-.1.1l-10 6.1c-.2.1-.5.2-.8.2-.8 0-1.5-.7-1.5-1.5-.1-.5.2-1 .7-1.3zm-5.6 22.7c-.6-.5-.7-1.5-.2-2.1l7.4-9c.5-.6 1.5-.7 2.1-.2s.7 1.5.2 2.1l-7.4 9c-.5.6-1.5.7-2.1.2zm2.3 17.8c-.3.2-.6.3-.9.3-.5 0-.9-.2-1.2-.6l-6.9-9.4c-.5-.7-.3-1.6.3-2.1.7-.5 1.6-.3 2.1.3l6.9 9.4c.5.6.4 1.5-.3 2.1zm9.9-14.7c-.8-.2-1.3-1-1-1.8.2-.8 1-1.3 1.8-1 .1 0 .1 0 .2.1l11 3.9c.8.3 1.2 1.1.9 1.9-.2.6-.8 1-1.4 1-.2 0-.3 0-.5-.1zm3.7 26.6c-.8 0-1.5-.6-1.5-1.5l-.2-11.7c0-.8.6-1.5 1.4-1.5.8 0 1.5.6 1.5 1.4l.2 11.7c.1.9-.6 1.6-1.4 1.6zm7 8.9c-.8 0-1.5-.7-1.5-1.5 0-.6.4-1.2.9-1.4l10.7-4.7c.7-.4 1.6-.1 2 .7s.1 1.6-.7 2c-.1 0-.1 0-.2.1l-10.7 4.7c-.1.1-.3.1-.5.1zm7.8 14.8c-.8 0-1.5-.7-1.5-1.5 0-.5.2-.9.6-1.2l9.2-7.1c.6-.5 1.6-.5 2.1.1s.5 1.6-.1 2.1c0 0-.1.1-.1.1l-9.2 7.1c-.3.3-.7.4-1 .4z" fill="#2ed3cb"/><path d="m457 1408.8c-.7.4-1 1.3-.6 2l5.6 10.2c.4.7 1.3 1 2 .6s1-1.3.6-2l-5.6-10.2c-.4-.7-1.3-1-2-.6z" fill="#fff"/><path d="m499.5 1408h.3c.7 0 1.3-.5 1.5-1.2l2.6-11.4c.2-.8-.2-1.6-1-1.9-.8-.2-1.6.2-1.9 1v.2l-2.6 11.4c-.3.9.2 1.7 1.1 1.9-.1 0-.1 0 0 0z" fill="#fff"/><path d="m471.8 1387.4-8.1 8.4c-.6.6-.6 1.5 0 2.1.3.3.6.4 1 .4s.8-.2 1.1-.5l8-8.4c.6-.6.6-1.5 0-2.1-.5-.4-1.4-.4-2 .1z" fill="#fff"/><path d="m470.5 1379.2c.3.5.8.7 1.3.7.8 0 1.5-.7 1.5-1.5 0-.3-.1-.5-.2-.7l-5.9-10.1c-.4-.7-1.3-1-2.1-.5-.7.4-1 1.3-.5 2.1z" fill="#fff"/><path d="m485.2 1381.9c-.8.2-1.2 1.1-1 1.9l3.4 11.2c.2.7.8 1.1 1.5 1.1.1 0 .3 0 .4-.1.8-.2 1.2-1.1 1-1.9l-3.4-11.2c-.3-.8-1.1-1.3-1.9-1z" fill="#fff"/><path d="m480.2 1366.6c.3.3.7.5 1.1.5s.7-.1 1-.4l3-2.7-1.8-2.4-3.2 3c-.6.5-.6 1.4-.1 2z" fill="#fff"/><path d="m479.6 1402.2c-.1-.8-.8-1.4-1.7-1.3-.8.1-1.4.8-1.3 1.7l1.3 11.6c.1.8.7 1.3 1.5 1.3h.2c.8-.1 1.4-.8 1.3-1.7z" fill="#fff"/><path d="m517.8 1409.9 6.5 9.7c.3.4.7.7 1.2.7h.2l-8.2-11.4c0 .3.1.7.3 1z" fill="#fff"/><path d="m446.6 1375.8c.3 0 .6-.1.9-.3l9.2-7.1c.6-.5.7-1.4.3-2 0 0 0 0 0-.1l-11.8 8.6s0 .1.1.1c0 .1.1.2.2.3.3.3.7.5 1.1.5z" fill="#fff"/><path d="m409.2 1411.2h.2c.8-.1 1.4-.8 1.3-1.7l-1-8.8v-.2l-2.8 2v.2l.8 7.2c.1.8.7 1.3 1.5 1.3z" fill="#fff"/><path d="m443.8 1387.2 9.5 6.8c.7.5 1.6.4 2.1-.3s.4-1.6-.3-2.1c0 0-.1-.1-.1-.1l-9.5-6.8c-.7-.4-1.6-.2-2.1.4-.4.7-.2 1.6.4 2.1z" fill="#fff"/><path d="m429.9 1385.9-1 .7c.4-.1.8-.4 1-.7z" fill="#fff"/><path d="m422.3 1403.6c.3 0 .5-.1.8-.2l10-6.1c.7-.4 1-1.3.6-2s-1.3-1-2-.6c0 0-.1 0-.1.1l-10 6.1c-.7.4-.9 1.4-.5 2.1.2.4.6.6 1.2.6z" fill="#fff"/><path d="m471.8 1488.7-8.1 8.4c-.6.6-.6 1.5 0 2.1.3.3.6.4 1 .4s.8-.2 1.1-.5l8-8.4c.6-.6.7-1.5.1-2.1s-1.5-.7-2.1-.1z" fill="#fff"/><path d="m537.9 1460.5 11 3.9c.8.3 1.6-.1 1.9-.9.3-.8-.1-1.6-.9-1.9l-11-3.9c-.8-.3-1.6.1-1.9.9-.2.7.2 1.6.9 1.9z" fill="#fff"/><path d="m467.2 1468.9c-.4-.7-1.3-1-2-.6s-1 1.3-.6 2c0 0 0 .1.1.1l5.9 10.1c.4.7 1.3 1 2 .6s1-1.3.6-2c0 0 0-.1-.1-.1z" fill="#fff"/><path d="m489.4 1497.2c.8-.2 1.2-1.1 1-1.9l-3.4-11.2c-.2-.8-1-1.3-1.8-1.1s-1.3 1-1.1 1.8v.1l3.4 11.2c.2.6.8 1.1 1.4 1.1z" fill="#fff"/><path d="m524.6 1485.4c-.5-.6-1.5-.7-2.1-.2l-8.8 7.6c-.6.5-.7 1.5-.2 2.1.3.3.7.5 1.1.5s.7-.1 1-.4l8.8-7.6c.7-.5.7-1.4.2-2z" fill="#fff"/><path d="m541.3 1472.4c-.8 0-1.5.7-1.5 1.5l.2 11.7c0 .8.7 1.5 1.5 1.5.8 0 1.5-.7 1.5-1.5l-.2-11.7c0-.9-.7-1.5-1.5-1.5z" fill="#fff"/><path d="m547.2 1495.1c.2.5.8.9 1.4.9.2 0 .4 0 .6-.1l10.7-4.7c.8-.3 1.1-1.2.8-2s-1.2-1.1-2-.8l-10.7 4.7c-.7.3-1.1 1.2-.8 2z" fill="#fff"/><path d="m488.9 1457.9-8.5 7.9c-.6.6-.6 1.5-.1 2.1.3.3.7.5 1.1.5s.7-.1 1-.4l8.5-7.9c.5-.6.5-1.6-.2-2.1-.5-.5-1.3-.5-1.8-.1z" fill="#fff"/><path d="m525.8 1457.3c.6.5 1.6.4 2.1-.2l7.4-9c.6-.6.5-1.6-.1-2.1s-1.6-.5-2.1.1c0 0-.1.1-.1.1l-7.4 9c-.6.7-.5 1.6.2 2.1z" fill="#fff"/><path d="m554.5 1477.6c.3.2.6.3.9.3.5 0 .9-.2 1.2-.6l5.1-7.1-1.8-2.6-5.7 7.9c-.5.6-.4 1.6.3 2.1z" fill="#fff"/><path d="m521.5 1463.6c-.5-.7-1.5-.8-2.1-.3s-.8 1.4-.3 2l6.9 9.4c.3.4.7.6 1.2.6.3 0 .6-.1.9-.3.7-.5.8-1.4.3-2.1z" fill="#fff"/><path d="m530.4 1503.5c.2.1.5.2.8.2.5 0 1-.3 1.3-.7l5.9-10c.5-.7.3-1.6-.4-2.1s-1.6-.3-2.1.4c0 .1-.1.1-.1.2l-5.9 10c-.4.7-.2 1.6.5 2z" fill="#fff"/><path d="m509.6 1462.4c.2 0 .4 0 .5-.1.8-.3 1.1-1.2.8-1.9l-4.3-10.8c-.3-.8-1.2-1.1-1.9-.8-.8.3-1.1 1.2-.8 1.9l4.3 10.8c.2.5.8.9 1.4.9z" fill="#fff"/><path d="m505.8 1481.2c.8 0 1.5-.7 1.5-1.5 0-.5-.2-.9-.6-1.2l-9.5-6.8c-.7-.5-1.6-.3-2.1.3-.5.7-.3 1.6.4 2.1l9.5 6.8c.2.2.5.3.8.3z" fill="#fff"/><path d="m480.1 1438.1c-.4-.7-1.3-1-2-.6s-1 1.3-.6 2l5.7 10.2c.3.5.8.8 1.3.8.3 0 .5-.1.7-.2.7-.4 1-1.3.6-2z" fill="#fff"/><path d="m439.6 1430.7c.8 0 1.5-.7 1.5-1.5 0-.6-.4-1.2-1-1.4l-11-3.9c-.8-.3-1.6.1-1.9.9s.1 1.6.9 1.9l11 3.9c.1 0 .3.1.5.1z" fill="#fff"/><path d="m457 1467.5c-.5-.7-1.4-.8-2.1-.3l-9.2 7.1c-.7.5-.8 1.5-.3 2.1.3.4.7.6 1.2.6.3 0 .6-.1.9-.3l9.2-7.1c.7-.5.8-1.4.3-2.1z" fill="#fff"/><path d="m474.7 1426.3-7.1 9.2c-.5.6-.4 1.6.3 2.1.3.2.6.3.9.3.5 0 .9-.2 1.2-.6l7.1-9.2c.5-.7.4-1.6-.3-2.1s-1.6-.3-2.1.3z" fill="#fff"/><path d="m431.5 1438.6c-.8 0-1.5.7-1.5 1.5l.2 11.7c0 .8.7 1.5 1.5 1.5.8 0 1.5-.7 1.5-1.5l-.2-11.7c-.1-.8-.7-1.5-1.5-1.5z" fill="#fff"/><path d="m450.8 1455.4c-.3-.8-1.2-1.1-2-.8l-10.7 4.7c-.8.3-1.1 1.2-.8 2 .2.6.8.9 1.4.9.2 0 .4 0 .6-.1l10.7-4.7c.8-.3 1.1-1.2.8-2z" fill="#fff"/><path d="m418 1423.3 7.4-9c.5-.6.4-1.6-.2-2.1s-1.6-.4-2.1.2l-7.4 9c-.5.6-.4 1.6.2 2.1s1.6.5 2.1-.2z" fill="#fff"/><path d="m444.6 1443.8c.7.5 1.6.3 2.1-.3l6.8-9.5c.4-.7.3-1.6-.4-2.1-.7-.4-1.5-.3-2 .3l-6.8 9.5c-.5.7-.4 1.6.3 2.1z" fill="#fff"/><path d="m472.3 1454.4c.8 0 1.5-.7 1.5-1.5 0-.6-.3-1.1-.8-1.3l-10.4-5.2c-.7-.4-1.6-.1-2 .7-.4.7-.1 1.6.7 2l10.4 5.2c.1 0 .3.1.6.1z" fill="#fff"/><path d="m411.7 1429.8c-.5-.7-1.4-.8-2.1-.3s-.8 1.4-.3 2.1l6.9 9.4c.3.4.7.6 1.2.6.8 0 1.5-.7 1.5-1.5 0-.3-.1-.6-.3-.9z" fill="#fff"/><path d="m428 1442.2c-.1-.1-.3-.1-.4-.2l1.2 1.6c0-.6-.3-1.2-.8-1.4z" fill="#fff"/><path d="m455.4 1494.8c.5-.7.3-1.6-.3-2.1l-3-2.2h-.1l3.3 4.5s0-.1.1-.2z" fill="#fff"/><path d="m445.8 1416.1 2.3-11.4c.2-.8-.4-1.6-1.2-1.8s-1.6.4-1.8 1.2l-2.3 11.4c-.2.8.3 1.6 1.1 1.8h.3c.8 0 1.4-.5 1.6-1.2z" fill="#fff"/><path d="m499 1422.4c.4.7 1.3 1 2.1.5l10-5.9c.7-.4.9-1.4.5-2.1s-1.3-.9-2-.5l-10.1 5.9c-.7.5-.9 1.4-.5 2.1z" fill="#fff"/><path d="m517.5 1443.7c.1.7.7 1.3 1.5 1.3h.2c.8-.1 1.4-.8 1.3-1.7l-1.3-11.6c-.1-.8-.8-1.4-1.7-1.3-.8.1-1.4.8-1.3 1.7z" fill="#fff"/><path d="m488.5 1429.6c-.4.7-.1 1.6.7 2l10.4 5.2c.7.4 1.6.1 2-.7.4-.7.1-1.6-.7-2l-10.4-5.2c-.7-.4-1.6-.1-2 .7.1 0 .1 0 0 0z" fill="#fff"/><path d="m530.9 1436.7c.3.4.8.7 1.3.7.3 0 .5-.1.8-.2l3.5-2.2-1.8-2.4-3.3 2c-.8.4-1 1.4-.5 2.1-.1 0 0 0 0 0z" fill="#fff"/><path d="m324.8 1361.2-32.7 35 9.7 2c.8.1 1.4.9 1.3 1.7s-.9 1.4-1.7 1.3c-.1 0-.1 0-.2 0l-11.4-2.4h-.1l-20.8 22.3 1.5.1c.8.1 1.4.8 1.3 1.7-.1.8-.8 1.4-1.7 1.3l-3.7-.4-22.5 24.2 7.3 2c.8.2 1.3 1 1.1 1.8s-1 1.3-1.8 1.1l-8.8-2.4-12.4 13.3 11.4 3.5.2-3.1c.1-.8.8-1.5 1.6-1.4s1.5.8 1.4 1.6l-.2 3.8 46.8 14.5 1.8-6.2-.1-.1c-.2-.1-.5-.3-.6-.5-.3-.4-.3-1-.1-1.5.3-.6 1-.9 1.6-.8l11.7-41.4-3.7 1.3c-.7.2-1.4 0-1.8-.6-.1-.1-.1-.2-.1-.3-.3-.8.1-1.6.9-1.9l5.7-2 4.5-15.7-4 4.5c-.6.6-1.5.7-2.1.1-.1-.1-.2-.2-.3-.3-.3-.6-.3-1.3.1-1.8l7.7-8.8c.1-.1.2-.2.4-.3zm-69.8 79.6 5.6-10.2c.4-.7 1.3-1 2-.6s1 1.3.6 2l-5.6 10.2c-.4.7-1.3 1-2 .6-.2-.1-.4-.3-.6-.5-.3-.4-.3-1 0-1.5zm29.4-20.9c-.6.5-1.6.4-2.1-.2l-.1-.1c-.4-.7-.3-1.5.3-2l9.1-7.2c.6-.5 1.6-.4 2.1.2s.4 1.6-.2 2.1zm-16.8 40.8-6.9 9.4c-.5.7-1.4.8-2.1.3-.2-.1-.3-.3-.4-.4-.3-.5-.3-1.2.1-1.7l6.9-9.4c.5-.6 1.5-.7 2.1-.2s.7 1.4.3 2zm21.7 1.2-9.1 7.2c-.6.5-1.6.5-2.1-.1l-.1-.1c-.4-.7-.3-1.5.3-2l9.1-7.2c.6-.5 1.6-.4 2.1.2s.4 1.5-.2 2zm10.2-15.2c-.4.7-1.3 1-2 .6l-10.3-5.4c-.2-.1-.4-.3-.6-.5-.3-.4-.3-1-.1-1.5.4-.7 1.3-1 2-.6l10.3 5.4c.8.4 1.1 1.2.7 2zm-22.9-10.6 1.1 11.6c.1.8-.5 1.6-1.4 1.6-.6.1-1.1-.2-1.4-.7-.1-.2-.2-.4-.2-.7l-1.1-11.6c-.1-.8.5-1.6 1.4-1.6.8 0 1.5.6 1.6 1.4zm39.6-52.2-5.4 10.3c-.4.7-1.3 1-2 .6-.2-.1-.4-.3-.6-.5-.3-.5-.3-1-.1-1.5l5.4-10.3c.4-.7 1.3-1 2-.6.9.4 1.2 1.3.7 2z" fill="#9496ff"/><path d="m318.6 1360.8c.3.2.5.4.6.7l1.6-1.7z" fill="#2ed3cb"/><path d="m309.4 1371.9 7.9-8.5c-.1 0-.3-.1-.4-.2l-1.5-1-14.5 6.6z" fill="#2ed3cb"/><path d="m226.3 1461.1-.4-1c.4-.2.9-.3 1.4-.1l10.7-11.4c0-.2 0-.4 0-.6.2-.7.8-1.1 1.5-1.1l21.9-23.5-3-.3c-.5 0-.9-.3-1.1-.7-.2-.3-.3-.6-.2-.9.1-.8.8-1.4 1.6-1.3l5.3.6 43.2-46.3-8-3c-.6-.2-1-.8-1-1.4l-8.2 3.7c.2.3.2.6.2.9l-.7 11.6c-.1.8-.8 1.5-1.6 1.4s-1.5-.8-1.4-1.6l.7-11-36.6 16.6.2 1.1c.2.8-.3 1.6-1.1 1.8s-1.6-.3-1.8-1.1c0 0 0 0 0-.1l-.1-.4-40.2 18.2zm4-23.7-5.4 10.3c-.4.7-1.3 1-2 .6-.2-.1-.4-.3-.6-.5-.3-.5-.3-1-.1-1.5l5.4-10.3c.4-.7 1.3-1 2-.6s1.1 1.3.7 2zm16.4-2.6c-.8.1-1.6-.5-1.6-1.4l-1.1-11.6c-.1-.8.5-1.6 1.4-1.6s1.6.5 1.6 1.4l1.1 11.6c0 .8-.6 1.5-1.4 1.6zm29.7-35.8-5.6 10.2c-.4.7-1.3 1-2 .6-.2-.1-.4-.3-.5-.5-.3-.5-.3-1.1 0-1.5l5.6-10.2c.4-.7 1.3-1.1 2-.7s1.1 1.3.7 2c0 0 0 0-.2.1zm-13.7-10.4 10.9-4c.8-.3 1.6.1 1.9.9s-.1 1.6-.9 1.9l-10.9 4.1c-.7.2-1.4 0-1.8-.6-.1-.1-.1-.2-.1-.3-.3-.8.1-1.7.9-2zm-21.5 15 11.6.8c.8.1 1.5.8 1.4 1.6s-.8 1.5-1.6 1.4l-11.7-.7c-.8-.1-1.5-.8-1.4-1.6.1-.9.8-1.6 1.7-1.5zm-20.2 4.5c.5-.7 1.4-.9 2.1-.4l9.6 6.6c.7.4 1 1.3.5 2.1-.4.7-1.3 1-2.1.5-.1 0-.1-.1-.2-.1l-9.6-6.6c-.6-.5-.8-1.4-.3-2.1zm-8.6 14.9c.3-.8 1.2-1.2 1.9-.9l10.9 4c.8.3 1.1 1.2.8 2-.3.7-1.1 1-1.8.8l-10.9-4.1c-.2-.1-.5-.3-.6-.5l-.4-.9c0-.1 0-.2.1-.4z" fill="#2ed3cb"/><path d="m267.3 1458.7c-.7-.5-1.6-.4-2.1.3l-6.9 9.4c-.4.5-.4 1.2-.1 1.7.4.7 1.3.9 2 .5.2-.1.3-.2.4-.4l6.9-9.4c.6-.7.5-1.7-.2-2.1z" fill="#381c00"/><path d="m255.6 1442.8c.7.4 1.6.1 2-.6l5.6-10.2c.4-.7.1-1.6-.6-2s-1.6-.1-2 .6l-5.6 10.2c-.3.5-.3 1.1 0 1.5.1.2.3.4.6.5z" fill="#381c00"/><path d="m313.6 1382.5-5.4 10.3c-.2.5-.2 1 .1 1.5.1.2.3.4.6.5.7.4 1.6.1 2-.6l5.4-10.3c.4-.7.1-1.6-.6-2-.9-.4-1.8-.1-2.1.6z" fill="#381c00"/><path d="m288.5 1439.2c-.7-.4-1.6-.1-2 .6-.3.5-.2 1 .1 1.5.1.2.3.4.6.5l10.3 5.4c.7.4 1.6.1 2-.6s.1-1.6-.6-2z" fill="#381c00"/><path d="m287.4 1459.6-9.1 7.2c-.6.5-.8 1.3-.3 2l.1.1c.5.6 1.5.8 2.1.2l9.1-7.2c.6-.5.8-1.5.2-2.1s-1.5-.7-2.1-.2z" fill="#381c00"/><path d="m293.7 1410.6c-.5-.6-1.5-.8-2.1-.2l-9.1 7.2c-.6.5-.8 1.3-.3 2l.1.1c.5.6 1.5.8 2.1.2l9.1-7.2c.6-.5.7-1.5.2-2.1z" fill="#381c00"/><path d="m273.6 1436.4 1.1 11.6c0 .2.1.5.2.7.4.7 1.4.9 2.1.5.5-.3.8-.9.7-1.4l-1.1-11.6c-.1-.8-.8-1.4-1.6-1.4-.9.1-1.5.8-1.4 1.6z" fill="#381c00"/><path d="m245.4 1420.2c-.8.1-1.4.8-1.4 1.6l1.1 11.6c.1.8.8 1.4 1.6 1.4.8-.1 1.4-.8 1.4-1.6l-1.1-11.6c-.1-.9-.8-1.5-1.6-1.4z" fill="#381c00"/><path d="m229.6 1435.4c-.7-.4-1.6-.1-2 .6l-5.4 10.3c-.2.5-.2 1 .1 1.5.1.2.3.4.6.5.7.4 1.6.1 2-.6l5.4-10.3c.4-.7.1-1.6-.7-2z" fill="#381c00"/><path d="m212.6 1424.4c.2.2.4.4.6.5l10.9 4.1c.8.2 1.6-.3 1.8-1s-.2-1.5-.8-1.8l-10.9-4c-.8-.3-1.6.1-1.9.9-.1.2-.1.4-.1.5z" fill="#381c00"/><path d="m221.4 1410.2 9.6 6.6c.6.5 1.6.4 2.1-.2s.4-1.6-.2-2.1c-.1 0-.1-.1-.2-.1l-9.6-6.6c-.7-.5-1.6-.3-2.1.4s-.3 1.5.4 2z" fill="#381c00"/><path d="m241 1406.6 11.6.8c.8.1 1.5-.6 1.6-1.4s-.6-1.5-1.4-1.6l-11.6-.8c-.8-.1-1.5.6-1.6 1.4 0 .3.1.6.2.9.3.4.7.7 1.2.7z" fill="#381c00"/><path d="m275.9 1397c-.7-.4-1.6-.1-2 .6l-5.6 10.2c-.3.5-.3 1.1 0 1.5.1.2.3.4.5.5.7.4 1.6.1 2-.6l5.6-10.2c.4-.7.2-1.6-.5-2z" fill="#381c00"/><path d="m262 1390.8c.4.6 1.1.9 1.8.6l10.9-4.1c.8-.3 1.2-1.2.9-1.9-.3-.8-1.1-1.1-1.9-.9l-10.9 4c-.8.3-1.2 1.2-.9 1.9 0 .2 0 .3.1.4z" fill="#381c00"/><path d="m894.5 1522.2c.2-.8.4-1.6.6-2.5 2-10.1-.9-20.9-11-25.7-10.8-5.1-22.9-1.3-31.4 6.3-9.8 8.9-16.2 22.2-23.1 33.3l-22.2 35.3h17.7l17.5-27.8c3.5-5.7 7.1-11.3 10.6-16.9 3.2-5.1 6.5-10.7 11.4-14.4 1-.8 2.1-1.4 3.3-1.9 2.5-1.1 5.4-1.4 8.1-.9 3.1.8 5.3 3.2 4.7 7.8-.4 2.7-1.2 5.4-2.4 7.9-.8 2-1.8 3.9-2.7 5.7l-8.9 18.6c-3.5 7.3-7 14.5-10.5 21.8h16.6l5.2-10.8c5.6-11.4 13-23.3 16.5-35.8z" fill="#fe89e2"/><path d="m132.4 1495.5c-8.1-.7-16.3 1.5-23 6.1-6.9 4.6-12.3 11.1-19.2 15.6-3.4 2.3-10.1 5.6-13.9 2.5-.1-.1-.2-.2-.3-.2-3.7-3.5-2-12.2-1.3-16.5 3.1-20 6.6-40 10-60 .4-2.6.9-5.2 1.3-7.7.9-5.3-1.4-10.8-7-12.3-4.8-1.3-11.4 1.6-12.3 7-3.8 22.6-7.6 45.2-11.2 67.8-1.3 7.9-2.3 16.2-.2 24h60.4c2.9-2.6 6.2-4.5 9.9-5.7 5.8-1.7 9 0 9.8 5.7h19.8c-.1-3.9-.8-7.8-2.3-11.4-3.7-8.8-11.4-13.9-20.5-14.9z" fill="#2ed3cb"/><path d="m44.6 351.2 33.8 27.1 7.5-9.4-5.9-4.7-3.6 4.5-34.7-27.7-41.7 20.3v10.6l.9.6z"/><path d="m42.1 337.5 33.8 27 7.5-9.4-39.7-31.8-43.7 21.3v13.4z" fill="#85e8f8"/><path d="m.4 341.1-.4-.3v3.8l43.7-21.3 39.7 31.8-7.5 9.4-33.8-27-42.1 20.5v3.3l41.7-20.3 34.7 27.7 3.6-4.5 5.9 4.7-7.5 9.4-33.8-27.1-43.7 21.3-.9-.6v3.8l.5.4 43.7-21.3 34.7 27.7 11.2-14-8.2-6.6 5.8-7.2-43.6-34.9z" fill="#381c00"/><path d="m43.3 784.2 11.6-13-31.2-27.6-23.7 2.6v3l22.7-2.5 26.6 23.6-25.5 3.7-23.8-21.1v4l21.2 18.8-21.2 23.9v4.5l24.1-27.1 24.9-3.6-49 55.3v21.8l51.9-58.7z" fill="#1e0f00"/><path d="m21.2 775.7-21.2-18.8v42.7z" fill="#ef9da3"/><path d="m49 773.4-24.9 3.6-24.1 27.1v24.6z" fill="#ffe552"/><path d="m23.8 774 25.5-3.7-26.6-23.6-22.7 2.5v3.7z" fill="#2ed3cb"/><path d="m30.3 569.9c6.7-9.7 12.5-21.1 7.4-32.8-1.5 6.2-4.9 12.1-8.6 17.5-1.8 2.8-5.3 4-8.5 3.1-1.1 1.7-2.3 3.3-3.3 4.8-5.5 7.9 7.5 15.3 13 7.4z" fill="#381c00"/><path d="m23.5 530.8c-.1-2.6-1.2-4.4-2.9-5.3-2.4-.1-4.7.1-7 .7-4.6 2.5-7.9 7.8-10.9 11.8l-2.7 3.8v17l3.9-5.3c3.2-4.4 6.8-10.1 12-12.3 1.4-.7 3.1-.9 4.7-.6 1.8-3.2 3.1-6.4 2.9-9.8z" fill="#381c00"/><path d="m29.1 554.5c3.7-5.4 7.1-11.3 8.6-17.5 1.3-5.2.9-10.7-1.3-15.7-5-11.3-18-13.8-28.5-9-2.9 1.3-5.5 3.1-7.9 5.3v24.1l2.7-3.7c3-4.1 6.3-9.3 10.9-11.8.4-.2.7-.4 1.1-.5 1.8-.9 4-1 5.9-.2 1.6.8 2.7 2.6 2.9 5.3.2 3.3-1.2 6.6-3 9.6-1.4 2.3-3 4.6-4.4 6.6-3.3 4.8.1 9.4 4.5 10.6 3.2 1 6.7-.2 8.5-3.1z" fill="#fe89e2"/><path d="m455.1 41.4c37.9 98.4 168.1 118.8 234.4 36.8 11.9-14.6 20.7-31.6 25.7-49.7-2.2-2.8-5.2-4.6-8.6-5.4-22.5-5.6-34.9 20.9-42.3 37.1-1.7 3.7-7 4.7-10.2 2.8-3.7-2.2-4.5-6.5-2.8-10.2.7-1.6 1.5-3.2 2.2-4.8-.2-.1-.4-.2-.7-.3-3.7-2.2-4.5-6.5-2.8-10.2 5.6-12.1 11.6-24.8 21.8-33.8h-176.6l-12.1 8.8-6.4-8.8h-30.4c1.1 12.8 4.1 25.6 8.8 37.7z" fill="#ffe552"/><path d="m143.1 31.4c.5 4.1 1.9 8.1 4.1 11.6 11.2 17.7 37.3 19.9 50.6 3.1 2.5-3.2 3.1-7.5 0-10.6-1.1-1-2.4-1.7-3.9-2-13.8 15.2-38.2 13.3-50.8-2.1z" fill="#381c00"/><path d="m78.9 19.2c-6.9-.2-13.3-3.3-17.9-8.3.3 2.6.9 5.2 1.9 7.6 3.3 8.4 11.2 14 20.2 14.4 9 .5 17.4-3.6 24.3-9s13.1-13.5 21.7-15.9c2.2-.7 4.5-.8 6.7-.3-.1-2.2-.2-4.5-.4-6.8 0-.3-.1-.6-.1-.9h-19.7c-3.7 3.1-7.2 6.7-10.7 9.5-7.4 5.8-16.4 10.3-26 9.7z" fill="#381c00"/><path d="m156.9 15.8c-.1-2.9-.6-5.8-1.5-8.5.1 1.6.2 3.1.4 4.7.2 1.3.5 2.5 1.1 3.8z" fill="#381c00"/><path d="m154 205.5-7.4 9c-.5.7-.4 1.6.3 2.1.6.5 1.5.4 2-.2l7.4-9c.6-.6.5-1.6-.1-2.1s-1.6-.5-2.2.2z" fill="#1e0f00"/><path d="m127.8 208.8c-.3-.8-1.2-1.1-1.9-.8-.8.3-1.2 1.2-.9 2l4.3 10.8c.2.6.8 1 1.4 1 .2 0 .4 0 .6-.1.8-.3 1.1-1.2.8-1.9z" fill="#1e0f00"/><path d="m119.4 165.5c-.2.8.3 1.6 1.1 1.8h.3c.7 0 1.3-.5 1.5-1.2l2.6-11.4c.2-.8-.2-1.6-1-1.9-.8-.2-1.6.2-1.9 1v.2z" fill="#1e0f00"/><path d="m132.7 174.3c-.4-.7-1.3-.9-2-.5l-10.1 5.9c-.7.4-1 1.3-.7 2 .4.7 1.3 1 2 .7.1 0 .1-.1.2-.1l10-5.9c.8-.4 1-1.3.6-2.1z" fill="#1e0f00"/><path d="m140.2 191.1c-.1-.8-.8-1.4-1.7-1.3s-1.4.8-1.3 1.7l1.4 11.6c.1.8.7 1.3 1.5 1.3h.2c.8-.1 1.4-.8 1.3-1.7z" fill="#1e0f00"/><path d="m122 193.4-10.4-5.2c-.7-.4-1.6-.1-2 .7-.4.7-.1 1.6.7 2l10.4 5.2c.2.1.4.2.7.2.8 0 1.5-.7 1.5-1.5-.1-.6-.4-1.1-.9-1.4z" fill="#1e0f00"/><path d="m145.3 178.9c.3.4.7.7 1.2.7.8 0 1.5-.7 1.5-1.5 0-.3-.1-.6-.2-.8l-6.5-9.7c-.5-.7-1.4-.9-2.1-.4s-.9 1.4-.4 2.1z" fill="#1e0f00"/><path d="m162.4 187.9-9.9 6.1c-.7.4-.9 1.4-.5 2.1.3.4.8.7 1.3.7.3 0 .5-.1.8-.2l9.9-6.1c.7-.4.9-1.4.5-2.1s-1.4-1-2.1-.5z" fill="#1e0f00"/><path d="m92.8 146.8-8.1 8.4c-.6.6-.6 1.5 0 2.1.3.3.6.4 1 .4s.8-.2 1.1-.5l8.1-8.4c.6-.6.6-1.6 0-2.1s-1.5-.5-2.1.1z" fill="#1e0f00"/><path d="m108.6 154.2c.2.6.8 1.1 1.4 1.1.1 0 .3 0 .4-.1.8-.2 1.2-1.1 1-1.9l-3.4-11.1c-.2-.8-1-1.3-1.8-1.1s-1.3 1-1.1 1.8v.1z" fill="#1e0f00"/><path d="m100.6 161.5c-.1-.8-.8-1.4-1.7-1.3s-1.4.8-1.3 1.7l1.4 11.6c.1.8.7 1.3 1.5 1.3h.2c.8-.1 1.4-.8 1.3-1.6 0 0 0 0 0-.1z" fill="#1e0f00"/><path d="m97.8 185.4c-.7-.5-1.6-.4-2.1.3l-7.2 9.2c-.5.7-.4 1.6.3 2.1.3.2.6.3.9.3.5 0 .9-.2 1.2-.6l7.2-9.2c.5-.7.4-1.6-.3-2.1z" fill="#1e0f00"/><path d="m91.5 138.5c.3.5.8.8 1.3.8.3 0 .5-.1.8-.2.7-.4.9-1.3.5-2l-5.8-10.1c-.4-.7-1.3-1-2.1-.5s-1 1.3-.5 2.1z" fill="#1e0f00"/><path d="m80 168.7c-.4-.7-1.3-1.1-2-.7s-1.1 1.3-.7 2c0 .1.1.1.1.2l5.7 10.2c.3.5.8.8 1.3.8.8 0 1.5-.7 1.5-1.5 0-.3-.1-.5-.2-.7z" fill="#1e0f00"/><path d="m68 162.2c-.8-.2-1.6.4-1.8 1.2l-2.3 11.4c-.2.8.4 1.6 1.2 1.8h.3c.7 0 1.3-.5 1.5-1.2l2.3-11.4c.1-.8-.4-1.6-1.2-1.8z" fill="#1e0f00"/><path d="m67.7 135.1c.3 0 .7-.1.9-.3l9.2-7.1c.6-.6.6-1.5.1-2.1-.5-.5-1.3-.6-1.9-.3l-9.2 7.1c-.7.5-.8 1.4-.3 2.1.3.4.7.6 1.2.6z" fill="#1e0f00"/><path d="m76.1 150.8-9.5-6.8c-.7-.5-1.6-.3-2.1.3-.5.7-.3 1.6.3 2.1l9.5 6.8c.3.2.6.3.9.3.8 0 1.5-.7 1.5-1.5 0-.5-.2-1-.6-1.2z" fill="#1e0f00"/><path d="m171 220.8-11-3.9c-.8-.3-1.6.1-1.9.9s.1 1.6.9 1.9l11 3.9c.8.3 1.6-.1 1.9-.9.3-.7-.1-1.6-.9-1.9z" fill="#1e0f00"/><path d="m207.7 219.1c-.6-.5-1.6-.4-2.1.3l-7.1 9.2c-.5.7-.4 1.6.3 2.1s1.6.4 2.1-.3l7.1-9.2c.4-.6.3-1.6-.3-2.1z" fill="#1e0f00"/><path d="m184.1 225c-.7-.5-1.6-.3-2.1.3l-6.8 9.5c-.5.7-.3 1.6.3 2.1s1.6.3 2.1-.3l6.8-9.5c.5-.7.3-1.6-.3-2.1z" fill="#1e0f00"/><path d="m203.9 244.6-10.4-5.2c-.7-.5-1.6-.3-2.1.4s-.3 1.6.4 2.1c.1.1.2.1.3.1l10.4 5.2c.7.4 1.6.1 2-.7s.1-1.6-.6-1.9z" fill="#1e0f00"/><path d="m187.9 201.9c-.7.4-1 1.3-.6 2l5.7 10.2c.3.5.8.8 1.3.8.3 0 .5-.1.7-.2.7-.4 1-1.3.6-2l-5.7-10.2c-.3-.8-1.2-1.1-2-.6 0-.1 0-.1 0 0z" fill="#1e0f00"/><path d="m175.2 210.4c.7 0 1.3-.5 1.5-1.2l2.3-11.4c.2-.8-.4-1.6-1.2-1.8s-1.6.4-1.8 1.2l-2.3 11.4c-.2.8.4 1.6 1.2 1.8z" fill="#1e0f00"/><path d="m208.8 207.1c.1.8.7 1.3 1.5 1.3h.2c.8-.1 1.4-.8 1.3-1.7l-1.3-11.6c-.1-.8-.8-1.4-1.7-1.3s-1.4.8-1.3 1.7z" fill="#1e0f00"/><path d="m174.7 180.2 9.5 6.8c.7.5 1.6.3 2.1-.3.5-.7.3-1.6-.4-2.1l-9.5-6.8c-.7-.5-1.6-.3-2.1.4-.4.6-.3 1.5.4 2z" fill="#1e0f00"/><path d="m158.7 179.5c.2.1.5.2.8.2.5 0 1-.3 1.3-.7l6.1-10c.4-.7.1-1.6-.6-2s-1.5-.2-2 .5l-6.1 10c-.4.6-.2 1.5.5 2z" fill="#1e0f00"/><path d="m205.9 264.9-1.3-.7-280.7-147.7-12.1 23.1 300.8 158.2 35-66.5-18.8-9.9z" fill="#381c00"/><path d="m-48.8 52.1c.8.3 1.2 1.1.9 1.9-.2.6-.8 1-1.4 1-.2 0-.3 0-.5-.1l-11-3.9-13.2 25.1c.4.6.2 1.4-.3 1.9l-1.2 1-14.2 27 .6.3c.7-.4 1.6-.1 2 .5.1.2.2.4.2.6l27.2 14.3 2.3-1.4c.7-.4 1.6-.2 2.1.5.4.7.2 1.6-.5 2.1l-.8.5 12.8 6.8.1-.5c.2-.8 1-1.3 1.8-1.2.8.2 1.3.9 1.2 1.7l-.3 1.3 8.4 4.4c-.2-.7.1-1.3.7-1.7.7-.4 1.6-.1 2 .6l2 3.6 56.5 29.7-1.2-10.5c-.1-.8.5-1.6 1.3-1.7s1.6.5 1.7 1.3l1.3 11.6c0 .3 0 .6-.1.9l10 5.2 2.7-3.2c.5-.7 1.4-.8 2.1-.3s.8 1.4.3 2.1c0 0-.1.1-.1.1l-2.3 2.7 28.1 14.8c.6-.5 1.6-.4 2.1.2.2.3.4.7.3 1.1l28.5 15-4.9-8.7c-.4-.7-.1-1.6.6-2s1.6-.1 2 .6l5.7 10.2c.3.6.2 1.2-.2 1.7l36.2 19.1-2.7-3.6c-.5-.7-.4-1.6.3-2.1s1.6-.4 2.1.3c0 0 0 .1.1.1l6.3 8.6 12.1 6.4-.1-4.6c0-.8.6-1.5 1.5-1.5.8 0 1.5.6 1.5 1.5l.1 6.3 15.6 8.2c.8-.3 1.7 0 2 .8 0 .1.1.2.1.4l22.8 12 9.5-18s0-.1-.1-.1l-5.7-10.2c-.4-.7-.1-1.6.6-2s1.6-.1 2 .6l4.8 8.6 7.2-13.6-2.8-1.4c-.7-.4-1-1.3-.6-2s1.2-.9 1.9-.6l2.8 1.4 11.9-22.6-3.8-2-.3 1.1c-.2.7-.8 1.2-1.5 1.2-.1 0-.2 0-.3 0-.8-.2-1.3-1-1.1-1.8l.4-1.9-25.9-13.6-7 7.3c-.6.6-1.5.7-2.1.1s-.7-1.5-.1-2.1c0 0 0 0 .1-.1l6.4-6.6-45.8-24.1-1.6 2.7c-.3.5-.8.7-1.3.7-.3 0-.5-.1-.8-.2-.7-.4-.9-1.3-.5-2.1l1.6-2.7-12.6-6.5-3.4 2.9c-.3.2-.6.4-1 .4-.8 0-1.5-.6-1.5-1.5 0-.4.2-.9.5-1.2l2.5-2.2-65.2-34.3c-.1.4-.4.8-.9 1l-10.7 4.7c-.2.1-.4.1-.6.1-.8 0-1.5-.7-1.5-1.5 0-.6.4-1.2.9-1.4l10-4.4-15-7.9.1 4.8c0 .8-.6 1.5-1.5 1.5-.8 0-1.5-.7-1.5-1.5l-.1-6.4-11.5-6c.4.7.2 1.5-.4 2-.3.2-.6.3-.9.3-.5 0-.9-.2-1.2-.6l-3.5-4.8-37-20c-.2.1-.4.2-.7.2-.5 0-1-.3-1.3-.7l-.3-.8-29.2-15.3-.1.2-6.8 9.5c-.3.4-.7.6-1.2.6-.3 0-.6-.1-.9-.3-.7-.5-.8-1.4-.3-2.1l6.7-9.4-20.3-10.5-1.2 2.3zm-8.5 10.8c.8 0 1.5.6 1.5 1.5l.2 11.6c0 .8-.6 1.5-1.4 1.6-.8 0-1.5-.7-1.5-1.5l-.2-11.7c-.1-.8.5-1.4 1.4-1.5zm-11.5 29.1 5.9-10c.4-.7 1.3-.9 2-.5s.9 1.3.5 2l-5.9 10c-.3.5-.8.7-1.3.7-.3 0-.5-.1-.8-.2-.6-.4-.8-1.3-.4-2zm-5.6 19.4-6.5-9.7c-.5-.7-.3-1.6.4-2.1.7-.5 1.6-.3 2.1.4l6.5 9.7c.5.7.3 1.6-.4 2.1-.2.2-.5.3-.8.3-.6-.1-1-.3-1.3-.7zm21.5-9.9-6.1 10c-.3.4-.8.7-1.3.7-.3 0-.5-.1-.8-.2-.7-.4-.9-1.4-.5-2.1l6.1-9.9c.4-.7 1.4-.9 2.1-.5s.9 1.3.5 2zm19.5 17.6c-.3.4-.7.6-1.2.6-.3 0-.6-.1-.9-.3l-9.5-6.8c-.7-.5-.8-1.4-.4-2.1.5-.7 1.4-.8 2.1-.3l9.5 6.8c.7.5.9 1.4.4 2.1zm1.3-25.2-9.2 7.1c-.3.2-.6.3-.9.3-.5 0-.9-.2-1.2-.6-.5-.7-.4-1.6.3-2.1l9.2-7.1c.7-.5 1.6-.4 2.1.3.5.6.4 1.6-.3 2.1zm8.4-1.3c.7-.4 1.6-.2 2 .5l5.9 10c.4.7.2 1.6-.5 2.1-.2.1-.5.2-.8.2-.5 0-1-.3-1.3-.7l-5.9-10.1c-.3-.7-.1-1.5.6-2zm8.8 22.5-8 8.4c-.3.3-.7.5-1.1.5s-.7-.2-1-.4c-.6-.6-.6-1.5 0-2.1l8-8.4c.6-.6 1.5-.6 2.1 0 .5.5.6 1.4 0 2zm5.7 25.8h-.2c-.8 0-1.4-.6-1.5-1.3l-1.3-11.6c-.1-.8.5-1.6 1.3-1.7.8-.1 1.6.5 1.7 1.3l1.3 11.6c.1.9-.5 1.6-1.3 1.7zm9.8-19.5c-.1 0-.3.1-.4.1-.7 0-1.2-.4-1.4-1.1l-3.4-11.2c-.2-.8.2-1.6 1-1.9.8-.2 1.6.2 1.9 1l3.4 11.2c.1.9-.3 1.7-1.1 1.9zm8.9 10.4 2.6-11.4c.2-.8 1-1.3 1.8-1.1s1.3 1 1.1 1.8l-2.6 11.4c-.1.7-.7 1.2-1.4 1.2-.1 0-.2 0-.3 0-.8-.2-1.4-1-1.2-1.9zm12.8 10.8-10.1 5.9c-.2.1-.5.2-.8.2-.8 0-1.5-.7-1.5-1.5 0-.5.3-1 .7-1.3l10.1-5.9c.7-.4 1.6-.2 2.1.5.5.8.2 1.7-.5 2.1zm34.2-9.4c.7.4.9 1.4.5 2.1l-6.1 9.9c-.4.7-1.4.9-2.1.5s-.9-1.4-.5-2.1l6.1-9.9c.5-.7 1.4-.9 2.1-.5zm-19 12.3c-.2.2-.5.3-.8.2-.5 0-1-.3-1.2-.7l-6.4-9.7c-.4-.7-.2-1.6.5-2.1.7-.4 1.5-.2 2 .4l6.5 9.7c.3.9.1 1.8-.6 2.2zm16.5 11.2-10 6.1c-.2.1-.5.2-.8.2-.5 0-1-.3-1.3-.7-.4-.7-.2-1.6.5-2.1l10-6.1c.7-.4 1.6-.2 2.1.5.5.7.3 1.6-.5 2.1zm15.2 7.3-2.3 11.4c-.1.7-.8 1.2-1.5 1.2-.1 0-.2 0-.3 0-.8-.2-1.3-1-1.2-1.8l2.3-11.4c.2-.8 1-1.3 1.8-1.2s1.3 1 1.2 1.8zm7.2-11.1c-.3.4-.7.6-1.2.6-.3 0-.6-.1-.9-.3l-9.5-6.8c-.7-.5-.8-1.4-.3-2.1s1.4-.8 2.1-.4l9.5 6.8c.7.6.8 1.5.3 2.2zm8.7 28c-.2.1-.5.2-.7.2-.5 0-1-.3-1.3-.8l-5.7-10.2c-.5-.6-.5-1.6.2-2.1.6-.5 1.6-.5 2.1.2.1.2.2.3.3.5l5.7 10.2c.4.7.1 1.6-.6 2zm13 6.5-7.2 9.2c-.3.4-.7.6-1.2.6-.8 0-1.5-.7-1.5-1.5 0-.3.1-.6.3-.9l7.2-9.2c.5-.7 1.5-.8 2.1-.3.7.5.8 1.5.3 2.1zm2.6-12.8h-.2c-.8 0-1.4-.5-1.5-1.3l-1.4-11.6c-.1-.8.5-1.6 1.3-1.7s1.6.5 1.7 1.3l1.4 11.7c.1.8-.5 1.6-1.3 1.6 0 .1 0 .1 0 0zm22 20.8c-.3.5-.8.8-1.3.8-.2 0-.5-.1-.7-.2l-10.4-5.2c-.7-.4-1-1.3-.7-2 .4-.7 1.3-1 2-.7l10.3 5.3c.8.4 1.2 1.3.8 2 0 .1 0 .1 0 0zm8.6 26.2c-.2.1-.4.1-.6.1-.6 0-1.2-.4-1.4-1l-4.3-10.7c-.3-.8 0-1.7.8-2 .8-.3 1.6.1 1.9.8l4.3 10.8c.4.8.1 1.6-.7 2zm.9-45.2-10 5.9c-.7.4-1.6.1-2-.7-.3-.7-.1-1.5.5-1.9l10.1-5.9c.7-.4 1.6-.2 2.1.5.4.7.2 1.6-.5 2.1-.1-.1-.1-.1-.2 0zm31.8 14-10 6.1c-.2.1-.5.2-.8.2-.5 0-1-.3-1.3-.7-.4-.7-.2-1.6.5-2.1l9.9-6.1c.7-.4 1.6-.2 2.1.5s.3 1.7-.4 2.1zm-23.7 13.8h-.2c-.8 0-1.4-.6-1.5-1.3l-1.3-11.6c-.1-.8.5-1.6 1.3-1.7s1.6.5 1.7 1.3l1.3 11.6c.2.9-.4 1.7-1.3 1.7 0 .1 0 .1 0 0zm16.1 3.2-7.4 9c-.6.6-1.5.7-2.1.1-.6-.5-.7-1.4-.2-2l7.4-9c.5-.7 1.4-.8 2.1-.3.6.5.8 1.4.2 2.2 0-.1 0 0 0 0zm15.5 15.3c-.3.8-1.1 1.2-1.9.9l-11-3.9c-.8-.3-1.2-1.1-.9-1.9s1.1-1.2 1.9-.9l11 3.9c.8.3 1.2 1.1.9 1.9zm1.9-14.2 2.3-11.4c.2-.8 1-1.3 1.8-1.2s1.3 1 1.2 1.8l-2.3 11.4c-.1.7-.8 1.2-1.5 1.2h-.3c-.8-.1-1.4-.9-1.2-1.8zm10.6 18.5-6.8 9.5c-.5.7-1.4.8-2.1.3s-.8-1.4-.3-2.1l6.8-9.5c.5-.7 1.4-.8 2.1-.3s.8 1.4.3 2.1zm20.1 19.5c-.4.7-1.3 1-2 .7l-10.4-5.2c-.7-.4-1-1.3-.7-2s1.3-1 2-.7l10.4 5.2c.8.4 1.1 1.3.7 2 0 .1 0 .1 0 0zm3.4-25.3-7.1 9.2c-.5.7-1.5.8-2.1.3s-.8-1.5-.3-2.1l7.1-9.2c.5-.7 1.4-.8 2.1-.3.7.5.9 1.4.3 2.1zm-12.3-8.6c.4.7.1 1.6-.6 2-.2.1-.5.2-.7.2-.5 0-1-.3-1.3-.8l-5.7-10.2c-.4-.7-.1-1.6.6-2s1.6-.1 2 .6zm13.2-18.7c.8-.1 1.6.5 1.7 1.3l1.3 11.6c.1.8-.5 1.6-1.3 1.7h-.2c-.8 0-1.4-.6-1.5-1.3l-1.3-11.6c-.1-.9.5-1.6 1.3-1.7zm-34.4-15.8c.5-.7 1.4-.8 2.1-.4l9.5 6.8c.7.5.8 1.4.3 2.1-.3.4-.7.6-1.2.6-.3 0-.6-.1-.9-.3l-9.5-6.8c-.6-.4-.8-1.3-.3-2zm-16.2-.7 6.1-10c.5-.7 1.4-.9 2.1-.4.7.4.9 1.3.5 2l-6.1 10c-.3.4-.8.7-1.3.7-.3 0-.5-.1-.8-.2-.7-.5-.9-1.4-.5-2.1zm-19-10.3c.7-.5 1.6-.3 2.1.4l6.5 9.7c.5.7.3 1.6-.4 2.1-.2.2-.5.2-.8.2-.5 0-1-.3-1.2-.7l-6.5-9.7c-.5-.6-.3-1.5.3-2zm-15.5-14.1c.8.2 1.3 1 1.1 1.8l-2.6 11.4c-.2.7-.8 1.2-1.5 1.2-.1 0-.2 0-.3 0-.8-.2-1.3-1-1.1-1.8l2.6-11.4c.2-.8 1-1.3 1.8-1.2 0 0 .1 0 0 0zm-17.5-11.9c.8-.2 1.6.2 1.9 1l3.4 11.1c.2.8-.2 1.6-1 1.9-.1 0-.3.1-.4.1-.7 0-1.2-.4-1.4-1.1l-3.3-11.2c-.4-.7.1-1.5.8-1.8zm-11.2 7.7-8 8.4c-.3.3-.7.5-1.1.5s-.7-.2-1-.4c-.6-.6-.6-1.5 0-2.1l8.1-8.4c.4-.7 1.3-.9 2.1-.5s.9 1.3.5 2.1c-.2.1-.4.3-.6.4zm-8.8-22.4c.7-.4 1.6-.1 2 .5l5.9 10.1c.4.7.1 1.6-.5 2-.2.1-.5.2-.8.2-.5 0-1-.3-1.3-.8l-5.9-10.1c-.3-.6-.1-1.5.6-1.9zm-19.4 6 9.2-7.1c.7-.5 1.6-.4 2.1.3s.4 1.6-.3 2.1l-9.2 7.1c-.3.2-.6.3-.9.3-.8 0-1.5-.7-1.5-1.5 0-.5.2-.9.6-1.2zm-17.7-17.2c.7.4.9 1.3.5 2.1l-5.9 10c-.4.7-1.3 1-2 .6s-1-1.3-.6-2l5.9-10c.4-.9 1.3-1.1 2.1-.7zm-13.3-5.5c.5.6.5 1.6-.2 2.1l-8.8 7.6c-.3.2-.6.4-1 .4-.8 0-1.5-.7-1.5-1.5 0-.4.2-.9.5-1.1l8.8-7.6c.6-.7 1.6-.6 2.2.1-.1-.1-.1-.1 0 0zm-29.5-13.3c.5-.7 1.4-.8 2.1-.4l9.5 6.8c.7.5.8 1.4.4 2.1-.3.4-.7.6-1.2.6-.3 0-.6-.1-.9-.3l-9.5-6.8c-.7-.4-.9-1.4-.4-2zm-14.8-6.3 8.6-7.9c.5-.6 1.5-.7 2.1-.2s.7 1.5.2 2.1c-.1.1-.2.2-.3.3l-8.6 7.9c-.3.3-.6.4-1 .4s-.8-.2-1.1-.5c-.5-.6-.5-1.6.1-2.1zm-19.8-18.9c.4-.7 1.3-1 2-.7l10.4 5.2c.7.4 1 1.3.7 2-.3.5-.8.8-1.3.8-.2 0-.5-.1-.7-.2l-10.4-5.2c-.8-.3-1.1-1.1-.7-1.9zm-9.7 8.5c.3.8 0 1.6-.7 2l-10.7 4.7c-.2.1-.4.1-.6.1-.6 0-1.1-.3-1.4-.9-.3-.8 0-1.7.8-2l10.7-4.7c.7-.3 1.6 0 1.9.8z" fill="#fd78ad"/><path d="m11 133.6c.7 0 1.3-.5 1.5-1.2l2.5-11.4c.2-.8-.3-1.6-1.1-1.8s-1.6.3-1.8 1.1l-2.6 11.4c-.2.8.3 1.6 1.1 1.8.2.1.3.1.4.1z" fill="#1e0f00"/><path d="m-1.8 108.4c-.2-.8-1.1-1.2-1.9-1s-1.2 1.1-1 1.9l3.4 11.2c.2.6.8 1.1 1.4 1.1.1 0 .3 0 .4-.1.8-.2 1.2-1.1 1-1.9z" fill="#1e0f00"/><path d="m24.8 117.1c-.6.5-.7 1.5-.1 2.1.3.3.7.5 1.1.5s.7-.1 1-.4l8.8-7.6c.6-.6.7-1.5.1-2.1s-1.5-.7-2.1-.1z" fill="#1e0f00"/><path d="m20.8 140.1-10 5.9c-.7.4-.9 1.3-.5 2.1.3.5.8.7 1.3.7.3 0 .5-.1.8-.2l10.1-5.9c.7-.4 1-1.3.5-2.1-.5-.7-1.5-1-2.2-.5z" fill="#1e0f00"/><path d="m-7.5 92.7c.4 0 .7-.1 1-.4l8.6-7.9c.7-.5.9-1.4.4-2.1s-1.4-.9-2.1-.4c-.1.1-.2.2-.3.3l-8.6 7.9c-.6.6-.6 1.5-.1 2.1.3.3.7.5 1.1.5z" fill="#1e0f00"/><path d="m31.5 133.8c-.6-.6-1.5-.7-2.1-.1-.5.5-.6 1.2-.3 1.8l6.5 9.7c.3.4.7.7 1.2.7.3 0 .6-.1.8-.2.7-.5.9-1.4.4-2.1z" fill="#1e0f00"/><path d="m41.1 125.7c-.4.7-.2 1.6.5 2.1.7.4 1.6.2 2.1-.5l5.9-10c.4-.7.2-1.6-.5-2.1-.7-.4-1.6-.2-2.1.5z" fill="#1e0f00"/><path d="m6.7 98.4 9.5 6.8c.3.2.6.3.9.3.5 0 .9-.2 1.2-.6.5-.7.3-1.6-.4-2.1l-9.5-6.8c-.7-.5-1.6-.4-2.1.3s-.4 1.6.3 2.1z" fill="#1e0f00"/><path d="m48.3 143.6c-.4.7-.2 1.6.5 2.1.7.4 1.6.2 2.1-.5l6.1-9.9c.4-.7.2-1.6-.5-2.1-.7-.4-1.6-.2-2.1.5z" fill="#1e0f00"/><path d="m52.5 154.1-10 6.1c-.7.4-.9 1.4-.5 2.1.3.4.8.7 1.3.7.3 0 .5-.1.8-.2l10-6.1c.7-.4.9-1.4.5-2.1-.5-.7-1.4-.9-2.1-.5z" fill="#1e0f00"/><path d="m-93.7 107.2 17.6 9.3 280.6 147.7 1.3.7 22.9-43.5 11.5-21.8-299.5-157.7zm55.9-50.6-6.7 9.4c-.5.7-.3 1.6.3 2.1.3.2.6.3.9.3.5 0 .9-.2 1.2-.6l6.8-9.5.1-.2 29.2 15.2.4.6c.3.5.8.8 1.3.8.2 0 .5-.1.7-.2l37.3 19.7 3.5 4.8c.3.4.7.6 1.2.6.3 0 .6-.1.9-.3.6-.5.8-1.3.4-2l11.5 6 .1 6.4c0 .8.7 1.5 1.5 1.5.8 0 1.5-.7 1.5-1.5l-.1-4.8 15 7.9-10 4.4c-.8.3-1.1 1.2-.8 2 .2.6.8.9 1.4.9.2 0 .4 0 .6-.1l10.7-4.7c.4-.2.7-.6.9-1l65.3 34.3-2.5 2.2c-.6.5-.7 1.5-.2 2.1.3.3.7.5 1.2.5.4 0 .7-.1 1-.4l3.4-2.9 12.5 6.6-1.6 2.7c-.4.7-.2 1.6.5 2.1.2.1.5.2.8.2.5 0 1-.3 1.3-.7l1.7-2.9 45.8 24.1-6.4 6.6c-.6.6-.5 1.6.1 2.1s1.5.5 2.1 0l7-7.3 25.9 13.6-.4 1.9c-.2.8.3 1.6 1.1 1.8h.3c.7 0 1.3-.5 1.5-1.2l.3-1.1 3.8 2-11.9 22.6-2.8-1.4c-.8-.3-1.6 0-2 .8-.3.7 0 1.5.6 1.9l2.8 1.4-7.2 13.6-4.8-8.6c-.4-.7-1.3-1-2-.6s-1 1.3-.6 2l5.6 10.2s0 .1.1.1l-9.5 18-22.8-12c0-.1-.1-.2-.1-.4-.3-.8-1.2-1.1-2-.8l-15.7-8.2-.1-6.3c0-.8-.7-1.5-1.5-1.5s-1.5.7-1.5 1.5l.1 4.6-12.1-6.4-6.3-8.6c-.5-.7-1.4-.9-2.1-.4s-.9 1.4-.4 2.1c0 0 0 .1.1.1l2.7 3.6-36.2-19.1c.4-.5.5-1.2.2-1.7l-5.7-10.2c-.4-.7-1.3-1-2.1-.5-.7.4-.9 1.3-.6 2l4.9 8.7-28.5-15c.1-.8-.5-1.5-1.4-1.6-.4 0-.8.1-1.1.3l-28.1-14.8 2.3-2.7c.6-.6.5-1.6-.1-2.1-.6-.6-1.6-.5-2.1.1 0 0-.1.1-.1.1l-2.7 3.2-10-5.2c.1-.3.2-.6.1-.9l-1.3-11.6c-.1-.8-.8-1.4-1.7-1.3s-1.4.8-1.3 1.7l1.3 10.5-56.4-29.7-2-3.6c-.4-.7-1.3-1-2-.6-.6.3-.9 1-.7 1.7l-8.4-4.4.3-1.3c.2-.8-.3-1.6-1.1-1.8-.8-.2-1.6.4-1.8 1.2l-.1.5-12.8-6.8.8-.5c.7-.4.9-1.3.5-2-.4-.7-1.4-.9-2.1-.5l-2.3 1.4-27.2-14.3c0-.2-.1-.4-.2-.6-.4-.7-1.3-.9-2-.5l-.6-.3 14.2-26.9 1.2-1c.5-.5.7-1.3.3-1.9l12.8-24.9 11 3.9c.2.1.3.1.5.1.6 0 1.2-.4 1.4-1 .3-.8-.1-1.6-.9-1.9l-10.6-3.8 1.2-2.3z" fill="#1e0f00"/><path d="m312.7 154.3 81.9-25.6-18.1-8.3-61.5 19.2-18.2-61.6-6 2.1z" fill="#381c00"/><path d="m343.9 85.6 10.5-28-1.5.5-10.1 27z" fill="#381c00"/><path d="m317.1 135.9 76.6-24.1-54.7-25.2 16.1-43.1-59.2 21z" fill="#2ed3cb"/><path d="m376.5 120.4 25.5-8-58.2-26.8-1.1-.5 10.1-27 7.3-19.6-68 24.1 4.5 15.4 18.2 61.7zm-21.4-76.9-16.1 43.1 54.7 25.2-76.7 24-21.1-71.3z" fill="#1e0f00"/><path d="m660.6 175.6 1 2.2c.2-.3.4-.4.7-.5z" fill="#2ed3cb"/><path d="m915 27.2c-.2-2.6-1.2-4.4-2.9-5.3-2.4-.1-4.7.1-7 .7-4.7 2.5-8 7.7-10.9 11.8l-14.1 19.3c-4.7 6.4-9.3 12.9-14 19.3-3.3 4.6-6.6 9.3-10.9 13-3.2 2.8-6.9 4.9-11 6.1-1.3 1-2.9 1.6-4.5 1.5-.6-.1-1.2-.3-1.7-.6-5.4 0-10.4-2.6-13.6-6.9-1.2-1.6-2.3-3.3-3.1-5.1-1.4 7.1-.7 14.3 4.2 20.5 8.4 10.5 21.8 7.7 30.8-.2 4.3-3.7 7.5-8.5 10.9-13l14.1-19.3 14-19.3c3.2-4.4 6.8-10.1 12-12.3 1.4-.7 3.1-.9 4.7-.6 1.9-3 3.2-6.2 3-9.6z" fill="#381c00"/><path d="m705.6 7.8c-5.8-.6-11.6.1-17 2-12.3 6.6-20.1 23.4-25.4 35-1.6 3.4-6.3 4.5-9.6 3.1-.7 1.6-1.5 3.2-2.2 4.8-1.7 3.7-1 8 2.8 10.2 3.2 1.9 8.6.9 10.2-2.8 7.4-16.2 19.8-42.7 42.3-37.1 3.4.7 6.5 2.6 8.6 5.4.6.9 1.1 1.8 1.5 2.7 1.5-10.7-.2-20.4-11.2-23.3z" fill="#381c00"/><path d="m769 80.4c-6.4 9.9-14.2 19.5-26.1 22.8-.2.1-.4.1-.6.1-2.7 1.4-5.9 1.7-8.8.7-7.4-.8-14.1-4.7-18.5-10.7-2.5-3.4-4.3-7.3-5.4-11.4-.8 9.4.8 19 6.6 26.7 6.3 8.8 17.4 12.8 27.9 9.9 11.9-3.3 19.7-12.9 26.1-22.8 7.1-11.1 14-22.3 21-33.5 12.3-19.6 24.6-39.1 36.8-58.7h-10.8c-9.1 14.5-18.1 28.9-27.2 43.4-7 11.1-13.8 22.4-21 33.5z" fill="#381c00"/><path d="m912.2 54c-1.1 1.7-2.3 3.3-3.3 4.8-5.5 7.9 7.5 15.4 13 7.5 6.7-9.7 12.5-21.1 7.4-32.8-1.5 6.2-4.9 12.1-8.6 17.5-1.9 2.7-5.3 4-8.5 3z" fill="#381c00"/><path d="m852.6 47.1c6.2-13 12.5-25.9 18.7-38.9.7-1.5 1.5-3.1 2.3-4.6h-8.6c-4.5 9.4-9 18.8-13.5 28.2-3.2 6.8-6.5 13.6-9.8 20.4-2.5 5.1-5.7 10.4-6.9 16.1-.6 3-.7 8.7 2.9 9.9 1.5-3.7 3.5-7.2 5.1-10.7z" fill="#381c00"/><path d="m724.8 80.7c.4-2.6 1-5.2 1.7-7.8 3.7-13.5 8.8-26.8 5.7-41-.1-.6-.3-1.2-.5-1.9-.8 9.3-4 18.3-6.4 27.5-1.9 7.1-3.5 16.1-.5 23.2z" fill="#381c00"/><path d="m650.1 37.4c-1.7 3.7-1 8 2.8 10.2.2.1.4.2.7.3 3.3 1.4 8 .3 9.6-3.1 5.3-11.6 13.2-28.5 25.4-35 5.2-2.8 11.2-3.5 16.9-2h.2c11.1 2.9 12.7 12.5 11.2 23.4-1.6 11.6-6.9 24.6-8 32-1 6.2-.8 12.6.8 18.7 1.1 4.1 2.9 7.9 5.4 11.3 4.4 6 11.1 9.9 18.5 10.7 3 .3 5.9 0 8.8-.7.2-.1.4-.1.6-.1 11.9-3.2 19.7-12.8 26.1-22.8 7.1-11.1 14-22.3 21-33.5 9.1-14.4 18.1-28.8 27.2-43.3h-17.7l-.7 1.1-23.4 37.2c-7.4 11.8-14.3 24.2-22.5 35.5-5.1 7-16 16.9-24.4 8.8-1.6-1.5-2.9-3.4-3.8-5.4-3-7.1-1.4-16.1.5-23.2 2.5-9.1 5.6-18.2 6.4-27.5.4-4.5.2-9.1-.7-13.5-1-4.7-3.1-9.1-6.1-12.9h-53.2c-10 9-16 21.6-21.6 33.8z" fill="#fe89e2"/><path d="m834.8 68.2c1.2-5.7 4.4-11 6.8-16.2 3.3-6.8 6.5-13.6 9.8-20.4 4.5-9.4 9-18.8 13.6-28.2h-16.6l-7.4 15.5c-5.8 12-11.9 24-17.3 36.2-3.7 8.3-5.8 17.8-2.3 26.1.8 1.8 1.8 3.5 3 5.1 3.2 4.3 8.3 6.8 13.6 6.8 2.1 0 4.2-.3 6.2-.9 4.1-1.2 7.8-3.3 11-6.1 4.3-3.7 7.5-8.5 10.9-13 4.7-6.5 9.3-12.9 14-19.3l14.1-19.3c3-4.1 6.3-9.3 10.9-11.8.3-.2.7-.4 1.1-.5 1.8-.9 4-1 5.9-.1 1.6.9 2.7 2.6 2.9 5.3.2 3.4-1.2 6.6-3 9.6-1.4 2.4-3 4.6-4.4 6.6-3.3 4.8.1 9.4 4.5 10.6 3.2 1 6.6-.3 8.5-3.1 3.7-5.4 7.1-11.3 8.6-17.5 1.3-5.2.9-10.7-1.3-15.7-5-11.3-18-13.8-28.5-9-11.8 5.3-19 19.4-26.4 29.4-8 11-15.5 23.1-24.5 33.4-2.2 2.4-6.2 7.3-9.9 6.8-.3 0-.6-.1-.9-.2-3.5-1.4-3.5-7.1-2.9-10.1z" fill="#fe89e2"/><path d="m56.3 3.3c1.1 2.8 2.7 5.3 4.7 7.5 4.6 5.1 11 8.1 17.9 8.4 9.7.5 18.7-3.9 26-9.8 3.6-2.8 7-6.4 10.7-9.5h-60.4c.3 1.2.7 2.3 1.1 3.4z" fill="#2ed3cb"/><path d="m135.8 7.7c.4 7.1.9 14 5 20.5.7 1.1 1.5 2.2 2.3 3.2 12.6 15.4 37 17.3 50.7 2.1.5-.5 1-1.1 1.4-1.7 3.3-4.2 4.1-10 0-14.1-3.5-3.5-10.8-4.3-14.1 0-3.6 4.5-8.7 7.6-14.6 6.3-4.4-1-8-4.1-9.6-8.2-.5-1.2-.9-2.5-1.1-3.8-.2-1.6-.3-3.1-.4-4.7-.1-2.4-.1-4.8-.3-7.2h-19.8c0 .3.1.6.1.9.2 2.2.2 4.4.4 6.7z" fill="#2ed3cb"/><circle cx="2687.4" cy="1203.6" fill="#fd78ad" r="156.6"/></svg>